{"glyphs":{"0":{"ha":1083,"x_min":103,"x_max":925,"o":"m 913 207 q 866 90 910 151 q 761 -29 822 29 q 635 -97 708 -82 q 478 -93 563 -111 q 452 -92 464 -90 q 429 -99 440 -94 q 190 -21 263 -165 q 156 93 164 35 q 140 211 147 151 q 127 417 129 314 q 119 625 125 521 q 109 780 115 703 q 104 933 103 857 l 104 940 q 133 1051 103 1014 q 238 1107 163 1089 q 398 1108 324 1126 q 522 1035 472 1090 q 557 1008 539 1015 q 604 1003 575 1000 q 724 980 668 1010 q 804 900 781 950 q 866 722 847 813 q 907 540 885 631 q 924 387 925 465 q 913 207 924 308 m 589 332 q 598 381 594 360 q 604 419 601 401 q 598 533 611 476 q 583 644 585 589 q 581 750 582 697 q 574 854 581 803 q 533 985 565 924 q 414 1085 500 1046 q 321 1104 369 1106 q 230 1085 272 1103 q 160 1038 188 1068 q 132 967 133 1007 q 130 857 131 911 q 135 749 129 803 q 146 546 144 647 q 152 344 147 444 q 174 142 157 243 q 190 40 182 90 q 235 -56 199 -10 q 383 -99 289 -125 q 459 -55 433 -85 q 499 10 485 -25 q 558 172 529 92 q 589 332 586 253 m 886 244 q 900 340 899 290 q 896 440 901 390 q 866 609 888 525 q 821 778 844 693 q 767 906 804 842 q 698 967 746 942 q 604 990 650 992 q 576 983 585 989 q 572 957 567 976 q 597 853 589 906 q 605 701 608 776 q 617 551 601 626 q 619 372 633 458 q 575 152 603 261 q 486 -57 547 43 q 484 -74 478 -71 q 504 -81 490 -78 q 619 -82 565 -90 q 715 -37 674 -74 q 831 88 782 19 q 886 244 881 156 m 471 257 q 463 201 467 229 q 456 146 458 174 q 442 112 454 126 q 411 86 431 97 q 315 99 361 58 q 254 190 268 140 q 240 290 240 239 q 239 488 239 389 q 240 686 239 588 q 243 730 240 707 q 268 763 246 753 q 348 783 304 781 q 431 765 392 785 q 467 727 460 753 q 475 678 475 701 q 479 467 475 572 q 471 257 483 361 m 446 276 q 453 453 461 364 q 447 631 446 542 q 442 686 449 658 q 424 740 435 714 q 396 761 417 757 q 378 758 382 764 q 371 743 374 751 q 363 717 367 729 q 356 689 358 704 q 349 417 333 554 q 393 143 364 279 q 397 129 394 138 q 410 121 400 121 q 424 129 421 121 q 428 144 426 138 q 438 210 433 176 q 446 276 442 243 m 265 668 q 265 466 268 567 q 271 264 261 365 q 288 181 275 221 q 339 106 300 140 q 356 93 347 99 q 376 93 365 88 q 381 106 386 99 q 372 118 375 113 q 367 134 371 126 q 363 149 364 142 q 339 265 349 207 q 324 381 329 322 q 315 556 318 468 q 333 729 311 644 q 340 746 336 736 q 328 760 343 756 q 305 758 317 763 q 288 744 293 754 q 270 708 278 726 q 265 668 263 689 z "},"1":{"ha":1000,"x_min":57,"x_max":717,"o":"m 364 846 q 290 785 324 815 q 226 724 257 756 q 111 592 167 657 q 100 581 106 586 q 86 576 94 575 q 76 587 76 579 q 75 601 75 594 q 69 691 69 646 q 60 779 68 736 q 65 799 57 794 q 83 804 74 803 q 163 828 126 810 q 233 871 199 846 q 260 892 247 882 q 288 911 274 901 q 413 1094 378 982 q 427 1121 418 1111 q 454 1128 436 1131 q 496 1132 476 1125 q 536 1143 515 1139 q 578 1117 567 1150 q 631 909 608 1014 q 667 697 653 804 q 691 469 682 583 q 700 239 700 354 q 703 141 700 190 q 713 43 706 92 q 711 11 717 24 q 682 -4 706 -1 q 655 -11 668 -7 q 628 -19 642 -15 q 595 -31 611 -25 q 574 -58 579 -36 q 563 -70 572 -68 q 546 -74 554 -72 q 408 -97 478 -87 q 268 -112 338 -106 q 244 -107 249 -114 q 243 -83 240 -100 q 298 206 269 61 q 338 499 326 351 q 351 669 344 583 q 364 846 357 754 m 533 1122 q 508 1118 519 1125 q 485 1113 496 1111 q 445 1104 457 1117 q 433 1067 433 1092 q 428 1052 432 1060 q 435 1039 425 1044 q 467 1039 451 1029 q 508 1074 493 1053 q 533 1122 524 1094 m 557 1097 q 533 1043 529 1075 q 547 948 540 996 q 560 851 554 900 q 569 753 565 803 q 574 656 572 704 q 578 518 578 588 q 582 379 578 449 q 586 222 586 301 q 583 65 586 143 q 583 16 582 31 q 599 1 585 1 q 646 7 613 1 q 685 26 678 14 q 690 71 693 38 q 687 131 689 101 q 682 192 685 161 q 680 306 676 249 q 676 418 683 363 q 666 528 671 474 q 654 638 661 582 q 631 812 644 725 q 594 983 617 899 q 577 1039 588 1011 q 557 1097 567 1067 m 92 606 q 102 618 99 614 q 110 626 106 622 q 224 751 167 689 q 349 864 281 813 q 363 874 356 868 q 379 874 371 879 q 388 860 389 869 q 389 843 388 851 q 388 826 389 835 q 385 810 386 818 q 373 701 379 756 q 364 592 367 646 q 348 389 358 490 q 318 189 338 288 q 294 66 307 126 q 269 -56 282 6 q 271 -78 267 -69 q 293 -83 275 -86 q 413 -70 353 -76 q 531 -53 472 -64 q 547 -47 542 -50 q 554 -29 553 -43 q 564 116 561 43 q 564 263 567 189 q 556 593 558 426 q 544 806 554 700 q 515 1017 535 911 q 506 1035 513 1033 q 488 1028 500 1038 q 464 1016 476 1021 q 436 1015 451 1011 q 408 1014 419 1021 q 389 993 397 1007 q 368 955 378 975 q 339 921 358 935 q 228 838 283 879 q 101 786 174 797 q 85 781 92 785 q 81 765 79 776 q 87 689 88 728 q 92 606 86 650 z "},"2":{"ha":1111,"x_min":101,"x_max":856,"o":"m 297 878 q 299 936 296 908 q 308 992 303 964 q 394 1090 324 1065 q 458 1108 426 1101 q 524 1108 489 1114 q 569 1111 546 1106 q 614 1119 592 1117 q 682 1121 649 1124 q 746 1103 715 1118 q 828 1017 800 1076 q 849 896 856 957 q 816 772 840 831 q 761 656 792 713 q 678 512 722 582 q 582 376 635 442 q 542 327 563 351 q 499 283 522 303 q 503 264 481 271 q 542 255 522 258 q 579 246 561 251 q 642 222 611 236 q 697 190 672 208 q 751 170 724 172 q 804 163 778 168 q 839 150 833 157 q 840 114 844 143 q 831 69 836 92 q 822 24 826 47 q 792 1 817 0 q 763 6 778 4 q 735 13 749 7 q 706 -1 710 24 q 703 -11 704 -7 q 700 -21 701 -15 q 671 -74 694 -58 q 615 -94 647 -89 q 488 -109 551 -103 q 360 -112 425 -115 q 274 -106 317 -110 q 189 -107 232 -103 q 163 -111 175 -108 q 138 -112 151 -114 q 108 -101 115 -110 q 107 -69 101 -92 q 129 1 117 -33 q 156 69 142 35 q 269 314 208 193 q 385 557 329 435 q 425 640 404 599 q 472 719 446 681 q 508 782 492 750 q 529 849 524 814 q 532 868 532 858 q 529 888 532 878 q 524 908 526 897 q 510 919 521 918 q 489 917 499 922 q 471 904 479 911 q 454 876 458 892 q 444 843 450 860 q 442 832 443 838 q 440 819 442 826 q 427 786 433 792 q 392 782 421 781 q 360 783 376 783 q 329 775 344 782 q 309 776 314 769 q 304 793 304 782 q 299 837 303 815 q 297 878 296 858 m 564 1100 q 572 1093 569 1096 q 578 1091 575 1092 q 583 1090 581 1090 q 649 1052 628 1081 q 675 981 669 1024 q 675 913 681 946 q 663 846 669 879 q 637 749 651 797 q 592 658 622 700 q 538 574 563 618 q 490 486 514 531 q 413 338 450 414 q 332 193 376 263 q 328 177 325 182 q 344 171 331 172 q 422 169 383 168 q 500 147 461 171 q 559 126 526 132 q 622 111 592 119 q 634 109 629 110 q 644 114 639 108 q 665 140 656 128 q 685 167 675 153 q 682 183 694 179 q 608 219 643 197 q 529 244 572 240 q 502 251 515 246 q 476 260 489 256 q 474 283 456 267 q 490 298 482 290 q 507 314 499 306 q 641 482 579 394 q 751 667 703 569 q 804 782 781 724 q 835 906 828 840 q 809 1022 842 967 q 719 1099 776 1078 q 644 1108 682 1113 q 564 1100 606 1104 m 389 -99 q 492 -94 446 -99 q 582 -83 539 -89 q 640 -72 621 -78 q 668 -50 658 -67 q 689 3 678 -33 q 660 40 701 43 q 599 35 629 38 q 539 25 568 32 q 394 11 467 7 q 249 25 321 15 q 232 51 221 29 q 263 113 247 83 q 297 171 278 143 q 363 278 335 222 q 422 390 392 335 q 483 510 454 450 q 551 626 513 571 q 610 728 588 675 q 646 842 633 782 q 658 908 653 874 q 660 975 663 942 q 645 1032 657 1006 q 604 1069 633 1058 q 506 1097 556 1089 q 403 1082 456 1106 q 353 1051 374 1069 q 326 1000 333 1032 q 312 908 315 954 q 317 815 308 863 q 347 790 321 790 q 394 795 381 792 q 415 812 408 799 q 431 857 422 825 q 449 899 438 881 q 486 928 461 918 q 546 894 536 946 q 544 838 551 865 q 524 785 536 811 q 453 656 492 718 q 386 524 415 593 q 306 356 350 439 q 225 188 261 274 q 169 65 199 125 q 125 -61 140 4 q 126 -93 119 -85 q 158 -97 133 -101 q 196 -91 178 -94 q 232 -89 214 -87 q 317 -93 276 -90 q 389 -99 358 -96 m 696 144 q 674 125 682 135 q 660 104 667 115 q 649 94 654 99 q 632 93 643 90 q 579 108 606 100 q 525 122 553 117 q 484 139 503 126 q 443 153 465 151 q 384 154 414 156 q 324 153 354 153 q 312 151 318 153 q 300 143 306 150 q 254 57 274 104 q 263 39 250 40 q 351 26 307 35 q 438 25 394 18 q 531 38 485 32 q 624 54 576 44 q 657 53 639 57 q 686 64 675 49 q 694 97 696 79 q 696 129 692 114 q 697 135 697 132 q 696 144 696 139 m 739 151 q 719 148 725 156 q 711 129 713 140 q 710 106 710 118 q 708 83 711 94 q 706 58 707 71 q 719 38 706 46 q 756 22 736 28 q 794 18 775 17 q 803 24 801 19 q 807 35 806 29 q 824 118 818 76 q 800 147 829 144 q 769 149 785 149 q 739 151 754 150 z "},"3":{"ha":1028,"x_min":118,"x_max":778,"o":"m 624 908 q 617 805 629 857 q 588 700 606 753 q 585 687 586 693 q 589 674 585 681 q 632 603 610 639 q 668 532 654 568 q 721 402 694 467 q 756 268 747 338 q 769 204 760 236 q 775 140 778 172 q 717 21 769 76 q 576 -53 664 -35 q 519 -67 547 -58 q 467 -90 492 -75 q 394 -113 436 -110 q 314 -103 353 -117 q 250 -58 275 -90 q 195 14 224 -22 q 131 82 167 50 q 120 98 122 89 q 118 117 118 107 q 142 229 125 174 q 185 339 160 285 q 222 368 194 360 q 310 374 264 378 q 353 351 339 372 q 392 268 381 311 q 407 181 403 225 q 408 126 410 154 q 411 72 406 99 q 413 62 413 67 q 422 56 414 57 q 434 59 429 56 q 443 67 439 63 q 463 103 457 85 q 475 242 489 174 q 442 378 461 310 q 388 485 424 435 q 301 579 351 535 q 247 610 271 607 q 179 599 224 613 q 140 591 144 588 q 131 621 136 594 q 142 671 122 656 q 197 697 163 686 q 379 792 301 728 q 428 865 419 826 q 422 944 436 903 q 396 969 414 967 q 357 954 378 972 q 339 935 347 946 q 324 914 331 925 q 304 897 313 897 q 278 910 296 896 q 240 940 258 925 q 204 969 222 954 q 185 986 194 978 q 163 1000 176 994 q 161 1029 133 1013 q 216 1061 189 1044 q 274 1089 243 1078 q 340 1106 306 1101 q 410 1104 375 1111 q 438 1104 425 1103 q 460 1115 450 1106 q 467 1120 463 1118 q 475 1124 471 1122 q 594 1089 568 1169 q 619 1001 610 1046 q 624 908 629 957 m 606 911 q 599 1000 613 956 q 571 1089 586 1044 q 537 1125 561 1121 q 481 1110 513 1129 q 467 1094 468 1101 q 479 1078 465 1088 q 526 1013 522 1051 q 528 891 533 951 q 493 772 522 831 q 456 716 479 742 q 407 665 433 690 q 401 658 404 663 q 401 650 397 653 q 410 647 404 646 q 422 649 417 647 q 482 662 454 651 q 538 682 510 672 q 571 713 565 693 q 598 810 586 761 q 606 911 610 858 m 499 190 l 499 153 q 463 60 493 92 q 365 18 433 29 q 347 16 356 17 q 329 14 338 15 q 269 27 296 11 q 239 67 243 43 q 236 113 233 90 q 244 157 239 135 q 221 179 250 181 q 198 178 210 178 q 175 179 186 179 q 163 178 169 179 q 154 174 156 178 q 140 132 149 154 q 147 93 132 110 q 213 17 182 56 q 274 -60 243 -21 q 340 -94 297 -86 q 413 -92 383 -101 q 491 -52 457 -76 q 550 3 525 -28 q 592 73 578 36 q 615 146 606 110 q 635 308 640 228 q 578 464 631 389 q 490 549 544 513 q 378 618 436 586 q 361 632 364 625 q 365 650 358 639 q 391 680 376 665 q 419 708 406 694 q 499 851 485 775 q 506 1006 513 928 q 451 1077 501 1050 q 333 1093 400 1104 q 254 1063 288 1083 q 183 1025 221 1042 q 183 1010 172 1019 q 230 969 207 990 q 275 929 253 949 q 313 935 299 911 q 329 953 319 946 q 350 968 339 961 q 408 981 379 988 q 446 947 436 975 q 367 761 479 836 q 281 714 326 733 q 186 676 235 694 q 150 633 149 663 q 156 613 151 619 q 185 614 160 607 q 263 621 231 628 q 326 583 294 614 q 375 533 353 560 q 414 476 397 506 q 474 336 456 408 q 499 190 493 264 m 397 628 q 483 569 446 599 q 558 510 521 539 q 631 408 614 467 q 656 248 657 328 q 619 88 654 168 q 590 24 606 56 q 546 -37 574 -8 q 557 -38 553 -37 q 564 -37 561 -39 q 701 31 650 -22 q 753 149 753 83 q 737 284 753 218 q 696 415 721 350 q 641 535 674 476 q 576 653 608 594 q 566 668 572 661 q 544 668 560 675 q 397 628 482 638 m 197 192 q 232 195 211 199 q 265 210 253 192 q 300 275 288 242 q 319 343 313 308 q 311 360 322 356 q 275 361 299 365 q 231 349 251 357 q 206 331 210 340 q 182 278 193 304 q 160 224 171 251 q 160 199 153 206 q 197 192 168 192 m 342 325 q 319 260 331 292 q 288 199 307 228 q 265 134 268 167 q 263 68 261 101 q 278 43 263 53 q 309 33 289 36 q 350 33 329 31 q 381 42 371 35 q 389 51 388 46 q 389 61 390 56 q 385 134 383 97 q 382 207 386 171 q 371 267 379 238 q 342 325 363 297 z "},"4":{"ha":1083,"x_min":53,"x_max":815,"o":"m 400 114 q 339 114 368 113 q 282 118 310 115 q 231 133 243 124 q 210 178 218 143 q 181 308 194 243 q 156 439 167 374 q 135 510 150 476 q 97 575 121 544 q 67 640 75 607 q 79 710 60 672 q 138 839 111 774 q 197 968 165 904 q 232 1025 213 997 q 272 1079 251 1053 q 300 1097 283 1093 q 333 1103 317 1100 q 385 1111 360 1108 q 438 1119 411 1114 q 467 1115 460 1124 q 476 1092 475 1107 q 487 1013 482 1053 q 497 933 492 974 q 513 767 508 850 q 519 601 517 683 q 525 543 521 572 q 538 486 529 514 q 545 472 540 474 q 563 475 550 469 q 636 504 596 490 q 658 488 665 514 q 658 461 654 474 q 664 436 663 449 q 670 343 667 389 q 676 250 674 297 q 703 229 676 225 q 747 224 733 235 q 764 185 760 213 q 783 83 771 133 q 811 -17 794 32 q 810 -35 815 -28 q 799 -50 806 -43 q 754 -81 778 -67 q 713 -115 731 -94 q 697 -122 707 -121 q 675 -125 686 -124 q 592 -126 633 -129 q 508 -125 550 -122 q 495 -120 499 -126 q 492 -107 492 -114 q 491 -35 493 -71 q 497 36 489 1 q 497 69 501 53 q 492 101 493 85 q 484 113 492 113 q 469 114 476 114 l 400 114 m 511 539 q 510 567 514 554 q 506 592 506 579 q 499 778 504 685 q 478 963 494 871 q 470 1028 472 994 q 458 1093 468 1061 q 454 1105 457 1100 q 442 1108 451 1110 q 426 1109 435 1108 q 414 1099 417 1110 q 389 1036 401 1068 q 374 969 376 1004 q 377 814 371 892 q 388 658 383 736 q 392 564 390 611 q 394 469 393 517 q 422 456 394 438 q 454 476 439 465 q 486 496 469 486 q 509 514 500 504 q 511 539 518 524 m 394 1092 q 391 1101 397 1100 q 378 1101 385 1103 q 350 1097 364 1100 q 321 1090 336 1093 q 289 1075 300 1088 q 268 1047 278 1063 q 264 1036 263 1042 q 274 1029 265 1031 q 357 1015 318 1025 q 369 1024 364 1014 q 383 1057 376 1040 q 394 1092 389 1074 m 394 124 q 436 124 417 124 q 474 125 456 124 q 503 119 496 126 q 511 92 511 111 q 507 6 513 49 q 503 -79 501 -36 q 509 -102 504 -94 q 535 -111 514 -110 q 588 -115 561 -112 q 640 -115 614 -117 q 681 -109 674 -115 q 690 -72 689 -103 q 694 8 693 -32 q 697 86 696 47 q 695 136 699 121 q 677 160 692 151 q 626 182 663 168 q 600 193 614 188 q 582 213 586 199 q 565 278 572 244 q 551 343 557 311 q 538 409 546 376 q 521 475 529 442 q 510 490 517 490 q 492 483 504 490 q 458 460 474 472 q 422 440 442 447 q 391 436 400 432 q 382 461 382 440 q 379 626 385 543 q 367 790 374 708 q 362 888 363 839 q 361 983 361 936 q 361 994 361 989 q 354 1003 361 1000 q 306 1016 332 1014 q 257 1018 281 1018 q 236 1003 243 1018 q 222 976 229 989 q 162 852 188 917 q 101 726 136 788 q 115 571 53 644 q 156 498 143 536 q 174 419 168 460 q 199 290 185 354 q 229 161 213 225 q 242 139 232 146 q 269 129 253 132 q 333 123 301 125 q 394 124 365 121 m 200 551 q 166 554 169 550 q 175 583 163 558 q 231 728 211 654 q 265 878 251 803 q 267 901 268 888 q 283 915 267 914 q 300 902 300 915 q 301 881 300 889 q 325 741 310 810 q 346 601 340 672 q 307 564 350 563 q 254 558 281 565 q 200 551 228 550 m 289 863 q 278 838 279 850 q 278 813 278 825 q 278 802 278 807 q 289 799 279 797 q 299 805 297 800 q 299 815 300 810 q 294 838 297 826 q 289 863 292 850 m 278 715 q 277 705 281 713 q 288 699 274 697 q 306 704 299 700 q 314 721 314 708 q 311 743 314 726 q 303 774 308 760 q 289 788 297 789 q 278 772 281 788 q 276 740 275 757 q 278 715 276 722 m 256 761 q 227 678 243 719 q 192 592 211 636 q 247 632 232 611 q 262 683 261 653 q 256 761 263 714 m 319 678 q 303 688 319 690 q 285 684 294 686 q 276 669 276 682 q 281 651 276 664 q 294 638 285 639 q 314 650 310 636 q 319 678 318 664 m 200 567 q 253 566 228 561 q 303 574 278 571 q 324 583 321 576 q 328 601 326 589 q 320 621 328 617 q 297 626 313 625 q 257 617 272 628 q 229 591 242 606 q 200 567 217 576 m 651 404 q 649 422 650 414 q 646 436 649 431 q 644 465 640 449 q 635 486 649 482 q 608 480 624 489 q 576 465 592 471 q 554 422 543 454 q 558 409 557 417 q 560 394 558 401 q 573 366 565 369 q 606 372 581 363 q 635 383 619 379 q 651 404 650 386 m 672 182 q 665 212 664 197 q 664 240 665 226 q 660 292 663 267 q 656 344 658 318 q 649 367 654 360 q 621 364 643 374 q 584 348 594 354 q 574 330 574 342 q 581 290 574 318 q 588 270 583 281 q 592 249 592 260 q 615 202 593 215 q 672 182 638 189 m 717 139 q 731 154 724 147 q 742 168 738 161 q 749 192 749 179 q 739 213 750 206 q 711 221 728 221 q 685 213 694 221 q 681 194 679 207 q 696 172 683 181 q 707 159 703 167 q 717 139 711 151 m 714 92 q 735 106 725 100 q 756 118 746 113 q 756 143 767 126 q 751 148 754 146 q 746 147 749 150 q 720 126 735 136 q 714 92 706 115 m 764 108 q 737 91 751 99 q 715 72 722 83 q 714 35 707 60 q 736 56 722 49 q 760 75 750 64 q 764 108 769 86 m 704 -4 q 704 -11 704 -6 q 708 -19 704 -17 q 722 -20 715 -25 q 735 -11 729 -15 q 756 3 746 -4 q 778 18 767 11 q 783 34 789 25 q 779 51 778 43 q 768 60 779 60 q 744 48 760 60 q 717 22 729 36 q 704 -4 706 7 m 706 -93 q 740 -73 725 -82 q 768 -54 754 -64 q 781 -44 775 -50 q 793 -33 788 -39 q 799 -19 801 -26 q 794 -6 797 -12 q 790 1 793 -1 q 781 1 786 4 q 744 -17 763 -7 q 711 -39 726 -26 q 702 -62 700 -49 q 706 -93 704 -76 z "},"5":{"ha":917,"x_min":106,"x_max":675,"o":"m 197 643 q 199 767 197 710 q 204 881 201 825 q 205 906 204 893 q 203 929 206 918 q 204 953 200 944 q 220 1024 218 986 q 226 1100 222 1063 q 236 1115 228 1115 q 309 1122 272 1117 q 382 1122 346 1128 q 404 1129 393 1121 q 425 1144 415 1138 q 443 1135 436 1151 q 499 999 474 1072 q 492 964 507 972 q 465 946 478 956 q 436 929 451 936 q 423 916 428 924 q 415 889 418 908 q 410 842 414 865 q 404 796 407 819 q 405 780 403 783 q 415 782 407 776 q 456 815 435 799 q 496 854 476 832 q 588 893 535 900 q 621 850 610 889 q 648 730 639 792 q 661 604 657 668 q 668 506 665 556 q 672 407 671 456 q 650 214 675 300 q 581 57 625 128 q 488 -49 538 -10 q 381 -92 439 -87 q 353 -99 367 -93 q 325 -106 340 -104 q 234 -94 278 -111 q 149 -43 190 -76 q 127 -9 135 -31 q 115 38 119 13 q 106 153 107 94 q 114 268 106 213 q 126 326 118 297 q 136 386 133 356 q 137 408 136 397 q 139 428 138 418 q 142 447 140 438 q 153 458 144 456 q 172 461 164 464 q 189 453 181 458 q 192 445 192 451 q 190 433 192 439 q 188 343 181 386 q 206 257 194 300 q 226 215 213 228 q 256 196 240 203 q 497 203 375 144 q 553 274 533 221 q 569 400 572 328 q 566 478 568 439 q 554 553 564 517 q 501 635 539 614 q 440 650 471 651 q 378 647 410 649 q 319 556 326 646 q 317 548 318 551 q 315 540 317 544 q 300 494 310 511 q 269 478 290 476 q 245 471 257 479 q 219 464 233 463 q 206 473 210 467 q 201 496 201 479 q 199 574 201 536 q 197 643 196 613 m 492 992 q 488 1000 490 994 q 469 1058 479 1031 q 444 1108 458 1086 q 417 1127 431 1132 q 397 1092 404 1122 q 392 1056 394 1074 q 386 1022 389 1039 q 386 1007 385 1013 q 390 996 388 1001 q 403 971 397 983 q 415 946 410 958 q 429 939 422 933 q 458 956 443 950 q 486 975 472 961 q 490 981 489 978 q 492 992 492 983 m 290 964 q 321 969 304 967 q 354 983 338 972 q 365 990 360 986 q 371 1006 369 994 q 378 1047 375 1025 q 385 1088 381 1068 q 384 1107 388 1103 q 374 1113 381 1111 q 312 1111 343 1117 q 250 1104 281 1106 q 240 1101 244 1104 q 233 1083 235 1097 q 228 1033 232 1058 q 222 983 225 1008 q 224 957 221 963 q 240 953 226 951 q 263 960 251 956 q 290 964 275 965 m 240 943 q 231 943 236 940 q 221 944 225 946 q 215 928 217 943 q 212 865 214 897 q 208 801 210 833 q 206 660 206 731 q 207 518 206 589 q 243 482 211 454 q 256 493 250 489 q 269 494 263 497 q 300 529 294 490 q 304 546 301 538 q 308 564 307 554 q 328 635 314 608 q 374 658 343 663 q 374 659 374 658 q 375 660 374 660 q 446 663 411 663 q 515 636 481 664 q 546 644 532 622 q 573 684 560 664 q 599 725 586 704 q 617 744 606 738 q 629 768 628 750 q 624 803 629 786 q 614 839 618 821 q 610 853 613 846 q 604 865 607 860 q 586 881 596 881 q 551 879 568 883 q 518 858 533 875 q 458 802 489 826 q 397 749 428 778 q 369 726 383 736 q 340 714 356 715 q 324 724 328 713 q 325 754 319 736 q 338 785 331 771 q 351 811 344 799 q 380 859 367 835 q 403 911 393 883 q 403 945 411 933 q 392 971 396 957 q 372 981 386 992 q 329 958 351 963 q 285 953 307 954 q 240 943 263 951 m 394 794 q 397 815 394 797 q 401 849 399 832 q 403 868 404 867 q 383 844 394 864 q 360 800 371 824 q 347 763 350 776 q 372 779 360 771 q 394 794 383 788 m 390 765 q 382 772 389 775 q 360 758 371 765 q 339 744 350 751 q 336 737 338 743 q 336 729 335 731 q 360 735 350 725 q 381 751 371 746 q 390 765 389 756 m 640 697 q 640 724 640 713 q 633 739 639 735 q 624 739 628 744 q 615 728 619 733 q 581 676 597 704 q 546 624 565 647 q 542 619 544 622 q 542 610 540 615 q 553 608 547 600 q 590 651 569 635 q 632 682 610 668 q 640 697 643 689 m 649 640 q 644 664 647 654 q 629 664 642 674 q 602 644 615 654 q 576 619 589 633 q 557 590 558 600 q 564 544 556 581 q 569 531 567 533 q 578 535 572 529 q 613 581 597 551 q 647 628 628 610 q 648 633 649 629 q 649 640 647 638 m 572 506 q 615 540 596 515 q 651 590 633 565 q 652 599 653 593 q 650 608 651 606 q 646 610 649 613 q 642 604 643 607 q 615 561 629 585 q 594 534 606 546 q 572 506 583 522 m 578 447 q 616 480 599 458 q 651 519 633 501 q 659 540 660 528 q 654 561 658 551 q 647 565 651 572 q 640 554 643 557 q 616 522 628 539 q 589 497 604 506 q 578 447 565 485 m 576 403 q 578 382 575 385 q 592 386 582 379 q 626 423 611 400 q 658 460 640 446 q 663 477 665 465 q 658 499 661 489 q 653 502 657 507 q 646 494 649 497 q 617 463 632 481 q 585 435 601 446 q 576 403 574 426 m 188 276 q 175 348 182 314 q 178 419 168 382 q 181 433 181 424 q 175 444 182 443 q 163 447 169 447 q 153 436 157 447 q 149 415 149 428 q 142 362 144 389 q 135 307 139 335 q 140 292 132 289 q 164 290 153 294 q 188 276 175 285 m 582 361 q 576 349 576 357 q 578 329 576 340 q 588 338 583 335 q 597 347 593 342 q 643 401 621 372 q 657 403 653 411 q 655 395 660 397 q 653 386 650 393 q 665 400 669 385 q 663 425 661 415 q 661 442 665 439 q 650 436 657 446 q 617 394 633 415 q 582 361 601 374 m 651 386 l 653 386 q 644 386 649 389 q 639 381 640 383 q 610 342 625 363 q 576 315 596 322 q 574 301 571 313 q 583 299 575 293 q 619 338 601 318 q 651 386 638 358 m 658 369 q 616 315 636 343 q 569 276 596 288 q 562 268 564 275 q 557 256 560 261 q 538 220 547 238 q 513 196 528 203 q 268 178 390 128 q 226 200 246 186 q 192 249 206 214 q 183 263 189 258 q 172 272 178 268 q 138 274 154 288 q 119 225 122 260 q 116 150 115 188 q 119 76 117 113 q 130 7 122 40 q 160 -42 138 -26 q 225 -77 192 -62 q 293 -92 258 -92 q 365 -85 329 -93 q 436 -62 401 -76 q 552 35 503 -35 q 636 203 601 104 q 640 216 639 210 q 639 232 642 222 q 605 201 621 219 q 567 188 589 183 q 603 216 586 199 q 639 251 621 233 q 653 274 650 263 q 653 310 656 286 q 610 260 631 286 q 563 219 590 233 q 566 234 564 231 q 571 239 568 238 q 650 326 613 275 q 659 345 657 336 q 658 369 661 354 z "},"6":{"ha":806,"x_min":71,"x_max":674,"o":"m 144 810 q 143 908 144 858 q 144 1007 142 957 q 158 1063 147 1036 q 185 1114 168 1089 q 269 1144 218 1161 q 365 1092 325 1128 q 431 1003 404 1056 q 433 997 433 1000 q 443 931 432 963 q 470 871 454 900 q 496 811 486 842 q 501 784 503 789 q 476 778 500 779 q 411 768 443 776 q 347 760 379 760 q 307 793 311 760 q 302 817 306 804 q 296 842 299 829 q 294 849 294 844 q 288 856 294 854 q 280 851 282 856 q 276 843 278 847 q 260 776 265 810 q 260 707 254 743 q 278 638 267 672 q 296 569 289 604 q 317 531 303 542 q 358 519 332 519 q 429 508 396 519 q 490 471 463 497 q 516 459 501 461 q 544 454 531 457 q 614 401 590 444 q 642 338 632 371 q 658 268 653 304 q 669 187 665 228 q 671 106 674 146 q 631 4 669 51 q 539 -60 590 -43 q 428 -67 488 -76 q 400 -69 413 -64 q 375 -81 388 -74 q 288 -108 332 -103 q 197 -96 243 -114 q 134 -50 158 -81 q 94 19 110 -19 q 77 108 76 64 q 76 199 78 153 q 78 226 76 213 q 76 254 79 240 q 110 332 71 301 q 132 386 132 350 q 140 547 133 467 q 144 707 146 626 l 144 810 m 369 879 q 372 842 371 861 q 374 803 372 822 q 399 782 375 779 q 434 786 417 785 q 469 789 451 788 q 479 808 490 789 q 463 847 471 828 q 443 883 454 865 q 424 930 429 906 q 417 979 418 954 q 389 1046 415 1015 q 304 1119 351 1088 q 243 1133 274 1140 q 192 1096 213 1126 q 167 1038 174 1068 q 158 976 160 1008 q 158 837 157 907 q 158 697 158 767 q 153 524 160 611 q 140 351 146 438 q 132 332 140 339 q 90 231 82 294 q 90 219 90 225 q 88 208 89 214 q 87 114 83 161 q 106 22 90 67 q 165 -65 125 -35 q 264 -93 206 -96 q 399 -49 343 -89 q 490 57 454 -8 q 524 164 518 108 q 532 275 531 219 q 501 422 535 354 q 458 479 485 458 q 389 501 431 500 q 341 506 365 501 q 293 513 317 511 q 233 553 254 517 q 206 626 214 589 q 200 703 199 664 q 207 785 203 744 q 210 868 211 826 q 247 983 207 933 q 313 1007 272 1017 q 347 992 333 1001 q 364 958 361 982 q 367 919 367 939 q 369 879 368 899 m 350 868 q 350 912 351 890 q 346 954 349 933 q 339 979 344 969 q 318 993 333 989 q 264 975 283 1001 q 229 874 232 931 q 229 830 229 851 q 226 785 229 808 q 221 712 224 749 q 224 639 218 675 q 264 542 231 585 q 272 535 267 538 q 282 533 276 532 q 287 542 289 536 q 283 551 285 547 q 270 599 278 575 q 256 644 263 622 q 257 847 221 744 q 268 865 261 858 q 289 871 275 872 q 308 860 303 869 q 315 839 314 851 q 321 813 318 825 q 326 786 324 800 q 337 774 329 775 q 353 775 344 774 q 360 782 364 776 q 356 792 356 788 q 353 831 354 811 q 350 868 353 850 m 510 447 q 531 410 518 415 q 579 419 544 406 q 547 439 565 435 q 510 447 529 443 m 550 369 q 567 370 558 369 q 585 372 576 371 q 597 372 590 372 q 603 379 603 372 q 588 399 603 394 q 567 400 578 401 q 547 397 557 399 q 536 396 542 397 q 532 385 531 394 q 538 374 535 379 q 550 369 540 368 m 582 358 q 573 358 578 358 q 563 357 568 358 q 549 354 556 356 q 543 342 542 353 q 550 328 544 331 q 565 326 556 325 q 581 329 572 329 q 597 331 589 329 q 613 331 604 332 q 621 343 621 331 q 612 358 619 356 q 594 360 604 361 q 582 358 590 358 m 185 144 q 198 222 183 186 q 235 290 213 258 q 290 327 253 315 q 353 328 326 339 q 415 228 418 304 q 385 97 413 158 q 355 53 374 71 q 313 21 336 35 q 272 17 296 11 q 228 39 247 22 q 185 144 181 81 m 242 210 q 244 188 243 200 q 244 165 244 176 q 293 53 251 101 q 307 44 300 46 q 324 49 314 42 q 364 96 349 67 q 391 163 383 128 q 400 236 399 199 q 391 282 400 261 q 358 313 382 303 q 315 317 336 322 q 272 299 293 313 q 246 258 249 282 q 242 210 243 235 m 628 300 q 628 311 628 306 q 621 317 629 317 q 587 316 604 317 q 553 310 569 315 q 580 308 567 308 q 607 307 593 308 q 619 308 613 307 q 628 300 626 310 q 596 292 613 290 q 564 293 579 294 q 551 290 556 292 q 549 278 547 288 q 554 267 549 268 q 565 267 560 265 q 592 272 579 268 q 619 272 606 275 q 628 272 624 272 q 633 265 633 272 q 628 261 633 261 q 619 260 624 261 q 587 257 603 260 q 554 249 571 254 q 591 249 574 249 q 626 247 608 249 q 633 247 629 247 q 638 239 638 246 q 633 235 636 235 q 626 235 629 235 q 592 235 608 235 q 558 232 575 235 q 547 224 547 231 q 544 210 546 217 q 550 200 544 200 q 561 201 556 200 q 592 206 576 204 q 625 204 608 207 q 635 203 629 204 q 639 196 640 203 q 633 191 639 190 q 624 192 628 192 q 588 192 606 194 q 553 186 571 189 q 543 180 544 185 q 542 168 542 175 q 548 161 543 160 q 557 164 553 163 q 588 171 572 168 q 619 171 604 174 q 630 167 625 169 q 632 158 635 165 q 631 156 631 153 q 621 158 632 158 q 601 158 611 157 q 582 158 592 158 q 563 149 572 157 q 544 140 554 142 q 535 133 539 140 q 533 118 532 125 q 540 113 535 113 q 549 114 544 114 q 580 113 564 113 q 611 114 596 114 q 622 111 617 114 q 624 106 626 108 q 614 101 617 100 q 596 104 611 103 q 569 103 581 107 q 543 99 558 99 q 531 90 540 99 q 522 76 522 81 q 531 71 524 71 q 569 69 550 74 q 606 63 588 64 q 644 67 638 61 q 651 106 650 74 q 649 197 654 151 q 636 288 643 242 q 628 300 633 297 m 224 231 q 201 169 206 200 q 201 104 196 138 q 224 60 207 78 q 264 32 240 43 q 277 27 271 29 q 289 31 283 25 q 287 41 292 36 q 279 49 282 46 q 244 106 257 76 q 229 169 232 135 q 226 200 228 185 q 224 231 225 215 m 628 39 q 590 52 614 49 q 544 54 567 56 q 510 44 522 53 q 571 42 542 47 q 628 39 600 38 m 482 -51 q 549 -36 521 -54 q 603 7 578 -18 q 600 22 613 19 q 553 30 578 29 q 504 28 528 31 q 488 17 492 26 q 475 0 483 7 q 469 -6 472 -3 q 464 -14 467 -10 q 448 -29 458 -22 q 442 -44 438 -36 q 459 -51 446 -53 q 482 -51 472 -49 z "},"7":{"ha":1028,"x_min":96,"x_max":739,"o":"m 165 1114 q 282 1102 224 1107 q 399 1097 340 1097 q 484 1100 442 1097 q 569 1097 526 1103 q 630 1090 600 1094 q 689 1096 660 1086 q 708 1083 703 1099 q 729 1014 719 1050 q 736 942 739 978 q 730 825 733 883 q 717 708 726 767 q 699 576 707 643 q 681 443 692 510 q 653 254 664 350 q 626 64 642 158 q 610 -5 621 29 q 589 -75 599 -39 q 575 -93 585 -92 q 554 -89 565 -94 q 538 -79 546 -85 q 521 -68 529 -74 q 502 -61 511 -62 q 482 -71 493 -60 q 459 -78 472 -81 q 433 -76 446 -75 q 345 -83 390 -79 q 256 -85 300 -86 q 243 -83 250 -83 q 229 -82 236 -83 q 199 -70 203 -76 q 199 -35 196 -64 q 213 21 203 -7 q 231 76 222 49 q 324 312 271 197 q 417 546 376 426 q 442 642 433 593 q 456 739 450 690 q 459 783 460 769 q 448 803 458 796 q 411 818 438 810 q 332 838 372 832 q 250 825 292 843 q 185 808 219 813 q 117 803 151 804 q 103 806 110 803 q 101 819 96 808 q 117 917 122 868 q 108 1014 113 965 q 106 1044 107 1029 q 106 1074 106 1060 q 113 1107 106 1099 q 143 1114 121 1115 l 165 1114 m 324 911 l 324 918 l 351 918 q 443 919 397 921 q 535 922 489 917 q 555 926 544 924 q 569 938 565 928 q 599 999 583 969 q 621 1064 615 1029 q 622 1075 622 1071 q 613 1081 621 1079 q 560 1086 586 1083 q 507 1089 533 1089 q 445 1088 476 1090 q 382 1085 414 1086 q 262 1093 322 1083 q 140 1101 201 1103 q 123 1094 126 1100 q 119 1078 119 1089 q 124 1007 121 1043 q 133 935 126 971 q 157 913 138 913 q 240 913 199 913 q 324 911 282 913 m 722 946 q 715 1004 719 975 q 703 1060 711 1033 q 699 1076 700 1067 q 686 1083 697 1086 q 658 1081 674 1081 q 636 1064 642 1081 q 609 994 625 1028 q 578 925 593 961 q 579 904 572 913 q 589 886 586 896 q 597 883 592 878 q 608 889 603 888 q 651 905 629 897 q 694 918 672 913 q 713 926 706 921 q 722 946 721 932 m 214 899 l 214 900 q 207 901 211 900 q 200 900 203 901 q 168 901 185 900 q 139 896 151 903 q 126 872 126 890 q 119 839 126 853 l 118 838 q 133 815 107 811 q 285 849 210 824 q 312 854 299 853 q 338 851 325 856 q 403 835 369 844 q 467 811 436 826 q 479 786 482 804 q 467 710 471 749 q 456 635 463 672 q 417 499 442 565 q 364 369 392 433 q 298 217 329 293 q 240 60 267 140 q 224 12 233 36 q 213 -39 215 -12 q 233 -69 207 -68 q 333 -69 283 -75 q 432 -65 382 -62 q 474 -53 460 -67 q 499 -17 489 -39 q 535 76 519 28 q 561 174 550 124 q 597 352 582 263 q 621 532 611 442 q 626 583 624 558 q 631 633 629 608 q 610 772 635 707 q 565 901 586 836 q 549 911 560 914 q 478 907 514 906 q 406 907 442 908 q 214 899 310 906 m 721 839 l 721 893 q 706 907 721 911 q 662 894 683 901 q 619 876 640 886 q 604 836 592 865 q 631 754 619 796 q 644 668 643 713 q 647 651 644 658 q 661 644 649 643 q 683 644 671 647 q 697 664 694 642 q 713 751 703 708 q 721 839 724 794 m 669 632 q 642 603 646 636 q 630 468 636 536 q 608 335 624 400 q 572 148 590 242 q 510 -29 554 54 q 506 -40 507 -35 q 513 -49 506 -46 q 535 -60 525 -53 q 556 -74 546 -67 q 579 -64 574 -83 q 597 -1 588 -32 q 614 63 607 31 q 628 158 625 110 q 638 254 631 207 q 665 431 651 343 q 693 608 679 519 q 690 628 696 624 q 669 632 685 633 z "},"8":{"ha":972,"x_min":97,"x_max":747,"o":"m 707 896 q 701 793 706 844 q 679 693 697 742 q 644 588 660 642 q 606 483 629 533 q 593 458 600 469 q 576 435 586 446 q 567 416 567 425 q 574 396 568 407 q 624 335 596 361 q 678 271 654 306 q 724 199 703 236 q 745 109 747 156 q 718 24 743 63 q 647 -37 693 -15 q 574 -66 613 -57 q 494 -64 536 -75 q 488 -64 492 -62 q 481 -67 485 -65 q 271 -106 382 -110 q 140 -45 183 -103 q 111 97 97 13 q 147 234 122 168 q 201 363 171 300 q 247 497 233 428 q 264 636 260 565 q 265 694 267 665 q 253 751 263 724 q 234 795 244 775 q 208 833 224 815 q 172 893 185 861 q 161 961 160 925 q 163 1031 163 996 q 176 1099 163 1065 q 211 1142 189 1126 q 261 1163 233 1157 q 268 1164 264 1164 q 275 1164 272 1164 q 419 1156 347 1153 q 563 1142 492 1158 q 638 1106 608 1132 q 686 1038 668 1079 q 706 968 701 1004 q 707 896 710 932 m 286 -93 q 458 -61 379 -94 q 581 40 540 -25 q 604 192 622 104 q 574 244 599 222 q 490 305 535 281 q 399 351 446 329 q 364 376 372 363 q 360 418 356 390 q 406 579 372 503 q 445 649 421 617 q 489 715 469 681 q 538 840 524 776 q 533 975 553 903 q 475 1074 518 1033 q 378 1135 432 1114 q 275 1154 325 1156 q 192 1099 217 1153 q 176 1033 175 1067 q 174 965 176 999 q 217 843 169 899 q 257 782 240 815 q 275 711 274 749 q 265 521 281 614 q 206 340 250 428 q 151 206 174 275 q 119 63 128 136 q 127 6 117 36 q 157 -47 138 -24 q 200 -78 176 -69 q 244 -91 222 -85 q 286 -93 267 -97 m 406 1143 q 420 1133 415 1138 q 429 1126 425 1129 q 548 986 518 1071 q 546 801 578 901 q 505 713 531 754 q 451 631 479 671 q 400 524 417 581 q 374 406 383 467 q 392 389 369 383 q 419 393 406 392 q 446 396 432 394 q 524 415 486 404 q 582 472 563 426 q 593 497 588 485 q 604 521 599 508 q 655 667 632 593 q 688 818 678 742 q 695 901 693 858 q 690 983 697 944 q 649 1078 682 1032 q 551 1133 617 1124 q 481 1142 517 1138 q 406 1143 446 1147 m 369 747 q 331 760 346 746 q 307 796 317 775 q 318 893 282 849 q 351 922 333 910 q 393 931 368 933 q 440 919 418 928 q 471 882 461 910 q 474 828 481 854 q 449 781 468 803 q 415 755 435 764 q 369 747 396 746 m 390 919 q 369 915 381 918 q 354 897 357 913 q 354 844 353 871 q 368 794 356 818 q 399 767 381 768 q 436 788 418 765 q 458 838 454 811 q 447 896 465 874 q 390 919 429 918 m 376 761 q 342 818 346 786 q 331 882 338 850 q 317 829 315 857 q 334 782 318 801 q 376 761 350 763 m 389 371 q 403 364 397 367 q 415 358 410 361 q 501 313 460 336 q 578 257 542 289 q 598 238 589 247 q 610 215 607 229 q 619 105 625 158 q 571 6 613 51 q 541 -23 557 -8 q 508 -53 525 -37 q 546 -57 528 -60 q 582 -49 564 -54 q 653 -17 621 -37 q 706 38 686 3 q 726 133 732 86 q 692 224 719 179 q 638 292 669 260 q 583 358 607 324 q 540 397 563 389 q 485 392 518 406 q 438 382 463 382 q 389 371 414 382 m 331 -10 q 261 17 289 -7 q 242 96 233 40 q 262 153 247 128 q 296 201 276 179 q 311 209 303 210 q 328 210 319 208 q 449 160 401 217 q 461 90 474 129 q 430 44 453 68 q 380 6 407 21 q 331 -10 353 -10 m 304 138 q 313 63 301 99 q 342 29 319 40 q 385 28 364 18 q 417 49 403 38 q 442 79 432 61 q 444 143 460 108 q 415 173 435 165 q 376 190 396 181 q 356 197 367 194 q 335 197 346 200 q 309 182 315 193 q 304 138 303 171 m 285 157 q 257 49 249 107 q 276 19 260 31 q 314 5 293 7 q 349 13 335 3 q 304 49 315 26 q 292 101 293 72 q 285 157 290 129 z "},"9":{"ha":917,"x_min":42,"x_max":699,"o":"m 682 144 q 670 56 676 100 q 653 -29 664 13 q 615 -68 646 -64 q 563 -64 588 -74 q 514 -43 538 -54 q 480 -35 496 -35 q 446 -49 464 -35 q 371 -92 410 -75 q 292 -119 332 -108 q 194 -112 238 -133 q 118 -43 151 -92 q 60 79 79 13 q 50 226 42 146 q 90 279 56 271 q 129 292 110 285 q 168 306 149 300 q 197 307 189 313 q 211 275 206 301 q 228 208 218 240 q 251 144 238 176 q 296 126 265 110 q 414 233 368 165 q 476 399 460 300 q 501 571 492 486 q 504 585 503 578 q 499 594 506 593 q 488 590 489 597 q 485 575 488 582 q 438 476 467 519 q 374 397 408 433 q 313 360 344 367 q 247 354 282 353 q 160 390 192 357 q 117 474 129 424 q 107 576 106 524 q 133 790 110 686 q 194 993 156 893 q 242 1065 210 1032 q 312 1116 274 1099 q 381 1126 350 1133 q 432 1103 410 1119 q 469 1054 454 1086 q 477 1042 474 1049 q 488 1033 481 1036 q 569 973 539 1018 q 621 872 599 928 q 668 716 650 797 q 693 549 686 635 q 697 419 699 485 q 692 288 694 353 q 688 216 690 251 q 682 144 686 181 m 128 668 q 121 563 121 622 q 131 488 122 524 q 157 424 139 453 q 204 385 172 400 q 270 370 236 371 q 326 385 304 369 q 419 475 379 422 q 474 608 460 528 q 490 625 475 625 q 515 610 506 624 q 521 578 524 597 q 512 504 518 540 q 500 432 506 468 q 447 255 486 332 q 335 128 407 178 q 255 94 294 99 q 175 121 215 90 q 142 169 151 139 q 121 231 132 200 q 115 252 117 242 q 97 260 113 263 q 77 247 83 257 q 68 218 71 236 q 69 112 60 163 q 101 17 79 61 q 169 -75 129 -39 q 267 -103 208 -111 q 342 -83 306 -97 q 415 -49 379 -68 q 503 33 469 -18 q 554 153 536 83 q 571 266 568 210 q 568 378 574 322 q 551 560 561 469 q 528 742 540 651 q 506 878 518 811 q 469 1010 493 946 q 396 1101 446 1074 q 327 1103 367 1119 q 254 1055 288 1088 q 208 989 221 1022 q 159 836 181 914 q 128 668 138 758 m 667 149 q 681 390 675 269 q 667 628 686 510 q 640 763 657 697 q 596 889 622 828 q 564 949 582 921 q 522 996 546 976 q 510 1008 517 1001 q 497 1008 504 1014 q 493 992 489 1001 q 499 976 497 983 q 514 917 506 946 q 528 856 522 888 q 560 637 547 747 q 583 415 574 526 q 590 317 588 367 q 583 218 592 268 q 558 105 574 160 q 507 4 542 50 q 510 -18 494 -11 q 556 -39 533 -28 q 604 -49 578 -50 q 640 -12 633 -47 q 656 68 649 28 q 667 149 663 108 m 394 693 q 382 630 389 660 q 363 572 375 600 q 337 540 353 550 q 303 528 321 529 q 249 571 265 528 q 227 688 226 628 q 238 808 228 747 q 267 913 246 865 q 313 959 286 957 q 357 918 339 961 q 388 809 379 867 q 394 693 397 751 m 379 697 q 376 796 382 744 q 351 894 371 847 q 340 923 346 908 q 318 932 333 938 q 300 913 304 929 q 293 879 296 896 q 289 703 281 792 q 301 644 292 672 q 329 597 311 617 q 357 604 347 579 q 370 645 364 624 q 379 697 376 667 m 269 864 q 250 783 256 825 q 243 700 244 742 q 247 635 242 667 q 264 575 251 603 q 287 550 272 557 q 315 549 301 543 q 325 553 321 551 q 331 563 329 556 q 329 572 333 569 q 322 578 325 575 q 282 647 293 607 q 269 733 271 686 q 269 798 268 765 q 269 864 269 831 m 244 118 q 217 188 229 154 q 199 257 206 222 q 188 290 193 288 q 158 282 182 293 q 147 278 150 279 q 135 244 125 269 q 147 210 140 228 q 158 176 153 193 q 192 131 171 144 q 244 118 214 118 z "},"A":{"ha":1250,"x_min":81,"x_max":1093,"o":"m 496 400 q 494 391 494 394 q 493 385 493 388 q 488 180 497 282 q 476 -24 479 78 q 465 -61 475 -49 q 426 -72 456 -74 q 311 -90 369 -68 q 215 -99 263 -110 q 119 -81 168 -87 q 90 -60 99 -78 q 82 -22 82 -43 q 89 108 81 43 q 99 239 97 174 q 126 447 100 346 q 167 651 151 549 q 172 709 171 679 q 175 768 174 739 q 204 810 175 800 q 285 848 246 826 q 367 881 324 869 q 388 896 383 885 q 390 921 392 907 q 392 986 389 953 q 400 1051 394 1019 q 432 1088 404 1081 q 547 1115 489 1104 q 664 1136 604 1126 q 704 1104 700 1143 q 710 1058 707 1082 q 715 1011 713 1035 q 772 975 724 960 q 808 990 790 982 q 842 1004 825 997 q 870 1009 861 1014 q 883 983 879 1004 q 968 609 928 797 q 1035 231 1008 421 q 1055 128 1042 179 q 1081 25 1068 76 q 1039 -46 1093 -28 q 888 -92 964 -71 q 733 -125 811 -112 q 672 -106 701 -131 q 640 -50 643 -82 q 621 97 635 24 q 596 243 607 169 q 587 301 592 272 q 581 358 582 329 q 578 376 581 365 q 568 379 576 386 q 540 371 551 367 q 519 385 529 375 q 496 400 508 396 m 408 944 q 412 910 410 926 q 442 900 414 894 q 553 922 497 911 q 663 957 610 933 q 690 979 682 967 q 690 1014 697 992 q 684 1049 686 1031 q 681 1085 682 1067 q 643 1113 679 1119 q 576 1104 610 1107 q 510 1090 542 1101 q 450 1073 469 1078 q 424 1060 431 1068 q 415 1033 417 1053 q 410 972 414 1014 q 408 958 408 965 q 408 944 408 951 m 181 -17 q 183 -47 182 -31 q 201 -72 183 -62 q 284 -75 239 -90 q 346 -21 329 -60 q 378 89 371 31 q 394 243 385 167 q 401 397 404 319 q 415 458 401 442 q 474 483 429 475 q 540 497 507 489 q 606 514 572 504 q 635 519 619 518 q 664 521 650 519 q 714 486 703 526 q 728 417 725 451 q 735 349 732 383 q 749 201 742 275 q 763 53 757 126 q 814 14 767 3 q 885 31 850 22 q 954 46 919 39 q 978 82 986 51 q 967 138 972 110 q 954 193 961 167 q 877 460 919 328 q 800 728 835 593 q 769 833 786 781 q 729 933 753 885 q 717 951 724 946 q 696 950 711 957 q 579 908 640 921 q 457 882 518 894 q 407 839 421 875 q 319 602 361 721 q 239 364 276 483 q 194 176 208 271 q 181 -17 181 81 m 453 374 q 459 433 451 424 q 506 435 467 442 q 531 433 518 433 q 558 433 544 433 q 608 424 594 435 q 631 376 622 413 q 667 158 654 268 q 704 -60 679 47 q 720 -93 710 -85 q 757 -97 731 -101 q 885 -67 822 -86 q 1011 -29 947 -47 q 1049 -4 1040 -21 q 1051 40 1058 13 q 1012 228 1031 133 q 979 417 993 322 q 929 672 961 546 q 849 921 897 799 q 834 947 843 936 q 806 947 825 958 q 776 935 793 942 q 768 903 760 929 q 820 735 796 819 q 869 564 844 650 q 937 335 901 450 q 999 104 972 221 q 1008 53 1008 68 q 994 31 1008 38 q 944 18 981 25 q 935 17 940 18 q 926 15 931 15 q 847 -1 886 10 q 768 -14 808 -12 q 715 -3 728 -14 q 699 46 701 8 q 680 239 689 143 q 671 432 671 335 q 667 452 671 442 q 666 472 664 463 q 685 486 668 481 q 687 493 690 488 q 679 500 683 499 q 665 503 672 501 q 650 503 657 504 q 551 480 600 492 q 453 456 501 468 q 425 415 425 447 q 424 359 425 388 q 421 303 424 331 q 407 140 411 222 q 374 -19 403 58 q 367 -35 371 -25 q 374 -49 363 -44 q 391 -44 385 -51 q 399 -26 397 -36 q 410 40 404 7 q 419 107 415 74 q 438 245 426 176 q 453 374 450 314 m 106 7 q 106 -17 106 -7 q 107 -35 106 -26 q 135 -60 110 -62 q 156 -35 156 -60 l 156 -19 q 184 249 154 117 q 261 508 214 381 q 319 667 290 588 q 375 828 347 747 q 381 842 378 835 q 378 856 385 850 q 365 858 372 863 q 351 851 358 854 q 288 823 319 838 q 224 793 256 808 q 206 778 210 788 q 201 754 203 768 q 195 667 199 711 q 181 579 192 622 q 128 292 140 436 q 106 7 117 147 m 601 733 q 597 674 600 704 q 592 613 594 643 q 547 565 588 569 q 499 559 524 564 q 451 550 475 554 q 426 556 432 547 q 422 581 421 565 q 437 635 426 608 q 454 689 447 663 q 469 732 461 711 q 485 774 476 753 q 492 789 488 781 q 501 803 496 797 q 571 822 532 832 q 591 803 589 819 q 596 772 593 788 q 599 753 597 763 q 601 733 600 744 m 578 744 q 574 776 574 760 q 556 799 575 793 q 522 790 533 806 q 504 758 511 775 q 485 706 494 732 q 467 653 476 681 q 449 612 460 635 q 451 576 439 589 q 488 572 464 564 q 532 582 511 581 q 568 621 565 583 q 573 683 569 653 q 578 744 576 714 m 700 443 q 708 235 701 339 q 732 29 714 132 q 742 31 739 29 q 722 237 732 133 q 700 443 711 340 m 465 231 q 448 139 451 186 q 436 46 444 92 q 431 10 433 28 q 425 -28 428 -8 q 426 -40 425 -33 q 436 -47 428 -46 q 447 -44 443 -49 q 451 -33 450 -39 q 454 -20 453 -26 q 456 -7 456 -14 q 461 111 458 51 q 465 231 464 171 z "},"B":{"ha":1028,"x_min":96,"x_max":885,"o":"m 693 754 q 692 724 692 736 q 686 703 692 711 q 679 656 668 674 q 715 625 690 639 q 798 540 772 593 q 843 429 824 486 q 866 344 858 388 q 878 257 874 301 q 837 110 885 161 q 690 61 789 60 q 640 56 664 63 q 604 26 617 49 q 541 -40 579 -18 q 460 -74 503 -62 q 372 -96 417 -85 q 288 -99 329 -106 q 204 -87 246 -93 q 165 -66 178 -83 q 147 -24 153 -49 q 127 124 133 50 q 115 274 121 199 q 100 603 104 439 q 110 931 96 767 q 117 1006 114 976 q 131 1053 119 1035 q 174 1087 143 1072 q 263 1118 204 1101 q 465 1110 369 1150 q 617 972 561 1071 q 669 866 646 921 q 693 754 693 811 m 200 1069 q 278 1072 240 1072 q 354 1063 315 1072 q 546 944 490 1031 q 565 733 601 858 q 579 697 560 711 q 634 685 613 675 q 661 735 656 696 q 648 833 668 788 q 608 926 628 879 q 514 1052 578 1003 q 367 1109 450 1101 q 200 1069 285 1117 m 299 -75 q 399 -69 347 -82 q 503 -37 451 -57 q 575 38 560 -15 q 581 229 607 136 q 515 393 550 332 q 425 481 481 454 q 274 507 369 508 q 258 508 265 507 q 249 519 250 510 q 258 536 249 533 q 278 540 268 539 q 433 608 371 556 q 533 739 494 661 q 559 840 561 789 q 522 935 557 892 q 428 1011 485 982 q 308 1047 372 1040 q 182 1029 244 1053 q 140 974 140 1011 q 128 835 139 904 q 121 696 118 765 q 124 577 124 636 q 125 458 124 518 q 140 244 131 351 q 164 31 149 138 q 180 -39 171 -18 q 215 -65 189 -60 q 299 -75 242 -71 m 172 781 q 174 824 171 804 q 169 865 176 844 q 179 892 163 882 q 235 922 207 908 q 297 935 263 936 q 353 913 331 933 q 382 860 375 892 q 376 792 389 828 q 324 717 360 744 q 242 678 289 689 q 169 736 169 660 q 170 760 169 749 q 172 781 171 771 m 350 815 q 343 882 354 854 q 323 902 336 897 q 294 907 310 907 q 274 896 279 906 q 268 874 268 886 q 265 813 267 843 q 263 750 264 782 q 264 735 263 743 q 274 724 265 728 q 292 724 283 719 q 306 733 300 728 q 350 815 347 769 m 236 790 l 233 790 q 235 826 235 808 q 238 863 236 844 q 238 874 238 868 q 231 881 238 879 q 217 880 222 883 q 210 869 211 876 q 196 797 203 833 q 197 721 189 760 q 204 708 200 714 q 218 703 208 701 q 231 711 229 704 q 233 725 232 718 q 235 758 235 742 q 236 790 235 774 m 360 535 q 427 506 394 515 q 481 471 460 496 q 576 330 539 406 q 618 165 614 254 q 623 112 619 128 q 643 92 626 96 q 699 88 660 89 q 849 228 849 83 q 833 354 847 293 q 794 475 818 415 q 706 598 765 554 q 572 671 646 642 q 549 676 561 675 q 528 665 538 678 q 458 590 496 625 q 360 535 419 554 m 243 242 q 247 276 244 257 q 246 314 249 294 q 260 358 243 346 q 303 372 276 371 q 388 361 356 378 q 446 300 421 344 q 483 228 465 264 q 494 147 500 192 q 465 75 490 108 q 403 23 440 42 q 324 8 365 4 q 267 30 285 13 q 247 86 250 47 q 245 162 246 124 q 243 242 244 200 m 335 71 q 332 192 333 135 q 328 304 331 249 q 327 329 326 315 q 307 343 328 343 q 271 307 271 343 q 275 76 271 192 q 284 48 275 60 q 313 38 293 36 q 333 53 333 40 q 335 71 333 65 m 474 161 q 450 251 472 210 q 393 326 428 292 q 372 337 383 338 q 357 315 360 336 q 356 188 353 251 q 364 58 358 124 q 376 38 367 42 q 397 43 386 33 q 448 94 425 67 q 474 161 471 121 z "},"C":{"ha":1139,"x_min":111,"x_max":861,"o":"m 851 717 q 847 706 850 714 q 792 633 826 675 q 721 556 757 590 q 676 531 700 535 q 619 529 651 528 q 524 541 572 532 q 429 546 476 550 q 349 524 378 543 q 319 468 319 504 q 318 387 319 428 q 330 306 317 346 q 382 225 343 265 q 418 188 399 207 q 465 167 438 169 q 509 181 493 165 q 535 215 525 197 q 594 305 563 261 q 674 385 626 349 q 713 408 692 399 q 761 421 733 418 q 809 420 785 424 q 847 394 833 417 q 860 356 861 374 q 826 329 860 338 q 794 311 803 324 q 786 281 786 299 q 788 179 788 231 q 785 78 788 128 q 774 6 783 40 q 739 -55 764 -28 q 663 -100 714 -82 q 518 -118 594 -124 q 376 -85 442 -112 q 270 -12 310 -57 q 233 88 231 33 q 222 120 235 104 q 199 150 210 136 q 140 280 157 215 q 121 408 124 344 q 118 536 118 472 q 114 678 117 607 q 111 818 111 749 q 121 899 111 860 q 142 976 131 938 q 154 1056 153 1015 q 190 1093 157 1083 q 257 1108 224 1103 q 490 1106 372 1126 q 725 1053 608 1086 q 791 1013 769 1040 q 818 953 813 986 q 837 876 825 914 q 855 799 849 838 q 851 717 861 760 m 697 715 q 727 853 728 785 q 710 990 726 921 q 619 1065 696 1049 q 472 1091 546 1081 q 324 1097 397 1101 q 175 997 171 1089 q 183 975 175 981 q 213 971 190 969 q 320 972 265 978 q 429 956 375 967 q 605 895 546 933 q 669 785 664 857 q 675 754 671 771 q 697 715 679 738 m 750 1008 q 765 803 783 901 q 710 611 746 706 q 742 631 724 624 q 780 651 761 638 q 809 697 799 665 q 817 789 819 728 q 796 897 814 840 q 750 1008 778 953 m 686 229 q 654 199 667 211 q 628 176 642 186 q 496 132 560 125 q 368 211 432 139 q 252 423 274 315 q 250 638 231 531 q 267 655 253 653 q 303 656 282 657 q 458 641 381 654 q 613 610 536 628 q 665 636 675 594 q 645 730 656 683 q 625 824 635 776 q 601 867 619 849 q 553 900 583 885 q 415 943 486 935 q 274 956 344 951 q 185 944 208 960 q 150 885 161 929 q 139 747 133 817 q 163 607 144 678 q 228 359 196 483 q 257 111 261 235 q 288 3 256 54 q 418 -79 321 -49 q 506 -92 460 -92 q 592 -83 551 -93 q 660 -51 633 -72 q 692 -1 688 -31 q 692 108 699 51 q 686 229 685 165 m 286 461 q 353 557 301 532 q 500 568 406 582 q 563 560 532 564 q 625 553 594 557 q 658 565 657 550 q 649 581 660 576 q 626 588 638 585 q 478 619 553 606 q 331 639 404 632 q 274 610 281 643 q 269 541 265 576 q 286 461 272 506 m 214 189 q 217 294 226 242 q 190 401 208 347 q 154 508 171 456 q 153 403 153 456 q 166 297 153 350 q 214 189 179 243 m 528 156 q 581 174 563 161 q 608 201 599 188 q 655 268 631 236 q 715 325 679 300 q 807 363 751 350 q 821 369 815 364 q 819 383 826 375 q 801 396 811 394 q 779 396 790 397 q 722 380 746 392 q 679 350 699 368 q 600 258 632 307 q 528 156 568 208 m 728 0 l 744 0 q 759 136 764 65 q 757 276 754 207 q 753 289 757 283 q 739 294 750 294 q 713 275 713 294 q 714 248 713 261 q 717 219 715 235 q 722 110 719 165 q 728 0 725 56 z "},"D":{"ha":1278,"x_min":82,"x_max":1090,"o":"m 101 124 q 110 226 101 175 q 124 328 118 276 q 125 508 133 418 q 103 686 117 597 q 124 938 82 819 q 158 1009 136 974 q 196 1082 179 1044 q 207 1091 199 1089 q 224 1093 215 1093 q 313 1092 268 1094 q 400 1078 357 1089 q 436 1074 417 1074 q 635 1054 539 1076 q 817 972 731 1032 q 878 936 846 953 q 942 900 911 919 q 1038 772 1017 856 q 1073 632 1056 703 q 1083 488 1090 561 q 1051 368 1078 422 q 964 278 1024 314 q 889 232 926 256 q 811 189 851 208 q 751 140 778 171 q 697 81 725 108 q 681 63 689 72 q 664 50 674 54 q 558 7 610 32 q 452 -37 506 -18 q 339 -61 399 -57 q 226 -51 282 -65 q 114 -31 171 -37 q 96 -15 99 -28 q 93 10 93 -3 q 98 66 96 38 q 101 124 100 94 m 304 972 q 379 963 342 967 q 453 951 417 958 q 623 891 544 933 q 744 761 701 849 q 819 516 801 643 q 810 257 838 389 q 804 239 808 249 q 807 222 800 229 q 823 220 814 217 q 842 226 832 224 q 944 294 907 249 q 990 407 981 340 q 982 634 1007 525 q 901 846 957 743 q 844 915 879 890 q 758 953 808 940 q 598 991 679 975 q 440 1043 517 1007 q 353 1074 399 1064 q 258 1078 307 1083 q 206 1056 221 1072 q 188 1003 190 1040 q 217 974 188 972 q 260 973 239 974 q 304 972 282 972 m 492 1056 q 538 1031 503 1044 q 618 1006 574 1018 q 703 985 663 993 q 767 978 744 978 q 633 1036 704 1025 q 492 1056 563 1047 m 156 121 q 154 69 157 97 q 147 13 151 40 q 145 -6 146 3 q 161 -18 144 -15 q 257 -37 210 -26 q 354 -42 304 -47 q 492 3 431 -33 q 613 82 553 39 q 716 191 682 131 q 760 321 750 251 q 767 463 769 390 q 710 669 761 576 q 574 839 658 763 q 398 936 493 913 q 197 950 303 960 q 150 897 150 946 q 153 752 150 825 q 153 606 157 679 q 155 365 147 486 q 156 121 163 244 m 904 894 q 967 761 940 828 q 1007 625 993 694 q 1021 486 1019 557 q 1000 338 1022 415 q 1049 440 1035 378 q 1060 572 1064 501 q 1035 709 1056 643 q 982 825 1015 775 q 904 894 949 875 m 781 542 q 749 690 775 615 q 674 819 724 764 q 547 892 624 875 q 695 734 635 819 q 781 542 756 649 m 350 782 q 511 732 442 776 q 621 618 581 688 q 661 465 661 549 q 631 354 661 408 q 550 260 601 300 q 436 204 499 219 q 329 183 385 190 q 281 193 294 181 q 265 239 267 206 q 260 419 263 329 q 256 600 258 510 q 256 647 256 624 q 250 694 257 671 q 252 756 239 735 q 308 782 265 776 q 334 783 322 783 q 350 782 346 782 m 635 439 q 594 622 643 550 q 467 736 544 693 q 325 765 404 772 q 283 748 296 763 q 276 701 269 733 q 281 666 281 683 q 279 629 281 649 q 283 434 274 532 q 290 238 293 336 q 331 204 288 196 q 392 214 361 208 q 451 229 422 219 q 580 312 533 257 q 635 439 626 367 m 342 425 q 338 514 338 468 q 338 608 339 560 q 321 703 336 656 q 327 722 315 721 q 347 724 339 724 q 436 712 394 726 q 508 658 478 697 q 556 544 558 596 q 506 428 554 492 q 454 377 483 397 q 390 343 425 357 q 347 335 356 329 q 339 378 338 342 q 340 397 339 386 q 342 425 340 407 m 389 701 q 365 700 375 704 q 356 672 354 696 q 362 552 360 613 q 365 431 364 492 q 376 403 367 407 q 403 410 386 400 q 460 453 435 429 q 503 513 486 478 q 522 549 513 532 q 525 589 531 567 q 474 662 515 628 q 389 701 433 696 m 758 210 q 788 263 776 228 q 801 336 799 297 q 794 404 804 375 q 782 306 789 356 q 758 210 775 257 z "},"E":{"ha":1111,"x_min":136,"x_max":881,"o":"m 667 876 q 709 903 690 892 q 746 925 728 915 q 800 908 782 946 q 825 850 815 879 q 836 788 835 821 q 792 714 840 733 q 663 785 690 674 q 658 808 660 796 q 646 832 657 819 q 635 802 636 817 q 635 772 635 788 l 635 668 q 606 635 638 636 q 500 627 553 631 q 394 626 447 624 q 356 619 368 629 q 343 582 344 610 q 346 523 343 540 q 365 500 349 506 q 424 488 382 494 q 560 485 493 476 q 692 515 626 494 q 737 519 728 526 q 750 475 746 513 q 753 438 753 457 q 756 401 754 419 q 743 356 758 372 q 699 340 728 339 q 651 342 675 343 q 603 351 626 342 q 561 352 581 361 q 521 340 542 343 q 443 333 482 336 q 364 329 404 329 q 331 320 343 329 q 318 286 319 311 q 317 216 317 251 q 318 144 318 181 q 323 131 318 133 q 338 126 328 128 q 418 122 378 119 q 499 126 458 124 q 584 134 542 129 q 669 153 626 139 q 724 178 697 164 q 781 200 751 192 q 833 205 817 211 q 860 163 849 199 q 871 117 867 140 q 878 71 875 94 q 861 33 881 50 q 814 11 842 15 q 747 3 781 7 q 681 -3 714 0 q 639 -12 658 -6 q 611 -47 619 -19 q 588 -71 606 -65 q 554 -75 571 -76 q 399 -58 478 -61 q 242 -53 319 -56 q 201 -37 213 -51 q 188 0 190 -24 q 172 133 179 67 q 157 267 165 200 q 151 619 136 444 q 186 968 167 793 q 203 1043 190 1007 q 221 1117 217 1079 q 244 1135 225 1135 q 363 1132 304 1133 q 478 1115 421 1131 q 529 1107 503 1110 q 582 1101 556 1104 q 589 1100 585 1100 q 596 1100 593 1100 q 666 1086 644 1096 q 690 1053 688 1076 q 679 985 692 1031 q 669 933 672 960 q 667 876 667 907 m 239 1110 q 301 1107 271 1108 q 363 1101 332 1106 q 493 1080 428 1092 q 624 1058 558 1068 q 650 1051 635 1057 q 668 1063 665 1046 q 654 1077 671 1074 q 625 1082 638 1081 q 449 1108 536 1093 q 272 1125 363 1122 q 255 1126 264 1125 q 239 1110 246 1128 m 390 1071 q 391 1077 390 1074 q 392 1082 392 1081 q 372 1085 382 1083 q 351 1088 361 1086 q 283 1091 304 1093 q 252 1070 261 1089 q 231 1004 243 1051 q 216 931 217 953 q 237 905 215 908 q 313 906 258 901 q 409 915 361 910 q 504 906 457 919 q 561 889 532 896 q 619 875 590 882 q 642 876 635 872 q 651 897 650 881 q 658 953 654 925 q 669 1008 663 982 q 668 1033 674 1028 q 646 1040 663 1039 q 518 1056 582 1047 q 390 1071 454 1064 m 814 814 q 801 868 813 846 q 778 910 790 890 q 763 913 772 919 q 759 906 758 910 q 761 899 760 901 q 783 858 769 878 q 814 814 796 838 m 529 875 q 463 895 496 886 q 394 892 431 904 q 462 883 428 888 q 529 875 496 879 m 174 717 q 167 631 172 674 q 160 546 161 589 q 169 287 157 415 q 199 31 181 158 q 206 -16 204 -3 q 222 -31 208 -29 q 274 -31 236 -32 q 286 -30 281 -29 q 297 -32 292 -31 q 423 -41 360 -39 q 550 -54 486 -43 q 601 -12 600 -62 q 602 26 601 7 q 604 64 603 44 q 591 105 607 97 q 551 110 575 113 q 442 105 496 104 q 332 108 388 106 q 287 123 301 111 q 268 165 272 135 q 265 276 260 222 q 272 315 269 304 q 287 331 275 326 q 326 340 299 336 q 421 349 374 349 q 515 361 468 350 q 533 365 524 364 q 543 375 542 365 q 549 414 549 394 q 542 451 549 433 q 520 463 536 465 q 490 461 504 461 q 410 449 450 460 q 328 439 369 438 q 292 478 289 439 q 298 538 293 508 q 308 596 303 567 q 335 637 315 629 q 382 643 354 644 q 482 644 432 642 q 583 650 532 647 q 610 663 603 653 q 617 689 617 672 q 614 749 615 719 q 614 808 613 778 q 608 835 615 828 q 582 846 600 843 q 398 874 490 864 q 214 894 306 885 q 189 876 188 899 q 184 797 192 836 q 174 717 176 757 m 672 847 q 683 785 671 813 q 708 731 694 757 q 717 724 713 724 q 760 736 740 726 q 796 761 779 746 q 802 786 810 774 q 789 811 794 799 q 777 836 783 824 q 764 860 771 849 q 753 885 757 869 q 731 893 749 900 q 672 847 692 879 m 653 481 q 683 477 669 479 q 708 474 696 475 q 723 474 715 474 q 731 485 731 474 q 724 502 731 497 q 706 504 717 507 q 680 497 693 500 q 653 481 667 494 m 406 475 q 366 480 383 478 q 333 483 349 482 q 322 490 328 485 q 313 479 315 496 q 331 458 308 461 q 366 461 349 457 q 406 475 383 465 m 675 457 q 640 460 657 461 q 608 456 624 458 q 567 443 572 450 q 567 400 561 436 q 576 378 569 386 q 596 369 582 371 q 631 365 614 368 q 667 358 649 363 q 703 367 697 351 q 710 403 710 382 q 712 430 711 417 q 706 451 713 443 q 675 457 699 460 m 301 310 l 290 310 q 278 224 281 267 q 290 140 276 182 l 300 140 q 301 226 300 183 q 301 310 301 268 m 621 81 l 621 47 q 665 13 619 1 q 703 20 685 18 q 742 25 722 22 q 804 38 786 31 q 824 64 822 44 q 819 126 826 83 l 819 131 q 785 160 815 160 q 730 151 756 160 q 676 136 704 143 q 646 129 661 133 q 623 115 631 125 q 621 81 615 106 z "},"F":{"ha":1139,"x_min":161,"x_max":926,"o":"m 360 501 q 360 464 360 483 q 360 425 361 444 q 393 396 358 390 q 438 404 415 400 q 483 411 461 408 q 528 424 507 415 q 561 457 550 433 q 576 469 567 468 q 593 472 585 471 q 687 488 640 481 q 781 504 733 494 q 814 498 804 508 q 826 468 824 488 q 827 381 833 424 q 819 293 821 338 q 808 275 818 279 q 786 271 797 271 q 693 266 739 272 q 600 264 647 260 q 499 251 549 268 q 452 244 476 244 q 404 244 428 243 q 368 213 368 249 q 369 92 369 153 q 375 -28 369 32 q 370 -56 376 -47 q 350 -67 364 -64 q 290 -76 319 -72 q 231 -82 260 -79 q 179 -33 179 -85 q 178 -24 179 -28 q 178 -15 178 -19 q 182 74 181 29 q 172 165 183 119 q 173 267 161 217 q 188 368 185 318 q 190 528 193 449 q 179 686 188 607 q 190 922 167 803 q 194 965 194 943 q 196 1007 194 986 q 235 1057 199 1046 q 455 1110 343 1094 q 681 1129 567 1125 q 722 1088 724 1131 q 722 1044 722 1065 q 721 1000 722 1022 q 749 975 719 969 q 803 985 776 979 q 857 989 829 990 q 888 981 876 988 q 901 954 899 974 q 915 840 913 899 q 924 725 918 782 q 917 706 926 711 q 897 696 908 700 q 837 685 868 682 q 775 685 806 688 q 640 670 707 679 q 508 642 574 661 q 455 630 482 633 q 400 625 428 626 q 365 593 365 625 q 366 548 367 571 q 365 501 365 525 l 360 501 m 642 1114 q 296 1064 467 1104 q 237 1046 254 1054 q 217 1020 219 1038 q 213 963 214 1003 q 219 928 211 935 q 254 928 226 922 q 353 952 306 939 q 453 964 401 965 q 527 953 489 964 q 600 951 565 943 q 658 962 638 960 q 688 970 679 964 q 697 997 696 976 q 699 1064 699 1018 q 697 1101 699 1090 q 683 1113 694 1111 q 642 1114 671 1115 m 699 950 q 744 933 735 953 q 757 886 754 914 q 762 826 760 856 q 761 767 764 797 q 760 721 758 735 q 776 705 763 707 q 822 703 790 703 q 846 705 833 704 q 869 707 858 706 q 899 743 903 708 q 889 843 893 793 q 881 943 885 893 q 842 974 876 978 q 771 963 807 968 q 699 950 735 957 m 485 926 q 410 943 447 947 q 371 935 392 942 q 333 917 350 928 l 485 926 m 739 782 q 740 833 740 810 q 733 881 739 857 q 719 921 726 915 q 676 922 711 926 q 455 901 567 908 q 232 896 343 893 q 211 890 217 897 q 204 871 206 883 q 196 776 201 824 q 196 681 190 729 q 208 578 203 629 q 210 474 213 526 q 202 307 206 390 q 206 142 199 224 q 239 -21 213 60 q 243 -37 242 -29 q 257 -47 244 -46 q 301 -49 279 -50 q 340 -39 322 -49 q 353 -13 356 -31 q 351 18 350 4 q 352 26 353 22 q 351 36 351 31 q 349 129 350 83 q 347 222 349 175 q 388 264 346 264 q 438 262 413 263 q 486 267 463 261 q 533 282 519 275 q 547 303 547 289 q 538 351 546 318 q 535 365 536 358 q 533 376 535 371 q 500 400 529 404 q 444 390 472 394 q 389 379 417 386 q 351 381 360 374 q 342 417 342 388 q 343 511 342 464 q 344 606 344 558 q 378 639 344 638 q 460 649 418 644 q 542 668 503 653 q 595 683 568 679 q 650 688 622 686 q 711 697 693 692 q 733 720 729 701 q 739 782 738 739 m 599 413 q 604 373 601 393 q 610 333 607 353 q 642 300 611 304 q 706 293 674 296 q 769 292 738 290 q 788 294 781 292 q 796 310 794 297 q 803 384 799 347 q 803 458 808 421 q 793 483 801 478 q 767 485 785 488 q 705 473 736 479 q 642 464 674 467 q 604 451 615 461 q 599 413 593 440 m 556 401 q 563 348 554 374 q 576 294 571 322 q 583 283 578 288 q 597 281 589 278 q 606 292 611 286 q 597 304 600 299 q 585 353 588 328 q 579 403 582 378 q 578 418 578 410 q 569 426 579 426 q 557 418 558 426 q 556 401 556 410 m 199 7 l 199 -47 q 206 -62 200 -57 q 221 -65 211 -68 q 227 -56 232 -61 q 221 -46 222 -50 q 215 -17 218 -31 q 199 7 213 -3 z "},"G":{"ha":1167,"x_min":96,"x_max":981,"o":"m 546 1131 q 651 1123 603 1139 q 746 1078 700 1107 q 865 983 814 1036 q 956 868 917 931 q 976 816 971 843 q 971 760 981 789 q 952 732 965 743 q 928 710 939 721 q 860 648 897 676 q 782 596 824 619 q 717 582 751 578 q 652 592 685 586 q 588 601 619 597 q 556 614 565 604 q 549 644 547 624 q 553 691 551 668 q 554 738 554 714 q 542 780 556 768 q 492 788 528 792 q 403 774 447 783 q 317 753 360 765 q 224 709 260 738 q 185 619 188 681 q 181 552 183 586 q 176 485 178 518 q 189 455 175 467 q 224 440 203 443 q 317 364 300 431 q 353 307 325 332 q 436 282 388 272 q 497 335 482 292 q 504 383 506 358 q 500 433 503 408 q 508 490 494 474 q 567 515 522 506 q 580 517 574 517 q 588 524 586 518 q 611 550 593 544 q 647 557 629 556 q 758 558 704 563 q 861 521 813 553 q 898 476 889 501 q 903 424 907 451 q 891 379 901 401 q 874 335 881 357 q 838 239 860 286 q 814 139 815 192 q 791 85 814 107 q 735 60 768 64 q 669 72 701 56 q 647 86 657 79 q 628 102 638 93 q 604 106 618 111 q 585 87 590 100 q 581 61 579 74 q 500 -31 585 -14 q 483 -37 492 -32 q 468 -49 475 -43 q 402 -81 438 -71 q 328 -93 367 -92 q 256 -71 286 -96 q 200 -20 225 -47 q 167 43 175 7 q 157 65 164 57 q 102 226 108 143 q 107 396 96 310 q 112 513 114 454 q 115 631 110 572 q 125 738 121 683 q 143 844 129 792 q 182 906 151 881 q 237 960 214 929 q 286 1018 260 990 q 399 1102 336 1071 q 546 1131 461 1133 m 779 613 q 865 674 828 642 q 938 738 903 707 q 949 762 950 749 q 940 789 947 775 q 856 926 908 864 q 739 1044 804 989 q 660 1092 704 1074 q 568 1115 617 1111 q 518 1110 542 1118 q 472 1093 494 1103 q 390 1066 433 1076 q 314 1024 346 1056 q 275 983 293 1004 q 238 940 257 961 q 371 988 303 968 q 510 1018 439 1008 q 613 1014 564 1025 q 699 961 663 1003 q 789 703 801 846 q 785 660 788 682 q 779 613 782 639 m 185 811 q 187 783 183 797 q 190 753 190 768 q 198 730 190 735 q 225 735 206 725 q 345 777 283 761 q 471 801 407 793 q 525 801 499 804 q 574 778 551 797 q 600 735 594 758 q 607 686 606 711 q 614 640 610 654 q 634 618 618 625 q 683 604 650 611 q 702 601 693 603 q 721 597 711 600 q 760 628 760 592 q 753 660 760 642 q 734 719 742 689 q 719 779 726 749 q 697 864 710 822 q 660 944 683 906 q 601 999 638 986 q 518 1006 564 1013 q 378 977 447 994 q 247 924 310 960 q 195 875 210 901 q 185 811 181 849 m 672 958 q 714 872 701 918 q 736 780 726 826 q 765 690 746 733 q 753 835 778 768 q 672 958 729 901 m 143 142 q 140 210 139 176 q 142 276 140 243 q 158 478 149 378 q 143 676 167 578 q 135 626 138 653 q 132 574 132 600 q 130 463 131 518 q 121 351 129 408 q 118 247 111 299 q 143 142 125 194 m 763 224 q 763 210 763 217 q 764 196 763 203 q 763 183 764 190 q 774 175 763 175 q 790 182 785 175 q 793 199 796 189 q 799 253 786 229 q 826 303 813 278 q 859 355 842 329 q 882 411 876 381 q 831 519 894 488 q 733 546 783 544 q 629 538 682 547 q 620 535 625 536 q 614 528 615 533 q 617 519 613 522 q 626 514 621 517 q 714 445 688 490 q 758 349 740 400 q 767 287 769 318 q 763 224 765 256 m 519 404 l 521 404 q 522 377 521 390 q 521 350 522 364 q 489 285 518 308 q 411 264 460 263 q 347 285 372 265 q 311 335 322 304 q 272 399 297 374 q 197 431 246 424 q 174 430 179 433 q 169 415 169 426 q 160 266 169 340 q 168 115 151 192 q 303 -14 192 13 q 411 -23 358 -28 q 515 -3 464 -18 q 557 42 557 7 q 578 108 560 78 q 633 119 597 142 q 656 103 644 113 q 678 88 667 94 q 700 76 689 82 q 725 75 711 69 q 740 93 739 82 q 742 115 742 104 q 742 182 743 149 q 746 247 740 215 q 737 353 753 304 q 688 447 721 401 q 664 475 678 463 q 631 494 650 488 q 551 494 583 513 q 519 432 518 476 l 519 404 m 210 1 q 273 -58 235 -37 q 351 -77 311 -79 q 417 -47 390 -75 q 310 -35 361 -46 q 210 1 258 -25 z "},"H":{"ha":1167,"x_min":61,"x_max":996,"o":"m 936 943 q 948 799 938 871 q 968 653 958 726 q 975 507 978 581 q 983 297 971 401 q 992 86 996 192 q 988 33 990 60 q 969 -19 985 6 q 960 -60 958 -39 q 963 -100 961 -81 q 951 -140 963 -132 q 894 -146 939 -149 q 839 -139 857 -143 q 814 -122 821 -135 q 803 -81 807 -108 q 791 -67 801 -67 q 769 -69 781 -67 q 692 -80 731 -79 q 613 -83 653 -81 q 564 -56 568 -87 q 556 98 556 21 q 563 251 557 175 q 556 295 565 288 q 497 300 547 303 q 415 294 456 299 q 332 285 374 289 q 300 258 301 283 q 290 165 294 211 q 290 71 286 118 q 290 18 293 44 q 283 -33 286 -8 q 270 -58 282 -49 q 233 -65 258 -67 q 165 -63 199 -62 q 97 -67 131 -64 q 67 -62 72 -68 q 63 -40 61 -56 q 90 87 74 24 q 114 214 106 150 q 149 455 132 335 q 157 696 165 575 q 166 819 153 757 q 186 940 179 881 q 188 983 189 961 q 189 1025 188 1004 q 244 1069 192 1064 q 307 1076 276 1074 q 368 1079 338 1079 q 393 1076 382 1079 q 413 1065 404 1074 q 433 1025 428 1051 q 435 972 439 999 q 415 931 431 946 q 406 913 404 922 q 402 751 415 832 q 378 590 389 671 q 366 520 372 556 q 346 450 360 485 q 376 421 336 424 q 435 422 406 419 q 492 428 464 425 q 513 439 508 431 q 519 456 517 447 q 535 549 533 503 q 539 643 538 596 q 551 749 542 696 q 572 853 560 801 q 591 945 583 899 q 613 1036 599 992 q 633 1067 619 1056 q 674 1083 646 1079 q 709 1091 692 1086 q 743 1100 726 1096 q 783 1107 764 1106 q 818 1090 803 1108 q 840 1082 825 1081 q 869 1085 856 1083 q 925 1053 919 1089 q 931 999 931 1026 q 936 943 932 972 m 943 428 q 946 428 944 428 q 949 429 947 429 q 950 438 950 432 q 942 634 953 536 q 918 830 931 732 q 901 1025 906 928 q 899 1041 900 1033 q 894 1056 897 1049 q 870 1071 888 1072 q 838 1067 853 1069 q 824 1056 817 1063 q 836 1042 832 1049 q 849 1018 844 1031 q 857 993 854 1006 q 893 818 875 906 q 929 642 911 731 q 936 598 935 619 q 939 553 938 576 q 941 491 940 522 q 943 428 942 460 m 793 1006 q 794 1021 793 1015 q 794 1032 794 1026 q 790 1058 796 1047 q 757 1069 783 1068 q 693 1068 710 1072 q 669 1042 676 1064 q 658 997 663 1019 q 647 953 653 975 q 669 932 643 936 q 767 934 743 921 q 793 999 792 947 l 793 1006 m 374 1006 q 373 1017 374 1011 q 374 1029 372 1024 q 319 1064 379 1068 q 245 1054 268 1060 q 217 1032 222 1049 q 214 979 213 1015 q 226 942 215 949 q 279 936 236 935 q 348 941 328 938 q 372 958 368 944 q 374 1006 375 972 m 828 1006 l 813 1006 q 814 974 814 990 q 814 943 814 958 q 815 931 815 938 q 807 921 815 924 q 785 901 785 913 q 789 878 786 889 q 835 644 813 761 q 860 408 857 528 q 865 325 860 367 q 872 242 871 283 q 876 105 875 174 q 842 -29 878 36 q 833 -56 836 -42 q 828 -83 831 -69 q 841 -117 824 -107 q 904 -128 858 -126 q 941 -115 939 -129 q 943 -86 943 -100 q 942 -60 943 -72 q 942 -33 942 -47 q 930 158 936 63 q 921 351 924 254 q 915 528 919 440 q 890 706 911 617 q 858 856 874 781 q 828 1006 843 931 m 579 107 q 582 26 581 60 q 585 -40 583 -8 q 588 -59 585 -50 q 608 -67 590 -68 q 692 -62 650 -62 q 774 -53 733 -62 q 794 -45 785 -50 q 810 -32 804 -40 q 833 4 822 -14 q 844 43 843 22 q 851 199 854 121 q 842 354 849 278 q 839 441 838 397 q 832 526 840 485 q 803 690 817 608 q 769 851 789 771 q 755 899 761 886 q 727 914 749 913 q 653 913 706 915 l 649 913 q 604 883 611 913 q 577 756 590 819 q 560 626 564 692 q 553 534 558 581 q 543 442 549 488 q 538 422 542 432 q 515 411 533 413 q 435 406 476 408 q 354 408 394 403 q 326 419 336 411 q 321 442 315 428 q 353 569 344 504 q 372 697 361 633 q 383 792 381 744 q 385 886 385 839 q 372 919 385 914 q 322 922 360 925 q 285 919 304 921 q 246 919 265 918 q 210 899 215 919 q 189 784 196 842 q 183 668 182 726 q 191 577 185 622 q 199 486 197 532 q 193 352 201 419 q 178 217 185 285 q 160 103 172 160 q 135 -11 149 46 q 131 -28 133 -18 q 142 -40 129 -37 q 192 -48 165 -46 q 242 -44 218 -50 q 262 -27 261 -40 q 264 -4 263 -14 q 272 126 275 61 q 274 258 269 192 q 280 302 276 289 q 301 319 283 315 q 361 328 318 324 q 386 333 374 331 q 411 336 399 335 q 481 348 446 343 q 550 354 515 353 q 585 349 575 356 q 592 322 594 342 q 578 208 586 264 q 579 107 571 151 m 90 -39 q 114 13 101 -28 q 137 108 126 53 q 156 222 147 164 q 167 329 164 281 q 165 403 169 378 q 129 183 144 293 q 90 -39 114 72 z "},"I":{"ha":833,"x_min":114,"x_max":618,"o":"m 125 8 q 125 94 128 53 q 119 176 122 135 q 116 273 118 225 q 115 369 114 321 q 127 476 117 422 q 151 581 138 529 q 163 708 168 646 q 156 815 157 761 q 163 921 156 868 q 170 951 165 936 q 175 982 175 967 q 176 1006 176 994 q 174 1028 176 1017 q 197 1075 167 1063 q 257 1095 226 1088 q 319 1103 288 1103 q 350 1074 350 1103 q 351 1047 351 1060 q 351 1022 351 1035 q 369 1008 351 1000 q 415 1013 399 1019 q 443 963 432 1007 q 474 830 458 896 q 503 697 490 764 q 513 619 510 658 q 518 539 517 579 q 529 463 518 500 q 550 389 540 425 q 569 311 561 350 q 583 232 578 272 q 599 136 590 185 q 614 39 608 88 q 617 -19 618 10 q 606 -75 615 -47 q 592 -92 601 -87 q 572 -100 583 -97 q 514 -100 542 -106 q 458 -81 486 -94 q 413 -75 438 -71 q 326 -86 369 -79 q 238 -92 282 -93 q 197 -88 217 -90 q 157 -85 176 -86 q 146 -76 146 -82 q 128 -33 142 -53 q 125 8 114 -14 m 333 1035 q 333 1044 333 1038 q 332 1057 333 1050 q 324 1085 331 1079 q 294 1088 318 1090 q 264 1083 279 1086 q 233 1074 249 1079 q 197 1056 203 1065 q 194 1014 190 1047 q 194 999 194 1007 q 193 985 194 992 q 197 969 193 975 q 213 965 200 964 q 253 973 233 969 q 294 981 274 976 q 325 997 318 986 q 333 1035 332 1007 m 524 -86 q 572 -78 563 -87 q 571 -36 581 -69 q 537 113 551 38 q 515 265 522 189 q 507 400 511 333 q 501 535 503 467 q 497 640 500 588 q 479 743 494 692 q 451 850 464 796 q 422 958 438 904 q 417 973 421 965 q 411 988 414 981 q 392 999 407 999 q 349 949 336 1000 q 377 840 363 894 q 407 733 392 786 q 419 676 415 706 q 421 618 424 647 q 419 593 419 606 q 419 569 419 581 q 430 440 422 504 q 444 311 438 376 q 452 167 451 239 q 457 22 453 94 q 458 2 457 13 q 457 -19 458 -8 q 458 -60 453 -50 q 494 -79 464 -69 q 510 -83 501 -81 q 524 -86 518 -85 m 232 -78 q 306 -74 267 -83 q 386 -64 346 -65 q 406 -57 401 -62 q 407 -37 410 -51 q 395 70 399 15 q 392 181 392 125 q 363 578 394 382 q 342 708 353 643 q 324 836 331 772 q 319 893 321 864 q 326 950 317 922 q 307 969 333 975 q 221 953 267 960 q 183 915 188 949 q 176 862 179 889 q 174 807 174 835 q 173 737 172 772 q 181 668 174 701 q 186 635 185 650 q 185 601 188 619 q 181 551 181 576 q 179 499 181 525 q 178 407 179 453 q 181 315 176 361 q 179 253 183 285 q 175 189 175 221 q 175 87 175 138 q 168 -12 175 36 q 165 -58 164 -46 q 181 -72 165 -71 q 232 -78 196 -74 m 429 -40 q 438 -21 438 -29 q 439 -4 438 -12 q 439 56 443 26 q 436 117 435 86 q 435 206 438 161 q 429 293 433 250 q 418 400 425 346 q 406 507 411 454 q 403 535 404 521 q 403 563 401 549 q 397 697 414 632 q 364 825 381 761 q 356 858 360 840 q 342 889 351 875 q 348 767 343 828 q 367 647 353 707 q 386 533 379 590 q 399 419 393 476 q 405 363 401 392 q 407 307 408 335 q 410 158 406 232 q 419 8 414 83 q 422 -14 421 -1 q 429 -40 424 -26 m 164 544 q 143 470 150 514 q 134 378 136 426 q 132 289 132 331 q 140 142 135 215 q 142 -6 146 68 q 141 -14 140 -10 q 151 -24 142 -18 q 163 260 161 118 q 164 544 165 401 m 593 -29 q 577 184 596 79 q 528 393 558 289 q 544 179 529 285 q 593 -29 558 74 z "},"J":{"ha":1056,"x_min":110,"x_max":801,"o":"m 797 214 q 778 115 796 163 q 733 19 761 67 q 599 -57 693 -49 q 502 -76 547 -61 q 408 -99 457 -90 q 335 -110 372 -104 q 261 -119 299 -117 q 190 -108 214 -122 q 157 -58 165 -93 q 124 114 138 28 q 119 288 110 200 q 124 319 121 303 q 131 350 126 335 q 162 388 138 375 q 217 406 186 400 q 256 396 240 410 q 264 363 271 382 q 243 289 250 326 q 228 215 236 251 q 224 144 218 178 q 276 83 231 111 q 292 70 286 78 q 306 56 299 63 q 314 47 310 51 q 325 44 318 43 q 335 50 332 46 q 339 58 338 54 q 344 106 346 82 q 339 154 342 131 q 331 253 331 203 q 328 351 332 303 q 324 465 325 408 q 311 576 324 521 q 308 661 303 619 q 303 746 313 703 q 290 828 293 786 q 265 908 286 869 q 263 920 263 914 q 264 932 263 926 q 272 986 267 960 q 278 1039 278 1013 q 293 1076 276 1065 q 339 1092 310 1086 q 411 1099 375 1099 q 485 1092 447 1100 q 518 1058 519 1082 q 525 1002 513 1029 q 539 947 538 975 q 549 935 539 936 q 571 935 560 933 q 628 940 600 938 q 686 943 657 942 q 728 938 718 944 q 739 907 738 931 q 756 787 746 847 q 779 667 767 726 q 793 569 789 618 q 799 471 797 519 q 799 343 801 407 q 797 214 797 279 m 486 997 q 489 1026 488 1011 q 492 1054 490 1040 q 461 1082 492 1078 q 392 1084 426 1088 q 326 1072 358 1081 q 303 1049 306 1068 q 298 1010 301 1031 q 292 971 294 990 q 290 928 288 940 q 309 913 292 915 q 368 913 326 911 q 442 915 418 914 q 474 924 465 917 q 483 947 482 931 q 486 997 483 964 m 508 942 q 483 908 503 915 q 436 900 463 900 q 408 898 422 899 q 379 897 393 897 q 342 891 350 897 q 335 863 333 885 q 351 710 342 786 q 371 557 361 633 q 386 411 382 485 q 367 267 390 338 q 356 196 354 232 q 361 124 358 160 q 365 83 364 103 q 356 43 365 63 q 348 28 353 36 q 332 18 343 21 q 313 24 319 17 q 299 36 306 31 q 260 74 281 56 q 221 110 240 92 q 197 120 210 121 q 168 117 183 119 q 151 86 142 108 q 158 56 157 72 q 161 25 160 40 q 167 -13 163 7 q 176 -53 171 -33 q 202 -93 183 -82 q 260 -103 221 -104 q 382 -87 322 -99 q 497 -58 442 -75 q 549 -33 528 -49 q 588 4 571 -17 q 653 140 636 69 q 668 285 671 211 q 663 340 667 313 q 660 393 660 367 q 638 555 660 475 q 578 711 615 635 q 533 823 550 767 q 508 942 517 879 m 776 229 q 778 344 778 286 q 779 457 779 401 q 754 683 779 571 q 711 908 729 796 q 678 928 707 932 q 630 924 654 926 q 582 921 606 922 q 540 882 535 917 q 558 805 546 843 q 589 729 571 767 q 634 624 615 678 q 665 515 653 569 q 681 394 679 454 q 686 272 683 333 q 680 162 689 217 q 642 56 671 107 q 615 15 629 35 q 588 -25 601 -6 q 583 -32 586 -28 q 583 -39 581 -36 q 593 -43 588 -44 q 604 -40 599 -42 q 661 -22 636 -33 q 703 11 686 -10 q 758 117 743 63 q 776 229 772 172 m 332 640 q 347 480 342 560 q 353 319 351 400 q 356 480 363 400 q 332 640 350 560 m 240 365 q 241 382 243 374 q 219 388 239 390 q 177 372 194 386 q 158 339 160 358 q 160 250 157 294 q 168 161 163 206 q 169 151 169 156 q 179 144 169 146 q 192 148 189 143 q 196 158 194 153 q 218 263 207 211 q 240 365 229 314 z "},"K":{"ha":1222,"x_min":142,"x_max":1035,"o":"m 604 685 q 681 692 646 689 q 751 697 717 694 q 807 690 785 701 q 840 657 829 679 q 856 625 849 642 q 868 592 863 608 q 944 388 907 490 q 1019 182 982 285 q 1023 123 1035 139 q 956 93 1011 107 q 843 48 892 79 q 743 -11 794 17 q 674 -44 696 -36 q 636 -40 651 -53 q 596 11 621 -26 q 546 87 572 49 q 499 164 519 125 q 492 177 496 171 q 475 181 488 183 q 463 172 465 179 q 460 158 460 165 q 458 85 458 122 q 458 13 458 49 q 457 -17 457 -1 q 454 -49 457 -33 q 417 -111 449 -86 q 341 -144 386 -136 q 247 -137 296 -151 q 210 -97 214 -128 q 183 125 196 14 q 181 350 169 236 q 172 372 183 364 q 157 393 160 381 q 148 440 154 417 q 143 488 142 464 q 147 774 144 631 q 169 1060 150 917 q 225 1106 174 1096 q 359 1095 315 1121 q 388 1000 403 1069 q 386 913 378 954 q 403 828 394 871 q 415 785 410 797 q 438 779 421 774 q 490 803 454 785 q 500 808 496 806 q 510 813 504 811 q 595 869 568 836 q 615 954 622 903 q 622 1008 611 982 q 644 1060 633 1035 q 697 1097 658 1088 q 792 1100 735 1107 q 836 1078 828 1096 q 846 1039 844 1060 q 844 1004 846 1021 q 840 971 843 988 q 879 936 835 938 q 933 924 925 935 q 925 882 940 914 q 897 826 911 854 q 867 771 882 799 q 824 731 853 746 q 767 725 794 715 q 679 726 714 743 q 604 685 644 710 m 281 1090 q 228 1084 243 1088 q 215 1069 213 1081 q 228 1031 217 1058 q 235 1013 232 1022 q 242 996 239 1004 q 258 967 246 978 q 300 961 271 957 q 356 1008 360 968 q 352 1031 354 1019 q 349 1051 350 1042 q 281 1090 342 1103 m 808 990 l 808 1049 q 799 1074 807 1064 q 767 1085 790 1085 q 719 1086 743 1086 q 682 1064 694 1086 q 647 942 651 1007 q 649 925 647 933 q 668 917 651 917 q 719 909 697 918 q 763 886 742 900 q 788 881 779 876 q 799 899 796 886 q 808 990 811 942 m 178 425 q 206 576 206 500 q 197 729 206 653 q 195 799 194 765 q 204 868 196 833 q 210 941 214 904 q 199 1014 206 978 q 169 720 168 867 q 178 425 171 574 m 431 44 q 430 108 433 76 q 436 171 426 140 q 442 193 439 182 q 464 206 446 204 q 494 200 482 208 q 515 182 506 192 q 523 174 519 179 q 528 165 526 169 q 582 80 556 122 q 633 -4 608 38 q 688 -17 651 -35 q 828 60 756 19 q 866 90 854 74 q 850 129 878 106 q 837 154 840 140 q 828 181 833 168 q 797 262 811 221 q 756 339 783 303 q 657 494 699 414 q 571 653 615 574 q 565 686 561 672 q 596 710 569 700 q 641 733 619 721 q 685 758 663 746 q 727 785 708 771 q 756 819 746 800 q 751 859 764 839 q 706 892 738 879 q 665 892 679 901 q 639 868 650 882 q 619 849 629 858 q 594 833 608 840 q 508 790 551 811 q 419 744 464 768 q 406 739 414 742 q 390 738 399 736 q 380 749 381 742 q 381 763 379 756 q 371 844 388 804 q 350 924 354 883 q 340 940 349 935 q 315 942 331 946 q 287 940 303 939 q 258 939 271 942 q 242 919 246 936 q 224 811 231 865 q 226 703 217 757 q 238 614 235 658 q 229 525 240 569 q 203 215 194 369 q 231 -93 211 61 q 240 -115 232 -106 q 268 -124 249 -125 q 328 -119 299 -122 q 386 -114 357 -117 q 410 -101 403 -111 q 421 -81 418 -92 q 430 -17 431 -49 q 431 44 429 14 m 897 899 q 878 915 897 915 q 847 912 858 918 q 825 892 835 906 q 794 832 807 863 q 751 776 782 801 q 740 765 746 771 q 740 753 735 760 q 759 742 747 744 q 782 742 771 740 q 817 755 804 744 q 836 779 829 765 q 862 828 849 804 q 888 878 875 853 q 893 889 890 883 q 897 899 896 894 m 747 681 q 696 676 724 676 q 640 665 668 676 q 621 656 629 661 q 618 638 613 650 q 674 517 646 578 q 744 401 701 457 q 781 348 764 375 q 808 293 797 321 q 841 215 825 254 q 874 138 857 176 q 908 109 885 111 q 960 113 932 107 q 995 134 988 119 q 996 167 1003 149 q 983 201 990 185 q 971 236 976 218 q 902 438 943 339 q 821 636 861 536 q 799 669 814 656 q 747 681 783 683 z "},"L":{"ha":1028,"x_min":101,"x_max":750,"o":"m 647 306 q 672 305 660 306 q 697 304 685 304 q 742 260 744 306 q 744 113 739 186 q 739 -33 750 40 q 735 -61 738 -47 q 728 -89 732 -75 q 704 -135 717 -128 q 651 -128 692 -142 q 573 -110 613 -114 q 493 -112 533 -107 q 456 -113 475 -114 q 417 -112 436 -112 q 315 -111 365 -110 q 213 -124 264 -112 q 152 -119 169 -133 q 132 -60 135 -106 q 114 181 125 60 q 101 424 103 301 q 112 551 101 489 q 131 678 122 614 q 144 817 139 747 q 168 956 150 888 q 190 1019 176 989 q 208 1085 203 1050 q 224 1108 211 1100 q 250 1118 236 1115 q 286 1122 268 1121 q 322 1125 304 1124 q 333 1124 328 1125 q 340 1119 339 1122 q 367 1092 351 1097 q 399 1090 382 1088 q 433 1093 417 1093 q 465 1095 449 1093 q 496 1097 481 1097 q 535 1086 524 1096 q 546 1050 546 1076 q 546 884 544 967 q 540 718 547 801 q 533 604 536 663 q 546 489 529 546 q 556 421 556 456 q 557 350 557 386 q 564 315 557 321 q 601 308 571 308 q 624 308 613 308 q 647 310 636 308 l 647 306 m 274 1013 q 301 1013 286 1017 q 322 1024 315 1010 q 334 1058 329 1040 q 329 1094 339 1076 q 306 1108 321 1110 q 278 1106 292 1107 q 234 1090 247 1104 q 221 1042 221 1075 q 231 1018 222 1022 q 253 1016 240 1014 q 274 1013 265 1018 m 507 933 q 509 992 508 963 q 510 1050 510 1021 q 472 1082 510 1082 q 450 1072 454 1081 q 446 1049 446 1063 q 451 989 449 1018 q 454 929 453 960 q 461 731 461 831 q 446 533 461 632 q 426 408 436 471 q 406 285 417 346 q 438 229 399 244 q 509 211 474 215 q 582 208 544 207 q 611 201 601 208 q 618 171 621 193 q 617 157 617 165 q 625 149 618 149 q 669 147 647 147 q 714 153 692 146 q 721 167 721 154 q 721 215 721 190 q 719 263 721 239 q 713 281 719 278 q 690 282 706 285 q 624 267 657 275 q 556 261 592 258 q 519 274 529 264 q 508 310 510 283 q 507 381 507 346 q 513 451 507 417 q 510 553 521 503 q 500 653 499 603 q 502 794 501 724 q 507 933 503 864 m 124 286 q 136 101 125 193 q 154 -82 147 10 q 169 -108 156 -104 q 200 -108 183 -112 q 313 -92 257 -93 q 426 -97 369 -90 q 488 -97 458 -100 q 549 -87 518 -93 q 583 -50 579 -82 q 590 52 586 1 q 597 154 593 103 q 561 194 601 196 q 500 198 531 193 q 440 211 469 203 q 397 234 406 222 q 389 282 388 246 q 406 390 392 336 q 425 497 419 443 q 439 620 432 558 q 446 744 446 682 q 438 883 447 814 q 431 1021 429 953 q 430 1048 431 1035 q 408 1061 429 1061 q 371 1060 390 1063 q 347 1032 351 1057 q 328 998 343 1004 q 290 994 313 992 q 265 999 278 996 q 240 999 253 1001 q 212 992 226 997 q 193 967 197 988 q 183 927 189 947 q 175 886 178 907 q 150 687 165 786 q 126 488 135 588 q 124 286 118 388 m 600 -37 q 601 -78 599 -65 q 615 -97 603 -90 q 657 -112 628 -103 q 708 -85 699 -125 q 719 -3 719 -44 q 725 79 719 38 q 724 113 728 97 q 692 131 721 129 q 633 126 649 133 q 613 88 617 118 q 605 24 607 57 q 600 -37 603 -8 z "},"M":{"ha":1389,"x_min":107,"x_max":1136,"o":"m 1046 1003 q 1049 901 1040 951 q 1063 799 1058 850 q 1081 632 1071 715 q 1100 465 1090 549 q 1119 317 1108 392 q 1133 168 1131 243 q 1133 85 1136 126 q 1106 7 1129 44 q 1103 1 1104 4 q 1101 -6 1103 -3 q 1086 -51 1096 -42 q 1040 -58 1076 -60 q 982 -54 1011 -58 q 924 -43 953 -50 q 874 -37 900 -36 q 822 -37 847 -39 q 777 -35 800 -36 q 732 -29 754 -35 q 649 71 656 -12 q 642 188 644 129 q 642 306 640 246 q 642 316 642 311 q 639 325 642 321 q 628 340 636 339 q 619 338 622 342 q 613 329 615 333 q 590 286 600 308 q 571 242 581 264 q 568 233 569 238 q 564 225 567 228 q 542 197 554 211 q 511 185 531 183 q 488 200 494 186 q 474 228 481 214 q 465 251 468 239 q 457 272 461 263 q 451 288 454 279 q 438 294 447 296 q 424 287 428 294 q 418 272 421 279 q 390 186 404 229 q 367 99 375 143 q 350 21 360 60 q 329 -58 340 -18 q 308 -87 324 -81 q 274 -97 292 -94 q 219 -101 247 -100 q 163 -100 190 -101 q 140 -74 139 -97 q 141 -61 142 -67 q 139 -50 140 -56 q 116 95 115 21 q 110 243 117 169 q 109 318 107 281 q 115 394 111 356 q 120 556 126 475 q 115 718 114 638 q 118 847 117 783 q 132 975 119 911 q 138 1026 138 1000 q 147 1075 138 1051 q 175 1100 156 1096 q 231 1110 203 1104 q 286 1122 260 1117 q 315 1124 301 1126 q 340 1114 328 1121 q 467 1039 404 1078 q 589 958 529 1000 q 647 969 622 933 q 694 1028 669 1000 q 744 1082 718 1057 q 762 1095 754 1090 q 774 1076 769 1100 q 785 1063 776 1063 q 803 1063 793 1063 q 906 1071 856 1064 q 1008 1082 957 1078 q 1045 1079 1039 1085 q 1049 1042 1051 1074 q 1048 1022 1049 1032 q 1046 1003 1047 1013 m 218 1018 q 274 1025 254 1017 q 297 1051 289 1032 q 297 1089 304 1069 q 279 1104 292 1107 q 256 1100 267 1101 q 222 1092 239 1097 q 188 1083 204 1088 q 171 1073 174 1082 q 167 1053 168 1064 q 170 1035 167 1043 q 185 1025 174 1028 q 204 1022 196 1024 q 218 1018 213 1019 m 751 1013 q 755 1038 753 1026 q 749 1053 757 1049 q 732 1049 739 1057 q 719 1035 725 1042 q 694 1003 706 1019 q 669 969 682 986 q 624 935 647 939 q 571 953 601 932 q 469 1023 519 989 q 361 1083 418 1057 q 324 1095 331 1099 q 313 1053 317 1092 q 310 1041 311 1047 q 307 1028 310 1035 q 314 994 300 1011 q 352 947 336 972 q 386 896 368 921 q 463 781 428 840 q 540 667 497 721 q 563 646 557 646 q 582 668 568 646 q 651 785 619 725 q 718 901 683 844 q 749 956 735 929 q 751 1013 763 982 m 903 139 q 897 79 896 108 q 897 19 897 50 q 903 -2 897 6 q 919 -17 910 -10 q 992 -38 954 -39 q 1067 -39 1029 -37 q 1079 -33 1074 -39 q 1082 -21 1085 -26 q 1080 8 1074 -6 q 1083 36 1086 22 q 1078 170 1076 103 q 1071 304 1081 238 q 1049 510 1056 407 q 1051 718 1043 614 q 1053 749 1053 733 q 1050 781 1053 765 q 1032 911 1043 846 q 1031 1043 1021 976 q 1006 1067 1035 1069 q 977 1063 992 1065 q 947 1060 963 1060 q 917 1026 918 1058 q 913 889 915 958 q 907 750 910 819 q 904 713 906 732 q 904 674 903 693 q 914 492 913 583 q 910 311 915 401 q 907 225 908 268 q 903 139 906 182 m 839 950 l 839 951 q 847 951 843 951 q 853 951 850 950 q 876 949 864 953 q 893 961 889 946 q 899 1002 899 981 q 894 1046 900 1024 q 888 1050 893 1050 q 879 1050 883 1050 q 835 1048 857 1049 q 792 1047 814 1047 q 772 1033 778 1044 q 772 976 758 999 q 822 951 786 953 q 831 951 826 951 q 839 950 835 951 m 801 -17 l 801 -18 q 830 -19 815 -18 q 858 -21 844 -19 q 882 7 883 -21 q 880 95 881 51 q 883 182 879 139 q 896 353 892 268 q 896 524 900 438 q 890 618 894 571 q 889 713 886 665 q 891 810 892 761 q 894 906 890 858 q 868 936 896 933 q 826 938 847 938 q 786 940 806 939 q 747 922 761 942 q 723 883 733 904 q 703 842 713 863 q 647 741 679 789 q 592 638 614 693 q 571 623 586 624 q 544 636 556 622 q 517 674 531 656 q 492 714 503 693 q 406 846 451 782 q 315 975 360 910 q 299 998 308 986 q 274 1007 289 1010 q 238 1005 256 1006 q 203 1006 221 1004 q 175 981 178 1008 q 174 944 174 963 q 171 908 174 926 q 163 756 160 832 q 164 603 167 681 q 163 483 161 543 q 158 363 164 424 q 151 258 156 311 q 156 153 146 206 q 169 47 165 100 q 164 -58 174 -6 q 179 -81 161 -81 q 231 -83 206 -82 q 281 -78 256 -83 q 315 -43 310 -72 q 328 2 322 -19 q 340 47 335 24 q 361 150 351 99 q 363 254 371 201 q 362 292 360 274 q 367 329 364 311 q 382 347 368 343 q 457 335 422 356 q 504 272 492 314 q 507 261 506 267 q 510 250 508 256 q 515 234 513 243 q 526 225 517 225 q 540 231 535 225 q 550 243 546 236 q 559 258 556 250 q 565 275 563 267 q 581 310 572 293 q 601 343 590 328 q 617 360 608 351 q 639 367 626 369 q 652 353 650 364 q 657 332 654 342 q 660 317 660 325 q 660 300 660 308 q 660 182 660 240 q 667 65 661 124 q 688 8 671 26 q 742 -14 706 -10 q 772 -16 757 -15 q 801 -17 788 -17 m 131 247 q 136 326 133 268 q 142 461 139 383 q 147 623 144 539 q 149 781 149 707 q 150 903 150 854 q 147 957 150 951 q 132 807 133 882 q 132 658 131 732 q 138 508 135 583 q 129 357 140 432 q 131 247 121 304 m 1103 51 q 1117 113 1117 85 q 1117 203 1119 157 q 1110 293 1114 249 q 1090 423 1104 358 q 1076 554 1076 488 q 1074 576 1076 565 q 1071 597 1072 586 q 1070 552 1069 592 q 1074 453 1071 513 q 1081 329 1076 394 q 1089 204 1085 264 q 1097 103 1093 144 q 1103 51 1101 61 z "},"N":{"ha":1306,"x_min":104,"x_max":1093,"o":"m 618 428 q 628 466 626 447 q 631 504 631 485 q 642 571 632 539 q 661 635 651 603 q 693 791 685 713 q 690 950 701 869 q 690 1015 685 982 q 697 1082 696 1049 q 710 1101 697 1094 q 762 1122 735 1118 q 815 1108 789 1126 q 833 1098 824 1103 q 853 1094 843 1093 q 894 1053 888 1099 q 916 923 906 989 q 936 792 926 857 q 953 658 947 726 q 978 525 960 590 q 995 474 985 499 q 1015 424 1006 449 q 1053 282 1043 356 q 1074 135 1064 208 q 1081 70 1078 103 q 1089 6 1085 38 q 1072 -29 1093 -18 q 890 -79 985 -72 q 738 -91 814 -83 q 585 -82 661 -99 q 557 -79 571 -79 q 528 -81 543 -79 q 501 -56 506 -82 q 495 -24 499 -40 q 490 10 492 -7 q 467 144 485 79 q 432 274 450 210 q 392 410 414 343 q 338 536 371 476 q 329 556 333 546 q 313 561 325 565 q 301 546 303 557 q 301 524 300 535 q 303 457 301 490 q 306 392 304 424 q 306 303 308 347 q 299 215 303 260 q 301 100 293 157 q 315 -14 310 43 q 317 -31 317 -22 q 318 -47 318 -39 q 292 -93 321 -85 q 244 -101 268 -99 q 196 -107 219 -104 q 135 -82 153 -111 q 117 -11 118 -53 q 113 151 117 71 q 108 336 107 244 q 106 519 110 428 q 109 617 104 568 q 118 714 114 667 q 132 841 125 778 q 144 967 139 904 q 157 1022 147 996 q 167 1078 167 1049 q 172 1090 167 1086 q 183 1094 178 1093 q 226 1103 204 1101 q 268 1108 247 1106 q 293 1078 296 1111 q 301 1037 292 1054 q 325 1007 310 1019 q 347 985 338 997 q 363 957 356 972 q 406 878 383 917 q 453 804 429 840 q 490 742 472 774 q 519 674 507 710 q 560 567 539 619 q 600 460 581 514 q 608 445 603 453 q 618 428 613 438 m 804 972 q 837 976 832 971 q 838 1007 842 982 q 835 1026 836 1017 q 832 1046 833 1036 q 790 1103 826 1090 q 726 1089 754 1117 q 713 1056 714 1075 q 711 1017 713 1036 q 725 997 711 1003 q 768 984 747 990 q 804 972 789 978 m 256 1090 q 238 1088 246 1089 q 224 1086 231 1086 q 181 1035 183 1086 q 197 1015 179 1011 q 228 1022 213 1018 q 258 1026 243 1025 q 273 1030 265 1028 q 276 1046 281 1032 q 274 1065 274 1054 q 272 1083 275 1075 q 256 1090 269 1092 m 810 307 q 816 138 813 224 q 822 -32 819 53 q 825 -44 824 -37 q 832 -51 826 -50 q 856 -58 844 -53 q 879 -62 867 -64 q 948 -50 914 -56 q 1014 -33 982 -44 q 1058 -1 1046 -22 q 1064 60 1069 21 q 1053 149 1058 104 q 1042 236 1047 193 q 1021 346 1036 293 q 986 450 1006 399 q 956 550 968 499 q 936 654 943 601 q 907 856 926 757 q 875 1056 888 954 q 868 1074 874 1067 q 853 1076 863 1081 q 845 1065 843 1074 q 849 1049 847 1056 q 860 995 854 1022 q 847 940 867 968 q 846 933 846 938 q 846 925 846 929 q 836 731 844 828 q 826 535 828 633 q 823 422 826 479 q 810 307 819 365 m 817 650 q 823 780 819 715 q 828 908 826 844 q 822 945 829 936 q 793 958 815 954 q 773 964 783 961 q 753 969 763 967 q 718 970 726 978 q 713 929 710 963 q 683 642 729 782 q 658 556 669 599 q 647 465 646 513 q 644 433 647 450 q 639 401 642 417 q 635 385 638 393 q 625 375 633 376 q 614 382 617 374 q 608 396 611 390 q 582 467 594 432 q 556 536 569 501 q 489 663 531 603 q 417 758 454 711 q 352 857 381 804 q 311 976 324 910 q 308 985 311 979 q 269 1010 299 1014 q 230 1003 250 1007 q 189 997 210 1000 q 172 971 169 996 q 170 845 178 907 q 157 721 163 783 q 149 555 151 638 q 147 390 146 472 q 152 240 150 315 q 158 90 154 165 q 154 17 160 53 q 150 -54 149 -18 q 151 -73 150 -64 q 163 -87 153 -82 q 233 -86 200 -108 q 271 -14 265 -64 q 276 56 275 21 q 278 126 276 92 q 288 274 279 200 q 290 421 296 347 q 285 477 289 449 q 285 535 281 506 q 288 563 288 547 q 301 582 288 578 q 328 577 317 586 q 347 554 339 568 q 352 546 350 550 q 356 538 354 542 q 424 354 400 451 q 475 163 447 257 q 497 63 490 114 q 511 -39 503 11 q 521 -62 514 -54 q 543 -68 528 -69 q 598 -67 571 -65 q 651 -74 625 -69 q 782 -71 714 -83 q 806 -37 807 -64 q 804 25 804 -7 q 803 88 804 57 q 797 213 801 150 q 799 338 793 275 q 804 406 801 372 q 808 474 807 440 q 813 563 811 518 q 817 650 815 607 m 490 686 q 494 689 493 688 q 496 692 494 690 q 428 819 469 761 q 349 939 386 878 q 358 888 351 913 q 378 843 364 864 q 408 801 393 822 q 436 761 422 781 q 463 724 450 743 q 490 686 476 706 z "},"O":{"ha":1222,"x_min":114,"x_max":947,"o":"m 129 456 q 139 598 114 533 q 199 725 164 663 q 268 837 231 783 q 342 946 306 890 q 482 1074 399 1032 q 672 1103 565 1115 q 722 1098 697 1101 q 772 1092 747 1094 q 865 1054 829 1086 q 917 967 900 1022 q 937 860 932 914 q 943 753 942 807 q 947 580 946 667 q 928 408 947 493 q 881 258 910 332 q 794 124 851 185 q 778 107 786 115 q 758 94 769 99 q 669 37 707 75 q 596 -42 631 -1 q 497 -108 553 -93 q 378 -114 442 -122 q 313 -83 338 -108 q 268 -28 289 -57 q 192 111 221 38 q 163 269 164 185 q 144 363 161 318 q 129 456 128 408 m 346 935 q 380 940 367 935 q 404 950 393 946 q 586 918 522 994 q 647 792 628 864 q 667 675 663 735 q 692 558 672 615 q 699 528 696 544 q 700 494 703 511 q 696 391 694 443 q 713 289 697 339 q 717 210 725 249 q 697 133 710 171 q 688 108 693 121 q 686 79 682 96 q 737 100 714 88 q 778 132 760 113 q 866 269 835 193 q 911 424 897 344 q 931 665 933 543 q 911 908 928 788 q 897 976 907 943 q 865 1035 888 1010 q 800 1069 842 1061 q 667 1090 735 1085 q 532 1079 600 1094 q 429 1026 472 1065 q 346 935 386 986 m 657 599 q 655 640 656 619 q 650 681 654 661 q 628 782 639 732 q 590 879 617 832 q 532 937 567 921 q 460 949 497 953 q 388 928 422 946 q 329 886 353 911 q 395 913 364 897 q 461 929 426 928 q 545 908 507 933 q 593 840 583 882 q 608 768 600 804 q 624 696 615 732 q 635 646 631 671 q 657 599 640 621 m 683 397 q 680 440 682 419 q 672 483 678 461 q 641 585 661 536 q 610 686 621 635 q 592 764 601 726 q 572 840 583 801 q 538 893 564 871 q 483 915 513 915 q 378 893 428 914 q 288 831 328 872 q 235 758 256 799 q 190 679 214 718 q 140 524 146 603 q 161 364 135 446 q 244 153 196 256 q 335 -54 292 50 q 342 -65 338 -60 q 351 -71 346 -69 q 477 -71 415 -85 q 578 4 539 -57 q 665 192 635 94 q 683 397 694 289 m 547 329 q 549 259 554 296 q 531 185 543 222 q 482 123 519 146 q 394 97 444 100 q 333 116 356 96 q 297 169 311 136 q 265 256 281 213 q 254 344 249 299 q 267 439 261 392 q 286 532 272 486 q 315 601 299 568 q 363 660 332 635 q 443 676 401 692 q 473 652 464 669 q 483 614 482 635 q 499 529 486 571 q 525 446 511 488 q 540 392 533 419 q 547 329 547 364 m 531 335 q 527 372 529 354 q 519 408 525 390 q 488 510 503 460 q 464 614 472 561 q 431 666 458 658 q 368 644 403 674 q 307 547 321 603 q 282 435 293 492 q 273 372 276 404 q 274 307 269 339 q 292 232 279 268 q 324 161 306 196 q 343 133 331 144 q 374 117 356 121 q 460 131 417 107 q 517 199 503 156 q 533 266 528 232 q 531 335 538 300 m 615 21 q 674 126 656 69 q 697 243 692 182 q 661 131 683 185 q 615 21 639 76 m 231 76 q 222 153 233 119 q 188 222 210 188 q 196 145 188 181 q 231 76 204 110 m 306 -40 q 288 10 300 -12 q 261 56 276 33 q 276 4 268 29 q 306 -40 283 -21 z "},"P":{"ha":1083,"x_min":132,"x_max":856,"o":"m 281 1021 q 351 1042 313 1028 q 426 1074 389 1056 q 549 1105 489 1104 q 669 1094 610 1106 q 796 1030 757 1078 q 844 913 835 982 q 844 771 856 842 q 792 626 832 700 q 733 547 768 583 q 653 479 697 511 q 633 461 640 471 q 622 440 626 451 q 501 325 592 360 q 478 310 483 319 q 469 288 472 300 q 462 194 460 240 q 464 100 464 147 q 462 45 464 72 q 440 -10 460 18 q 393 -47 422 -36 q 336 -44 364 -57 q 319 -44 325 -40 q 308 -53 314 -47 q 264 -87 289 -74 q 211 -114 239 -101 q 133 -81 133 -149 q 132 -22 132 -51 q 138 35 132 7 q 149 156 149 96 q 157 276 150 217 q 166 457 168 367 q 167 636 164 547 q 169 767 169 701 q 169 897 169 833 q 281 1021 171 989 m 785 663 q 799 675 796 669 q 804 686 803 681 q 833 813 832 750 q 822 935 835 875 q 741 1055 807 1013 q 576 1097 675 1097 q 567 1097 571 1097 q 560 1089 563 1096 q 573 1085 567 1088 q 586 1082 579 1083 q 775 987 715 1065 q 815 801 835 908 q 801 733 810 767 q 785 663 792 699 m 783 935 q 716 1022 768 988 q 586 1071 664 1056 q 514 1079 551 1078 q 439 1065 476 1081 q 358 1034 399 1050 q 274 1008 317 1018 q 214 969 233 1000 q 226 953 199 947 q 350 972 289 971 q 471 969 411 972 q 574 953 528 968 q 646 897 619 939 q 681 790 676 846 q 674 674 685 735 q 661 599 667 636 q 650 524 656 561 q 647 510 649 518 q 661 506 644 503 q 692 525 671 508 q 733 561 714 542 q 751 589 751 581 q 765 659 754 625 q 782 728 776 693 q 799 827 792 776 q 783 935 807 878 m 647 843 q 615 909 638 879 q 542 946 592 939 q 388 959 465 957 q 226 942 310 961 q 195 926 204 936 q 186 901 186 917 q 185 760 186 831 q 186 619 185 689 q 177 365 190 493 q 161 110 164 238 q 156 15 160 63 q 153 -81 153 -32 q 155 -100 153 -90 q 176 -108 157 -110 q 228 -91 199 -107 q 283 -53 258 -75 q 314 -11 308 -31 q 326 64 328 26 q 321 139 324 101 q 316 204 319 171 q 315 271 313 238 q 326 299 318 289 q 361 311 335 310 q 482 335 421 315 q 611 449 581 368 q 642 574 633 511 q 660 699 650 636 q 666 772 667 735 q 647 843 665 808 m 449 503 q 315 490 389 486 q 285 508 290 492 q 282 539 281 524 q 302 661 289 600 q 331 782 315 722 q 354 809 336 800 q 390 824 372 818 q 463 836 426 835 q 532 832 499 838 q 569 813 557 829 q 582 778 581 797 q 576 671 588 725 q 533 564 565 617 q 501 529 522 544 q 449 503 481 514 m 501 554 q 519 567 514 560 q 528 582 525 575 q 544 623 536 603 q 557 663 551 643 q 567 716 564 690 q 568 768 571 742 q 545 809 565 796 q 500 817 525 822 q 531 783 525 803 q 535 740 538 763 q 535 694 533 717 q 527 625 538 660 q 501 554 517 590 m 510 775 q 490 797 506 792 q 454 801 474 803 q 424 793 436 800 q 417 767 411 786 q 419 741 419 754 q 419 714 418 728 q 419 674 419 694 q 421 635 419 654 q 426 621 421 625 q 446 626 432 617 q 510 775 539 692 m 511 671 q 496 656 501 661 q 485 646 490 650 q 456 615 471 632 q 417 606 440 599 q 397 630 394 611 q 401 665 400 649 q 401 724 404 694 q 394 781 399 753 q 391 795 393 788 q 378 801 389 803 q 362 793 368 800 q 351 779 356 786 q 343 756 346 769 q 332 702 338 729 q 318 647 326 675 q 315 607 313 626 q 319 568 317 588 q 379 531 328 526 q 413 535 396 533 q 446 539 429 538 q 481 563 472 543 q 502 614 492 588 q 511 671 513 640 m 411 515 q 349 518 376 514 q 301 539 322 522 q 328 503 304 508 q 411 515 353 499 m 344 -10 q 351 -28 347 -19 q 369 -36 356 -36 q 422 -11 404 -36 q 441 19 433 3 q 449 51 449 35 q 447 153 447 103 q 447 256 447 204 q 444 292 447 282 q 428 302 442 301 q 383 299 415 303 q 341 288 349 294 q 333 251 333 281 q 338 169 336 210 q 343 86 340 128 q 340 37 346 63 q 344 -10 335 11 z "},"Q":{"ha":1222,"x_min":83,"x_max":1035,"o":"m 944 846 q 942 779 943 810 q 939 721 940 749 q 953 551 933 635 q 1001 383 974 467 q 1015 341 1008 363 q 1026 297 1021 319 q 1026 256 1035 269 q 982 229 1018 242 q 923 208 953 218 q 861 190 893 197 q 835 176 838 185 q 843 154 833 168 q 897 85 871 119 q 928 8 922 50 q 928 -51 933 -22 q 882 -101 922 -79 q 813 -118 847 -119 q 753 -93 779 -117 q 701 -55 729 -71 q 635 -32 674 -39 q 573 6 596 -24 q 556 65 550 35 q 558 77 556 71 q 561 89 560 83 q 563 110 567 104 q 532 108 560 115 q 438 88 485 97 q 339 75 390 78 q 276 81 303 72 q 225 106 249 89 q 160 164 186 132 q 125 235 135 196 q 115 276 121 256 q 103 317 110 297 q 95 433 83 376 q 135 546 107 490 q 186 642 160 594 q 235 740 213 690 q 300 862 261 803 q 376 981 339 921 q 415 997 390 1001 q 481 1010 457 994 q 525 1047 506 1025 q 631 1113 563 1093 q 768 1118 699 1133 q 824 1096 803 1111 q 856 1069 840 1082 q 890 1042 872 1056 q 916 1011 908 1028 q 925 975 924 994 q 936 907 932 940 q 944 846 940 874 m 797 203 q 889 217 850 200 q 968 244 928 235 q 1006 297 1017 256 q 991 344 999 321 q 976 389 983 367 q 933 544 954 467 q 914 701 913 621 q 919 795 915 749 q 918 889 924 842 q 910 958 915 924 q 885 1023 904 993 q 819 1075 867 1053 q 817 1078 818 1076 q 813 1081 815 1079 q 719 1110 776 1113 q 621 1091 664 1110 q 549 1039 578 1072 q 505 999 529 1015 q 436 986 481 983 q 410 981 421 988 q 390 964 399 975 q 350 901 367 933 q 311 836 333 868 q 259 741 279 790 q 211 643 239 692 q 171 568 190 606 q 133 492 151 531 q 115 367 103 429 q 144 243 126 306 q 172 184 154 213 q 221 132 190 156 q 287 97 251 107 q 369 93 322 86 q 453 110 413 100 q 536 129 494 119 q 633 108 596 146 q 651 88 643 99 q 665 65 658 76 q 706 -3 689 32 q 756 -68 724 -37 q 787 -92 771 -82 q 831 -100 803 -103 q 881 -78 857 -96 q 907 -42 906 -60 q 899 38 910 -1 q 856 108 888 78 q 804 175 824 139 q 786 183 801 181 q 726 205 751 190 q 689 246 700 219 q 671 284 681 265 q 653 322 661 303 q 621 358 643 344 q 593 367 607 367 q 568 353 579 367 q 542 323 554 339 q 524 288 529 307 q 507 242 517 265 q 481 197 497 218 q 438 168 463 175 q 379 171 414 161 q 282 225 315 189 q 239 308 249 261 q 231 414 228 361 q 238 519 235 467 q 243 578 239 549 q 251 636 247 607 q 290 740 260 690 q 347 842 321 790 q 390 882 361 868 q 460 897 419 896 q 522 886 497 899 q 564 850 546 874 q 581 819 575 836 q 590 786 588 803 q 603 763 593 772 q 636 756 614 754 q 689 746 668 757 q 726 719 710 735 q 754 692 742 706 q 778 663 767 678 q 860 513 835 590 q 872 351 886 435 q 797 203 860 274 m 644 738 q 583 755 597 736 q 565 799 569 774 q 560 821 563 813 q 543 848 553 835 q 518 871 533 861 q 483 876 501 882 q 474 868 474 874 q 475 856 475 863 q 479 793 479 825 q 486 772 479 779 q 515 765 493 764 q 537 760 528 765 q 553 749 546 756 q 644 738 589 719 m 844 451 q 742 406 796 404 q 647 454 688 407 q 638 466 642 460 q 629 478 633 472 q 606 505 613 504 q 571 485 599 506 q 485 461 531 454 q 421 507 440 468 q 407 550 411 528 q 401 594 403 572 q 409 708 399 651 q 426 821 419 765 q 433 850 429 833 q 417 869 436 867 q 381 858 394 872 q 361 828 368 843 q 332 773 349 800 q 304 718 315 746 q 265 599 278 658 q 276 476 253 539 q 288 449 282 463 q 300 419 294 435 q 335 317 318 368 q 369 215 351 267 q 382 194 374 204 q 410 183 390 185 q 443 191 431 182 q 464 211 456 200 q 488 251 479 231 q 501 292 496 271 q 540 356 513 328 q 651 360 592 410 q 668 342 663 351 q 678 322 674 333 q 696 278 686 300 q 721 236 706 256 q 759 213 738 213 q 797 236 781 213 q 853 371 844 300 q 855 410 856 390 q 844 451 854 429 m 453 811 q 425 665 436 739 q 443 518 414 592 q 449 665 439 592 q 453 811 458 739 m 468 586 q 471 545 469 565 q 475 504 472 525 q 496 478 479 483 q 538 486 513 474 q 553 494 546 489 q 565 504 560 500 q 608 522 590 524 q 640 497 625 521 q 668 460 654 479 q 707 431 682 442 q 806 443 767 401 q 829 515 838 479 q 787 615 818 568 q 715 704 756 661 q 661 718 696 726 q 599 713 629 711 q 543 733 568 714 q 524 745 533 740 q 499 747 514 750 q 479 734 482 743 q 476 715 476 725 q 469 651 474 683 q 468 586 465 618 m 342 208 q 306 329 324 269 q 261 447 288 389 q 266 299 251 357 q 342 208 281 240 m 576 63 q 660 -19 576 -7 q 673 -23 667 -21 q 683 -19 679 -25 q 682 -4 688 -17 q 660 33 671 14 q 638 71 650 53 q 621 96 629 82 q 596 107 613 110 q 579 89 579 104 q 576 63 579 74 z "},"R":{"ha":1139,"x_min":118,"x_max":964,"o":"m 746 632 q 757 622 749 622 q 808 594 789 617 q 840 543 826 572 q 858 514 850 525 q 873 494 865 504 q 888 472 881 483 q 909 399 911 436 q 888 326 907 363 q 819 232 861 276 q 815 229 817 229 q 750 167 774 207 q 696 92 726 126 q 606 53 657 47 q 594 57 596 53 q 563 99 583 83 q 528 138 542 115 q 476 230 499 182 q 431 326 453 278 q 426 339 428 333 q 418 349 424 344 q 413 338 413 344 q 411 325 413 332 q 409 219 410 272 q 410 113 408 165 q 409 25 411 69 q 385 -61 407 -19 q 346 -99 368 -92 q 302 -107 324 -107 q 257 -104 281 -107 q 226 -82 236 -100 q 174 36 194 -25 q 156 165 153 97 q 151 226 157 197 q 139 285 146 256 q 119 430 119 357 q 125 575 118 503 q 129 690 132 632 q 129 747 128 718 q 140 801 131 775 q 154 860 151 831 q 157 921 157 890 q 161 985 157 954 q 236 1081 171 1056 q 323 1103 279 1097 q 411 1111 367 1108 q 498 1110 456 1114 q 583 1096 540 1107 q 606 1096 594 1093 q 628 1104 618 1099 q 681 1114 656 1118 q 735 1109 708 1108 q 788 1110 761 1110 q 911 1053 861 1107 q 963 919 961 1000 q 960 844 964 882 q 942 771 956 807 q 833 658 911 688 q 790 645 811 651 q 746 632 768 639 m 401 438 q 404 454 404 447 q 403 467 404 461 q 399 483 401 474 q 403 496 396 493 q 416 492 411 500 q 426 476 421 483 q 427 474 426 475 q 428 472 428 474 q 604 90 528 288 q 626 83 613 69 q 667 125 647 104 q 704 171 688 146 q 700 242 729 206 q 689 256 694 249 q 678 272 683 264 q 610 385 642 326 q 549 501 579 443 q 536 526 542 514 q 525 553 531 539 q 520 605 515 585 q 549 647 525 625 q 567 661 557 654 q 581 678 576 668 q 601 701 589 694 q 626 708 613 707 q 670 714 649 713 q 714 715 692 715 q 807 733 764 713 q 836 781 836 749 q 824 860 836 824 q 789 931 813 897 q 770 947 782 942 q 744 951 758 951 q 703 949 724 953 q 664 938 683 944 q 601 923 633 929 q 540 897 569 917 q 480 872 513 879 q 415 861 447 865 q 392 863 404 860 q 369 868 381 865 q 358 889 354 875 q 390 992 369 943 q 451 1079 411 1040 q 460 1088 456 1083 q 465 1101 465 1093 q 438 1101 451 1101 q 410 1100 424 1101 q 321 1092 365 1099 q 232 1068 276 1086 q 217 1042 215 1061 q 217 963 219 1003 q 203 886 214 924 q 194 845 197 865 q 190 804 190 825 q 176 580 190 692 q 161 354 161 468 q 164 250 161 303 q 183 146 167 197 q 205 65 194 107 q 221 -17 215 24 q 282 -71 226 -69 q 340 -22 329 -74 q 352 83 351 31 q 350 189 353 136 q 340 266 349 229 q 329 342 332 303 q 323 405 326 374 q 326 468 319 436 q 331 485 329 475 q 343 496 333 494 q 376 478 363 500 q 389 458 383 468 q 401 438 394 449 m 674 638 q 786 657 728 639 q 831 680 811 664 q 865 718 851 696 q 917 869 906 783 q 912 919 919 897 q 889 961 904 942 q 794 1056 846 1013 q 738 1089 768 1078 q 671 1085 707 1100 q 619 1076 646 1075 q 567 1088 593 1078 q 538 1094 553 1092 q 508 1100 524 1097 q 482 1092 492 1101 q 413 1007 439 1056 q 376 901 388 958 q 378 889 375 890 q 390 890 382 888 q 413 897 401 894 q 436 901 425 900 q 513 912 475 906 q 588 929 550 918 q 666 951 626 942 q 747 964 706 960 q 822 947 789 968 q 869 888 854 925 q 876 806 885 851 q 832 735 868 758 q 776 710 806 717 q 717 704 747 703 q 621 696 667 704 q 606 691 613 694 q 599 676 600 688 q 617 650 599 657 q 645 642 631 644 q 674 638 660 639 m 751 1096 q 820 1049 792 1078 q 878 992 849 1021 q 919 935 903 965 q 929 863 936 904 q 913 786 924 824 q 879 715 901 749 q 875 708 878 711 q 874 697 872 704 q 901 723 889 710 q 921 754 913 736 q 947 847 942 799 q 947 944 953 896 q 913 1031 942 993 q 842 1087 885 1068 q 751 1096 799 1106 m 147 308 q 149 322 149 317 q 149 331 149 326 q 152 419 151 375 q 156 506 153 463 q 167 622 161 564 q 174 738 174 679 q 178 817 174 778 q 192 896 182 857 q 201 960 199 928 q 201 1024 203 992 q 201 1031 201 1026 q 197 1036 201 1035 q 191 1034 193 1038 q 186 1028 189 1031 q 174 992 176 1014 q 170 940 172 965 q 169 889 168 915 q 157 819 169 853 q 145 774 150 797 q 142 728 140 751 q 143 664 143 696 q 138 600 143 632 q 130 490 129 544 q 132 381 131 435 q 136 345 133 363 q 147 308 139 328 m 796 943 q 835 865 821 906 q 851 779 850 825 q 865 841 868 806 q 845 906 863 876 q 796 943 828 935 m 568 750 q 566 738 567 746 q 563 722 565 729 q 535 669 549 696 q 503 618 522 642 q 447 599 481 590 q 428 604 438 601 q 410 608 419 607 q 377 627 388 613 q 364 664 367 642 q 360 717 360 692 q 364 769 361 743 q 366 796 367 783 q 360 821 365 808 q 357 833 357 828 q 371 836 357 838 q 401 840 386 835 q 429 846 415 844 q 536 819 486 854 q 560 792 551 808 q 568 750 569 775 m 451 838 q 434 835 443 836 q 417 833 425 835 q 406 821 401 831 q 417 784 411 803 q 433 750 422 765 q 453 746 440 743 q 492 756 472 751 q 531 765 513 760 q 538 803 561 776 q 497 827 519 821 q 451 838 475 833 m 381 647 q 400 692 392 671 q 417 732 408 713 q 419 742 418 738 q 417 750 419 746 q 403 783 410 767 q 390 814 397 799 q 388 820 389 817 q 381 821 386 824 q 378 810 375 819 q 378 771 381 790 q 374 732 375 751 q 374 692 372 713 q 381 647 375 671 m 400 646 q 417 618 399 624 q 446 610 432 617 q 492 625 474 600 q 521 673 508 649 q 547 721 533 697 q 551 738 551 729 q 535 756 556 761 q 489 743 513 750 q 442 733 465 736 q 426 722 431 731 q 412 685 418 704 q 400 646 406 665 m 771 224 q 788 226 781 222 q 800 235 794 229 q 846 285 825 258 q 881 342 867 311 q 897 399 894 369 q 882 457 899 428 q 858 491 871 475 q 831 519 846 507 q 763 572 797 547 q 692 618 728 597 q 677 625 685 622 q 661 628 669 628 q 623 633 642 628 q 588 651 604 638 q 573 651 578 660 q 561 638 568 643 q 560 618 550 631 q 613 538 592 582 q 651 449 633 493 q 696 348 672 397 q 740 247 719 299 q 753 230 744 235 q 771 224 761 225 m 724 236 l 724 246 q 663 390 693 318 q 600 535 632 463 q 580 570 592 554 q 557 603 568 586 q 551 610 554 606 q 542 611 547 614 q 536 604 536 610 q 535 594 536 599 q 537 567 535 581 q 544 540 539 554 q 597 431 568 485 q 657 326 626 378 q 687 281 672 304 q 724 236 701 257 m 238 -75 q 240 -80 240 -78 q 242 -83 240 -82 q 247 -86 244 -85 q 250 -89 249 -87 q 303 -94 278 -94 q 354 -78 329 -93 q 368 -62 361 -75 q 385 -25 378 -44 q 394 15 393 -6 q 397 113 397 64 q 396 208 397 161 q 395 282 394 244 q 401 354 396 319 q 393 423 408 394 q 358 479 378 451 q 347 485 353 488 q 339 472 342 483 q 335 451 338 463 q 332 429 332 440 q 340 343 335 386 q 353 257 344 300 q 365 118 365 188 q 353 -21 364 49 q 325 -74 347 -58 q 268 -81 303 -89 q 238 -75 253 -78 m 588 92 q 589 104 590 100 q 585 113 588 108 q 538 224 561 168 q 488 333 515 281 q 462 388 474 361 q 435 439 450 414 q 431 446 433 442 q 425 449 428 450 q 419 442 419 447 q 419 433 419 438 q 420 397 418 415 q 429 361 422 379 q 468 274 449 318 q 511 188 488 229 q 544 136 526 161 q 588 92 563 111 m 629 71 q 658 74 646 61 q 710 131 688 100 q 754 196 733 163 q 758 204 757 200 q 754 213 758 208 q 738 210 744 217 q 729 193 732 204 q 715 159 725 174 q 693 131 706 144 q 661 101 678 117 q 629 71 644 86 m 174 138 q 180 63 168 99 q 206 -7 192 26 q 192 65 201 29 q 174 138 182 101 z "},"S":{"ha":1194,"x_min":128,"x_max":1047,"o":"m 128 53 q 140 158 133 106 q 149 263 147 210 q 152 294 150 278 q 154 326 154 310 q 179 417 157 375 q 217 503 201 460 q 221 512 218 508 q 225 519 224 515 q 272 572 244 558 q 342 581 299 586 q 365 557 365 578 q 365 536 365 547 q 363 515 365 525 q 353 382 344 449 q 371 250 363 315 q 395 200 375 213 q 451 193 415 188 q 570 251 524 204 q 618 363 617 299 q 610 418 618 392 q 579 465 603 444 q 564 485 571 475 q 515 535 542 515 q 446 561 488 556 q 354 606 390 568 q 301 692 318 643 q 288 779 285 740 q 292 854 290 817 q 304 928 294 892 q 330 999 314 965 q 367 1064 346 1032 q 417 1099 385 1090 q 463 1113 440 1106 q 510 1124 486 1121 q 621 1093 574 1131 q 673 1039 651 1069 q 711 974 694 1008 q 701 929 724 949 q 663 883 681 907 q 624 836 644 858 q 609 783 603 814 q 642 733 615 753 q 748 656 694 694 q 861 590 801 618 q 911 558 889 578 q 954 517 933 539 q 985 483 969 500 q 1018 450 1000 465 q 1043 404 1039 431 q 1040 351 1047 378 q 960 194 1015 258 q 806 107 904 131 q 765 92 783 101 q 735 58 746 82 q 724 40 732 49 q 710 26 717 32 q 503 -83 613 -49 q 271 -96 394 -118 q 213 -75 240 -89 q 163 -43 186 -61 q 133 1 139 -24 q 128 53 128 26 m 164 232 q 167 198 163 214 q 175 165 172 182 q 190 78 183 122 q 210 -10 196 33 q 238 -57 219 -37 q 286 -82 256 -76 q 397 -87 338 -92 q 495 -69 449 -85 q 586 -32 542 -53 q 666 7 626 -14 q 725 69 706 28 q 759 332 794 211 q 610 546 724 453 q 524 615 567 582 q 444 692 481 649 q 422 762 417 728 q 469 817 428 796 q 481 823 476 819 q 490 832 486 826 q 532 869 507 856 q 583 890 557 882 q 607 899 594 894 q 631 907 619 903 q 664 932 658 918 q 657 971 669 946 q 627 1022 643 997 q 589 1064 611 1046 q 526 1094 563 1086 q 454 1095 489 1101 q 396 1068 419 1089 q 332 973 353 1031 q 312 855 311 915 q 332 747 313 794 q 387 658 353 699 q 468 592 421 618 q 526 549 500 574 q 576 499 551 525 q 622 433 606 468 q 636 353 638 397 q 604 265 636 306 q 525 199 572 224 q 429 175 478 175 q 361 221 376 178 q 349 261 353 243 q 339 345 343 303 q 333 431 335 388 q 331 451 333 442 q 314 460 329 461 q 230 436 271 458 q 179 363 189 414 q 171 297 174 331 q 164 232 168 264 m 517 838 q 599 851 557 832 q 650 899 640 871 q 581 877 617 885 q 517 838 546 869 m 949 490 q 908 538 931 515 q 857 572 886 560 q 738 642 793 600 q 625 724 682 683 q 601 749 610 735 q 589 782 593 764 q 592 807 588 793 q 586 825 597 821 q 563 826 576 831 q 538 819 550 822 q 531 818 535 818 q 513 781 499 813 q 524 763 518 771 q 539 749 529 754 q 593 710 567 731 q 650 675 619 689 q 785 574 729 638 q 863 522 818 535 q 949 490 907 510 m 1026 382 q 1016 424 1026 404 q 989 449 1006 443 q 919 481 954 464 q 849 510 885 497 q 810 528 828 517 q 776 556 792 540 q 724 608 750 582 q 663 649 697 633 q 594 691 626 667 q 525 736 561 715 q 506 755 514 743 q 493 779 499 767 q 488 793 490 786 q 478 801 486 800 q 461 795 468 801 q 450 782 454 789 q 438 748 440 765 q 447 715 435 731 q 503 649 476 683 q 569 593 531 615 q 657 528 619 567 q 724 443 694 489 q 766 363 749 404 q 785 274 783 321 q 782 208 788 240 q 769 143 776 175 q 769 122 765 126 q 792 119 774 117 q 933 191 882 135 q 1015 326 985 247 q 1024 353 1019 339 q 1026 382 1028 368 m 315 732 q 334 665 315 699 q 384 607 353 631 q 450 579 415 583 q 374 649 404 610 q 315 732 343 689 m 314 564 q 261 544 282 564 q 239 493 240 524 q 241 474 239 483 q 257 467 243 465 q 288 472 272 469 q 317 478 303 474 q 340 505 332 482 q 344 547 347 528 q 333 563 343 563 q 314 564 324 564 m 161 128 q 144 52 144 89 q 158 -10 143 15 q 200 -42 174 -36 q 178 42 189 0 q 161 128 168 85 z "},"T":{"ha":1083,"x_min":79,"x_max":879,"o":"m 176 1008 q 217 1067 194 1040 q 254 1128 240 1094 q 273 1149 261 1146 q 307 1144 285 1153 q 476 1076 392 1110 q 644 1003 561 1043 q 688 981 667 993 q 724 946 710 969 q 743 924 731 933 q 765 904 756 915 q 833 804 810 858 q 871 693 856 750 q 846 647 879 660 q 815 637 831 642 q 782 632 799 632 q 750 599 750 631 q 753 557 751 578 q 756 514 754 536 q 762 374 758 444 q 769 232 765 303 q 777 102 772 167 q 792 -28 782 38 q 793 -39 793 -32 q 789 -78 796 -72 q 746 -82 782 -85 q 668 -65 707 -78 q 590 -42 629 -51 q 556 -38 561 -35 q 556 -69 550 -42 q 558 -84 557 -76 q 558 -99 558 -92 q 538 -115 561 -119 q 435 -87 486 -103 q 342 -32 383 -71 q 286 44 303 1 q 271 135 269 88 q 277 278 272 207 q 286 421 282 349 q 288 529 289 475 q 290 639 288 583 q 297 681 292 661 q 308 721 301 701 q 309 744 315 739 q 288 747 303 749 q 203 748 244 744 q 118 757 161 751 q 90 794 79 764 q 124 895 108 844 q 167 993 140 946 q 172 1001 169 997 q 176 1008 175 1004 m 232 1056 q 167 944 189 1006 q 121 822 146 882 q 113 780 107 788 q 160 768 119 772 q 236 765 199 764 q 313 765 274 765 q 332 733 350 765 q 313 679 318 707 q 306 621 307 651 q 302 531 304 576 q 300 440 300 486 q 296 289 300 364 q 292 139 292 214 q 313 35 292 83 q 390 -46 333 -14 q 443 -69 415 -60 q 497 -87 471 -78 q 533 -92 526 -97 q 533 -57 539 -86 q 503 185 510 64 q 497 425 496 306 q 502 530 499 478 q 511 633 506 582 q 517 704 514 669 q 529 774 519 739 q 542 799 533 789 q 567 813 550 808 q 633 853 608 824 q 674 917 657 882 q 684 959 689 949 q 643 985 679 969 q 631 990 638 988 q 618 996 625 993 q 472 1061 546 1032 q 324 1121 397 1090 q 288 1130 294 1132 q 265 1104 281 1128 q 249 1079 257 1092 q 232 1056 240 1067 m 726 919 q 709 926 715 931 q 699 913 703 922 q 662 853 685 879 q 610 806 639 826 q 599 792 600 801 q 590 721 593 757 q 589 649 588 685 q 619 625 592 621 q 717 640 668 632 q 814 657 767 647 q 847 707 857 664 q 829 761 840 739 q 790 847 810 804 q 726 919 769 889 m 565 783 q 547 738 551 763 q 539 689 542 714 q 525 517 531 603 q 518 344 519 431 q 523 183 518 264 q 542 22 528 103 q 549 2 544 11 q 567 -12 553 -7 q 651 -40 608 -26 q 736 -61 693 -54 q 768 -58 761 -64 q 772 -29 775 -53 q 759 93 764 32 q 750 215 754 154 q 740 411 744 314 q 735 606 735 508 q 714 624 735 628 q 688 617 701 621 q 663 611 675 614 q 583 618 607 599 q 565 694 560 638 q 569 739 568 717 q 565 783 569 761 z "},"U":{"ha":1111,"x_min":99,"x_max":947,"o":"m 422 -112 q 363 -98 393 -108 q 303 -65 332 -87 q 237 -12 269 -37 q 181 53 204 14 q 144 138 157 94 q 128 229 131 182 q 128 242 128 236 q 125 254 128 249 q 100 347 99 299 q 106 442 101 394 q 111 544 110 493 q 118 644 113 594 q 137 758 125 701 q 158 869 149 814 q 160 875 158 874 q 199 937 179 907 q 225 1006 219 967 q 251 1034 228 1024 q 303 1047 275 1044 q 346 1038 331 1049 q 369 1004 365 1024 q 365 967 372 985 q 339 834 343 901 q 332 699 335 767 q 324 610 331 654 q 315 522 318 567 q 318 373 310 447 q 346 225 326 299 q 390 190 354 197 q 454 204 426 183 q 519 287 499 240 q 547 388 540 333 q 563 517 556 453 q 571 644 569 581 q 583 788 572 717 q 613 928 594 858 q 633 961 618 951 q 668 975 649 971 q 710 990 704 982 q 711 1035 717 999 q 744 1100 707 1081 q 758 1108 751 1104 q 772 1115 765 1113 q 849 1124 825 1139 q 869 1051 872 1108 q 875 1025 869 1032 q 901 1021 881 1018 q 936 1013 925 1024 q 942 982 947 1001 q 919 792 919 888 q 924 601 918 696 q 919 444 928 522 q 901 289 911 367 q 897 238 899 264 q 888 189 894 213 q 821 121 875 133 q 777 113 799 115 q 733 110 756 110 q 692 78 697 107 q 671 42 688 51 q 620 -3 642 22 q 579 -57 599 -29 q 517 -103 554 -90 q 422 -112 479 -115 m 849 1050 q 834 1110 851 1099 q 774 1100 817 1121 q 765 1094 768 1097 q 738 1011 719 1068 q 765 991 747 985 q 796 999 782 997 q 840 1011 832 1003 q 849 1050 847 1019 m 233 965 q 235 946 232 950 q 253 940 239 942 q 320 947 294 936 q 347 979 346 957 q 311 1031 351 1026 q 233 965 240 1038 m 704 175 q 708 131 701 139 q 750 126 715 124 q 781 131 765 129 q 811 136 796 133 q 871 197 858 146 q 885 289 881 243 q 894 382 889 335 q 906 497 901 439 q 907 613 910 556 q 901 792 901 703 q 919 971 901 882 q 883 1004 928 1017 q 853 994 868 999 q 821 986 838 989 q 804 972 808 983 q 741 817 769 896 q 722 650 713 739 q 727 581 725 615 q 726 510 729 546 q 718 341 721 425 q 704 175 715 257 m 146 286 q 178 103 135 176 q 310 -19 222 29 q 392 -41 350 -42 q 476 -39 433 -40 q 556 -12 518 -36 q 620 50 593 13 q 654 126 647 88 q 663 208 661 167 q 664 289 665 249 q 670 465 664 378 q 682 640 676 553 q 683 649 682 644 q 685 657 683 653 q 720 807 700 733 q 774 950 740 881 q 754 978 792 983 q 710 969 732 974 q 667 961 689 965 q 633 931 642 957 q 601 799 614 865 q 588 664 588 732 q 578 511 586 588 q 561 358 569 435 q 465 189 549 251 q 413 171 442 172 q 360 183 383 169 q 329 222 336 197 q 299 377 308 299 q 299 533 289 456 q 312 701 308 617 q 325 868 315 785 q 328 914 329 901 q 313 928 326 926 q 265 928 299 929 q 196 897 218 926 q 169 829 174 868 q 165 751 164 790 q 163 674 165 713 q 158 477 158 575 q 146 286 157 379 m 142 660 q 131 575 131 618 q 129 489 131 532 q 120 406 128 447 q 125 321 113 364 q 138 490 139 406 q 142 660 136 575 m 701 582 q 687 392 689 488 q 686 201 685 297 q 699 391 690 296 q 701 582 708 486 m 578 -22 q 510 -48 543 -40 q 442 -58 476 -56 q 377 -57 410 -60 q 308 -42 344 -54 q 403 -91 350 -81 q 505 -84 457 -101 q 578 -22 553 -67 z "},"V":{"ha":1111,"x_min":60,"x_max":989,"o":"m 64 856 q 73 908 68 882 q 82 961 78 935 q 109 1035 89 1013 q 178 1063 129 1057 q 233 1066 206 1065 q 288 1074 261 1067 q 313 1070 301 1076 q 335 1057 325 1064 q 406 1017 371 1038 q 479 981 442 997 q 505 976 497 972 q 511 1003 513 981 q 512 1053 510 1038 q 527 1076 514 1069 q 571 1092 540 1083 q 643 1108 607 1101 q 715 1119 679 1114 q 757 1121 736 1122 q 794 1100 778 1119 q 810 1094 801 1090 q 828 1101 819 1099 q 870 1103 856 1113 q 890 1063 885 1094 q 897 979 899 1022 q 907 896 894 936 q 947 715 936 807 q 961 530 957 622 q 974 344 965 438 q 976 283 976 314 q 983 221 976 251 q 976 185 989 197 q 949 167 964 174 q 814 103 882 133 q 674 53 746 72 q 594 30 635 42 q 513 15 554 18 q 490 3 496 13 q 437 -57 469 -37 q 367 -85 404 -76 q 294 -106 331 -94 q 255 -112 275 -111 q 214 -112 235 -114 q 182 -74 183 -108 q 169 222 181 75 q 140 515 158 368 q 125 586 136 551 q 101 654 114 621 q 72 753 83 703 q 64 856 60 803 m 531 906 q 527 861 529 881 q 522 822 525 842 q 525 804 521 811 q 543 799 529 797 q 653 816 599 806 q 761 847 708 826 q 793 867 779 854 q 808 903 807 879 q 804 998 811 951 q 772 1088 797 1044 q 760 1102 767 1096 q 743 1106 754 1108 q 650 1093 696 1100 q 560 1069 604 1086 q 533 1021 526 1060 q 538 960 538 990 q 531 906 538 929 m 963 221 q 956 275 957 247 q 953 332 954 303 q 940 520 947 426 q 926 707 933 614 q 908 822 922 765 q 881 936 893 879 q 868 1053 868 993 q 864 1079 868 1067 q 840 1086 860 1092 q 817 1042 808 1081 q 827 981 824 1011 q 832 918 831 950 q 823 872 832 892 q 790 842 814 851 q 755 810 763 831 q 749 760 747 789 q 704 576 756 660 q 685 536 693 558 q 671 493 678 514 q 627 349 646 422 q 585 205 608 276 q 524 68 563 133 q 517 56 521 63 q 518 43 514 50 q 529 38 522 36 q 542 42 536 40 q 743 99 644 61 q 936 183 842 136 q 954 197 946 189 q 963 221 963 204 m 94 917 q 93 853 90 872 q 113 835 96 835 q 171 846 131 835 q 189 851 181 849 q 207 857 197 854 q 224 864 215 860 q 235 879 232 868 q 251 947 246 913 q 251 1018 256 982 q 247 1034 250 1026 q 235 1046 244 1042 q 184 1049 213 1057 q 133 1022 156 1042 q 104 974 110 1001 q 99 946 101 960 q 94 917 97 932 m 499 825 q 503 874 501 853 q 507 915 506 896 q 488 956 511 946 q 403 998 444 975 q 319 1043 361 1021 q 287 1049 296 1056 q 275 1014 278 1042 q 268 931 272 972 q 247 849 264 889 q 249 818 242 835 q 281 691 265 754 q 304 563 297 628 q 319 501 307 531 q 344 442 332 471 q 351 427 347 435 q 363 419 354 419 q 378 427 374 419 q 385 443 382 435 q 405 499 396 471 q 424 554 414 526 q 474 690 450 624 q 499 825 497 757 m 725 733 q 726 748 725 738 q 728 769 726 758 q 723 805 733 797 q 689 807 713 813 q 633 794 661 800 q 576 786 604 789 q 528 768 544 785 q 506 718 513 751 q 455 570 488 642 q 399 425 422 499 q 388 404 394 414 q 363 389 375 390 q 340 407 350 388 q 299 501 319 454 q 276 601 279 549 q 257 705 274 656 q 229 806 240 754 q 186 833 222 844 q 151 824 168 828 q 114 818 133 821 q 89 782 82 814 q 100 724 96 753 q 117 668 104 694 q 158 541 146 607 q 174 408 169 475 q 186 274 179 340 q 199 108 197 192 q 203 -58 200 25 q 239 -93 204 -94 q 326 -78 283 -90 q 410 -47 369 -65 q 438 -31 425 -40 q 458 -7 451 -22 q 539 149 499 71 q 599 317 579 228 q 635 458 614 388 q 689 592 657 528 q 715 657 706 624 q 725 733 724 690 z "},"W":{"ha":1250,"x_min":117,"x_max":1100,"o":"m 315 -85 q 268 -15 276 -56 q 258 68 260 25 q 241 272 257 171 q 192 471 225 374 q 180 515 185 493 q 172 558 175 536 q 155 658 164 608 q 133 754 146 707 q 121 844 122 799 q 122 936 119 890 q 123 991 124 964 q 119 1044 122 1018 q 130 1108 117 1092 q 189 1124 143 1124 q 238 1126 214 1125 q 286 1138 263 1128 q 306 1138 297 1142 q 324 1125 315 1133 q 369 1046 356 1089 q 403 939 389 993 q 429 829 418 885 q 432 817 431 824 q 440 807 433 810 q 448 819 447 811 q 450 832 449 826 q 465 888 457 860 q 490 940 474 915 q 507 996 506 967 q 513 1053 508 1025 q 561 1097 518 1096 q 644 1097 603 1100 q 726 1082 686 1093 q 746 1074 738 1079 q 760 1060 754 1069 q 826 1043 785 1024 q 890 1070 858 1058 q 954 1094 922 1082 q 996 1099 985 1106 q 1011 1060 1007 1092 q 1031 914 1022 988 q 1040 767 1039 840 q 1049 720 1040 742 q 1063 676 1057 699 q 1095 492 1090 585 q 1089 304 1100 399 q 1080 229 1086 267 q 1063 156 1074 192 q 1040 114 1054 125 q 992 107 1026 103 q 900 119 946 111 q 874 118 883 122 q 864 94 865 114 q 860 69 864 82 q 853 44 857 56 q 831 7 847 19 q 789 -12 815 -6 q 687 -26 738 -25 q 585 -32 636 -26 q 567 -26 571 -33 q 564 -8 563 -18 q 557 56 567 25 q 540 119 547 88 q 537 133 539 126 q 528 142 535 140 q 515 138 519 144 q 507 125 511 131 q 451 49 476 89 q 393 -25 425 10 q 360 -58 378 -43 q 322 -85 343 -74 l 315 -85 m 381 603 l 390 603 q 414 694 401 649 q 417 788 426 740 q 390 904 404 846 q 354 1019 375 963 q 342 1055 349 1038 q 325 1086 336 1072 q 310 1108 318 1096 q 288 1115 303 1121 q 274 1097 274 1111 q 274 1072 274 1083 q 272 1019 272 1046 q 269 967 272 993 q 272 906 267 936 q 290 849 278 876 q 310 798 301 824 q 329 747 319 772 q 355 675 342 711 q 381 603 368 639 m 250 996 q 248 1039 249 1018 q 246 1082 247 1060 q 245 1094 246 1088 q 239 1103 244 1100 q 201 1110 221 1114 q 161 1103 181 1107 q 142 1089 147 1100 q 138 1065 136 1078 q 139 1009 138 1038 q 142 953 140 981 q 158 933 142 938 q 226 933 204 918 q 250 996 249 949 m 608 871 q 647 869 628 869 q 685 868 667 868 q 726 904 722 868 q 739 1029 735 967 q 714 1063 743 1056 q 574 1076 647 1083 q 531 1036 532 1075 q 524 975 529 1006 q 503 915 518 944 q 500 888 493 899 q 525 875 507 878 q 567 869 546 869 q 608 871 588 869 m 1076 429 q 1068 535 1075 482 q 1049 642 1061 589 q 1032 701 1043 672 q 1018 760 1021 729 q 1006 907 1014 833 q 986 1053 999 981 q 953 1074 982 1085 q 901 1053 926 1064 q 849 1031 875 1042 q 817 1010 818 1018 q 833 974 817 1001 q 913 822 882 901 q 938 650 944 742 q 938 615 936 632 q 940 579 939 597 q 951 396 951 488 q 929 213 950 304 q 920 160 921 176 q 934 140 919 144 q 985 129 949 135 q 1027 133 1015 125 q 1046 171 1039 142 q 1065 299 1063 233 q 1076 429 1067 364 m 286 74 q 323 125 310 100 q 346 176 336 150 q 376 260 361 218 q 413 340 392 301 q 433 364 424 363 q 457 347 443 365 q 503 274 483 313 q 539 196 522 235 q 567 111 557 156 q 586 22 576 67 q 621 -7 593 -3 q 696 -4 658 -10 q 771 4 733 1 q 832 58 824 11 q 856 175 844 117 q 876 292 867 233 q 894 366 883 329 q 900 440 904 403 q 901 537 896 489 q 913 632 907 585 q 890 827 928 739 q 793 997 851 915 q 784 1007 789 1003 q 772 1008 779 1011 q 764 999 765 1006 q 761 986 763 993 q 756 947 758 967 q 750 907 754 926 q 733 862 744 872 q 689 847 722 851 q 669 815 658 843 q 663 717 689 765 q 650 685 654 701 q 642 650 646 668 q 622 584 633 617 q 590 522 611 551 q 542 518 569 494 q 529 533 535 525 q 521 550 524 540 q 492 614 511 585 q 456 674 472 643 q 449 685 453 679 q 436 688 444 690 q 428 680 431 686 q 426 667 426 674 q 419 627 425 646 q 406 589 413 608 q 401 574 404 582 q 386 567 397 567 q 372 574 376 567 q 364 588 368 581 q 361 597 363 592 q 357 608 360 603 q 308 746 331 676 q 256 882 286 815 q 240 903 249 897 q 214 910 231 910 q 160 908 175 911 q 143 888 144 904 q 144 833 142 872 q 167 710 149 769 q 190 588 186 650 q 198 532 193 560 q 213 478 203 504 q 267 253 253 368 q 276 166 272 210 q 286 74 281 122 m 501 858 q 483 856 489 861 q 474 839 476 850 q 465 803 469 821 q 456 767 460 785 q 451 738 453 753 q 457 710 450 724 q 504 631 481 671 q 544 547 528 592 q 561 532 551 531 q 581 547 571 533 q 585 556 583 551 q 589 564 588 560 q 622 663 611 611 q 656 761 633 714 q 656 796 663 776 q 639 831 650 815 q 615 847 628 847 q 558 850 588 850 q 501 858 529 850 m 925 435 q 899 295 919 364 q 881 156 879 226 q 920 292 914 221 q 925 435 926 363 m 289 4 q 290 -3 289 3 q 292 -15 290 -8 q 299 -40 294 -28 q 317 -57 304 -53 q 340 -52 332 -62 q 356 -33 347 -42 q 425 45 394 3 q 489 129 456 88 q 515 166 508 154 q 515 192 521 178 q 493 232 510 206 q 484 249 488 240 q 476 267 481 258 q 467 290 471 278 q 457 311 464 301 q 438 329 446 329 q 419 310 431 329 q 406 283 413 297 q 394 254 400 269 q 353 146 374 200 q 297 43 332 92 q 289 4 288 29 z "},"X":{"ha":1111,"x_min":49,"x_max":963,"o":"m 522 301 q 474 105 499 199 q 415 -78 449 11 q 409 -101 411 -87 q 394 -118 407 -115 q 375 -108 381 -119 q 363 -87 369 -96 q 315 -19 336 -56 q 268 50 294 18 q 229 80 250 74 q 181 79 208 86 q 141 70 161 74 q 101 64 121 67 q 60 76 71 61 q 61 119 49 90 q 122 249 90 185 q 183 379 153 314 q 227 467 203 424 q 281 549 251 510 q 288 601 301 576 q 232 704 257 651 q 163 797 207 757 q 151 819 153 807 q 149 842 149 831 q 144 928 147 886 q 129 1013 140 971 q 133 1028 126 1025 q 144 1036 139 1032 q 288 1083 214 1085 q 426 1028 361 1081 q 481 984 454 1006 q 533 939 508 963 q 568 922 553 919 q 599 943 583 924 q 675 1042 636 993 q 751 1140 714 1090 q 779 1163 767 1160 q 810 1146 792 1167 q 869 1106 835 1119 q 935 1074 904 1093 q 953 1064 943 1068 q 961 1044 963 1060 q 947 920 957 982 q 913 802 938 858 q 838 699 889 746 q 824 688 832 693 q 806 679 815 682 q 761 646 768 669 q 763 590 754 622 q 812 416 786 503 q 856 239 838 329 q 857 231 856 235 q 858 225 858 228 q 871 160 867 182 q 862 124 875 139 q 804 88 849 110 q 770 67 786 79 q 735 47 754 54 q 692 26 714 39 q 646 26 669 13 q 590 69 615 46 q 567 139 564 93 q 522 301 571 217 m 938 996 q 931 1046 944 1028 q 890 1075 918 1064 q 851 1094 871 1083 q 815 1118 832 1104 q 772 1134 789 1142 q 738 1101 754 1126 q 683 1025 711 1063 q 626 951 656 988 q 588 906 601 918 q 558 902 574 894 q 508 933 542 910 q 488 950 499 942 q 467 967 478 958 q 444 986 456 975 q 419 993 432 997 q 405 972 403 989 q 404 943 407 956 q 402 924 403 933 q 399 904 401 914 q 374 821 386 846 q 335 792 363 796 q 249 793 308 789 q 218 788 222 796 q 224 757 214 779 q 264 686 240 719 q 304 615 288 653 q 313 583 311 597 q 303 553 314 568 q 201 376 242 469 q 115 192 161 282 q 92 153 106 174 q 92 115 78 133 q 111 108 99 106 q 138 117 124 111 q 164 121 151 122 q 222 139 203 119 q 254 189 242 158 q 315 333 285 261 q 375 475 344 404 q 388 510 383 490 q 403 544 393 529 q 435 557 414 558 q 475 526 465 556 q 493 471 485 497 q 553 299 524 386 q 610 126 583 213 q 631 96 618 100 q 665 101 643 92 q 730 128 697 115 q 794 154 763 142 q 842 187 833 169 q 840 246 851 204 q 811 350 826 299 q 781 453 796 401 q 753 537 769 496 q 732 622 738 578 q 735 665 731 646 q 772 688 740 685 q 803 699 789 690 q 831 719 818 708 q 892 802 875 756 q 917 899 910 849 q 938 996 925 949 m 164 883 q 162 848 165 867 q 183 822 158 829 q 240 810 211 815 q 296 804 268 804 q 332 814 317 806 q 353 844 347 822 q 383 1008 376 924 q 371 1038 385 1025 q 306 1059 349 1056 q 222 1053 264 1063 q 161 1024 181 1044 q 153 1006 154 1015 q 154 988 153 997 q 160 935 157 961 q 164 883 163 910 m 453 519 q 444 518 449 518 q 438 517 440 518 q 394 369 415 443 q 353 219 372 294 q 340 171 346 196 q 322 126 335 146 q 279 94 310 106 q 271 87 272 93 q 274 75 269 81 q 328 -2 307 40 q 381 -82 349 -44 q 452 122 425 19 q 497 331 479 225 q 496 399 504 368 q 475 459 488 429 q 453 519 463 489 m 369 403 q 357 374 364 389 q 344 343 350 358 q 308 254 326 299 q 272 165 290 210 q 261 145 269 156 q 269 125 253 135 q 292 126 282 119 q 307 146 303 133 q 369 403 357 268 m 824 144 q 747 115 785 131 q 669 83 708 99 q 650 76 660 81 q 646 56 640 71 q 665 40 653 40 q 686 46 676 40 q 760 86 724 65 q 824 144 797 107 z "},"Y":{"ha":1139,"x_min":88,"x_max":968,"o":"m 186 917 q 253 924 219 919 q 319 928 286 928 q 380 913 354 929 q 426 874 406 896 q 472 821 450 847 q 515 767 493 794 q 561 772 540 736 q 597 835 579 804 q 632 897 614 867 q 647 922 639 910 q 665 943 656 933 q 682 1021 703 976 q 710 1088 661 1064 q 794 1124 765 1113 q 840 1131 824 1136 q 872 1103 857 1126 q 917 1035 888 1081 q 951 978 935 1008 q 963 917 968 949 q 953 807 954 861 q 947 697 953 753 q 915 532 939 613 q 861 373 890 451 q 806 214 832 294 q 779 128 792 171 q 754 44 767 86 q 726 -23 744 10 q 689 -87 708 -56 q 659 -114 678 -107 q 617 -121 640 -121 q 555 -112 585 -121 q 495 -97 525 -103 q 432 -99 465 -90 q 390 -108 411 -104 q 347 -114 369 -112 q 297 -105 308 -118 q 296 -56 286 -92 q 317 15 306 -19 q 339 85 328 50 q 365 204 358 143 q 381 325 372 265 q 358 389 385 363 q 257 524 299 450 q 163 661 215 597 q 155 676 157 668 q 151 693 153 685 q 136 757 147 726 q 110 818 125 788 q 97 880 88 863 q 156 908 106 897 q 170 913 163 911 q 186 915 178 914 l 186 917 m 715 993 q 728 942 721 972 q 742 881 736 913 q 758 854 746 860 q 790 853 769 849 q 849 874 822 860 q 907 899 876 889 q 930 916 926 906 q 928 942 933 926 q 894 1018 914 982 q 849 1088 874 1054 q 799 1100 828 1114 q 774 1090 786 1094 q 749 1079 761 1085 q 713 1050 722 1069 q 715 993 704 1031 m 710 894 q 706 913 706 901 q 694 926 706 925 q 676 918 681 929 q 665 899 671 907 q 578 746 617 825 q 507 585 539 667 q 497 534 497 558 q 508 486 496 510 q 515 467 513 478 q 529 457 517 457 q 544 468 542 457 q 549 488 547 479 q 610 639 569 567 q 681 788 651 711 q 704 839 692 814 q 710 894 717 864 m 197 897 q 185 894 193 896 q 171 890 178 893 q 125 867 132 881 q 132 817 118 854 q 144 783 139 800 q 153 749 149 765 q 174 703 163 710 q 224 714 186 696 q 289 749 271 736 q 305 783 307 761 q 289 850 303 804 q 274 891 282 879 q 249 903 265 903 q 197 897 232 904 m 315 860 q 333 799 331 833 q 358 736 336 764 q 412 675 385 706 q 456 607 439 644 q 488 606 467 576 q 517 688 518 650 q 479 765 515 726 q 442 810 461 788 q 404 854 424 832 q 353 894 382 881 q 336 901 344 897 q 319 897 328 904 q 312 881 310 890 q 315 860 314 872 m 924 846 q 917 863 922 854 q 897 867 913 872 q 853 850 875 860 q 824 815 832 840 q 740 628 792 718 q 642 446 689 538 q 590 330 613 389 q 568 206 567 271 q 567 100 568 153 q 550 -3 567 47 q 538 -62 538 -44 q 557 -84 538 -79 q 619 -94 576 -89 q 651 -88 639 -96 q 671 -67 663 -81 q 702 -8 688 -37 q 726 54 717 22 q 752 142 739 99 q 779 228 765 185 q 829 365 801 297 q 879 503 857 433 q 908 646 901 572 q 919 744 913 694 q 924 846 926 794 m 296 725 q 260 708 278 717 q 222 692 242 699 q 208 640 185 674 q 290 513 251 578 q 381 393 328 449 q 403 362 396 379 q 407 324 410 344 q 393 212 400 268 q 371 99 386 156 q 348 27 361 63 q 324 -43 335 -8 q 323 -83 314 -74 q 363 -87 332 -92 q 408 -80 386 -83 q 451 -75 429 -76 q 513 -28 500 -74 q 531 51 525 11 q 535 132 538 92 q 556 299 532 219 q 621 457 581 379 q 707 613 664 535 q 781 775 750 692 q 792 801 785 786 q 781 822 800 817 q 747 822 767 826 q 717 803 728 818 q 701 776 706 790 q 629 621 671 696 q 564 463 588 546 q 559 449 563 456 q 553 435 556 442 q 543 422 549 428 q 526 414 538 415 q 510 421 515 414 q 503 436 506 428 q 476 497 489 467 q 449 557 464 528 q 406 638 429 599 q 344 708 383 678 q 323 722 335 717 q 296 725 311 728 z "},"Z":{"ha":1194,"x_min":67,"x_max":951,"o":"m 756 1068 q 746 1062 750 1063 q 739 1063 742 1061 q 626 1079 682 1085 q 514 1058 569 1074 q 472 1048 493 1053 q 431 1038 451 1043 q 419 1035 425 1036 q 413 1028 414 1033 q 401 974 404 1001 q 399 918 399 946 q 406 906 399 908 q 421 904 414 904 q 544 896 483 910 q 667 879 606 882 q 675 878 671 878 q 683 878 679 878 q 728 879 714 876 q 749 897 742 882 q 763 944 756 911 q 776 1001 769 972 q 771 1061 782 1029 q 788 1052 785 1060 q 792 1033 792 1044 q 822 1008 792 992 q 878 1016 851 1026 q 932 996 906 1006 q 947 983 943 993 q 950 960 951 972 q 936 861 947 910 q 901 774 925 813 q 811 594 850 688 q 724 413 772 500 q 713 388 718 401 q 701 361 708 374 q 717 338 692 338 q 790 333 753 336 q 863 328 826 331 q 894 319 889 326 q 894 282 900 313 q 875 142 885 213 q 842 6 865 72 q 836 -10 840 -1 q 829 -26 832 -18 q 799 -72 815 -60 q 751 -71 783 -83 q 603 -45 678 -40 q 454 -53 529 -50 q 346 -58 400 -56 q 238 -60 292 -60 q 191 -64 214 -58 q 146 -76 168 -69 q 139 -79 140 -79 q 106 -86 124 -83 q 78 -74 89 -89 q 76 -42 67 -58 q 92 -12 85 -26 q 179 119 131 58 q 279 239 228 181 q 442 423 361 331 q 611 600 524 515 q 636 627 624 613 q 663 657 649 642 q 634 663 647 663 q 607 663 621 664 q 515 660 561 661 q 422 650 468 658 q 385 649 406 646 q 349 688 353 653 q 349 776 343 732 q 351 865 354 821 q 352 868 351 867 q 353 871 353 869 q 384 965 379 915 q 394 1063 389 1014 q 438 1114 399 1108 q 485 1122 461 1119 q 532 1119 508 1124 q 619 1106 576 1114 q 706 1089 663 1097 q 733 1084 719 1088 q 756 1068 746 1081 m 568 1090 q 500 1103 533 1103 q 432 1092 467 1103 q 424 1086 429 1092 q 417 1065 413 1079 q 433 1058 421 1053 q 501 1074 467 1065 q 568 1090 535 1082 m 821 836 q 822 819 824 829 q 831 806 821 808 q 847 806 839 801 q 861 817 856 811 q 872 832 869 824 q 883 904 881 868 q 876 975 885 940 q 858 993 874 993 q 838 975 842 993 q 826 906 832 940 q 821 836 819 872 m 849 781 q 892 799 885 769 q 916 875 903 838 q 935 954 929 913 q 935 970 936 963 q 926 983 933 978 q 915 989 921 986 q 903 986 908 992 q 900 972 897 981 q 903 957 903 964 q 903 892 903 925 q 892 831 903 860 q 849 781 882 803 m 794 981 q 779 942 782 963 q 771 903 776 922 q 753 869 765 881 q 721 858 742 857 q 679 860 700 860 q 639 863 658 860 q 519 881 579 874 q 399 889 460 889 q 388 889 393 889 q 382 881 383 889 q 385 869 381 871 q 394 868 389 868 q 466 855 432 868 q 533 826 500 842 q 630 791 582 807 q 728 765 678 775 q 755 765 743 763 q 772 785 767 767 q 788 883 783 833 q 794 981 792 932 m 525 679 q 597 682 561 685 q 671 681 633 679 q 684 681 678 682 q 693 674 690 681 q 692 660 696 667 q 685 650 689 654 q 666 627 675 639 q 646 604 657 615 q 578 538 613 571 q 511 468 543 504 q 380 322 447 394 q 247 174 313 249 q 172 78 208 128 q 106 -25 136 28 q 96 -42 101 -33 q 97 -60 90 -50 q 113 -65 104 -67 q 131 -61 122 -62 q 143 -56 135 -61 q 239 -39 189 -36 q 328 -42 283 -40 q 417 -39 374 -43 q 523 -31 469 -35 q 629 -29 576 -26 q 688 -15 671 -31 q 706 49 704 1 q 713 140 708 94 q 722 229 718 185 q 717 281 725 267 q 676 303 708 294 q 627 310 651 310 q 578 313 603 311 q 548 313 564 314 q 528 328 532 311 q 535 362 524 347 q 558 390 547 376 q 563 392 561 392 q 565 394 564 393 q 654 477 614 431 q 728 578 694 524 q 751 616 740 597 q 769 657 763 635 q 729 746 794 732 q 644 766 686 754 q 561 796 603 778 q 486 827 524 811 q 408 849 449 843 q 378 844 388 851 q 368 814 369 838 q 365 760 367 788 q 364 704 363 732 q 400 667 365 663 q 462 675 432 669 q 525 679 492 681 m 643 328 q 663 335 656 328 q 674 351 669 342 q 696 399 685 375 q 718 447 707 424 q 781 574 750 510 q 839 704 813 639 q 851 748 854 740 q 815 765 847 756 q 803 770 810 768 q 789 764 796 772 q 788 735 781 751 q 796 678 800 706 q 778 625 792 651 q 705 511 744 565 q 614 415 665 457 q 564 363 589 393 q 574 336 549 339 q 609 332 592 333 q 643 328 626 331 m 711 308 q 740 269 739 293 q 738 222 740 246 q 728 129 733 175 q 721 36 722 83 q 718 8 721 22 q 708 -18 715 -6 q 705 -26 707 -22 q 708 -36 703 -31 q 768 -52 732 -60 q 818 -11 804 -44 q 856 137 846 60 q 879 289 865 214 q 867 308 882 308 q 790 313 829 311 q 711 308 751 315 z "},"a":{"ha":1028,"x_min":103,"x_max":792,"o":"m 792 258 q 787 161 789 208 q 782 67 785 114 q 776 37 781 51 q 756 13 771 22 q 633 -42 696 -19 q 500 -49 571 -65 q 439 -65 461 -40 q 408 -88 425 -79 q 371 -104 390 -97 q 276 -58 303 -126 q 266 97 246 24 q 347 215 286 169 q 496 258 408 260 q 522 262 511 258 q 532 283 532 265 q 523 310 533 301 q 496 321 513 319 q 369 322 432 326 q 250 278 307 317 q 211 266 226 260 q 182 290 196 272 q 117 444 132 364 q 119 608 103 524 q 172 699 131 668 q 272 732 213 729 q 328 733 300 733 q 382 726 356 732 q 461 717 422 718 q 542 738 500 715 q 617 745 578 756 q 690 703 657 735 q 736 628 722 672 q 777 444 767 538 q 792 258 788 350 m 768 267 q 763 336 765 299 q 757 413 761 374 q 740 526 751 469 q 706 635 729 583 q 649 703 688 678 q 572 726 610 729 q 541 722 557 725 q 519 700 525 718 q 527 678 514 686 q 550 663 540 671 q 650 544 614 610 q 693 392 686 478 q 694 223 700 307 q 678 54 688 139 q 676 31 676 44 q 688 11 675 18 q 712 13 700 6 q 735 26 724 21 q 752 45 747 33 q 757 71 757 57 q 763 165 760 118 q 768 267 765 213 m 207 303 q 326 463 250 422 q 508 465 403 504 q 579 403 558 447 q 581 311 600 360 q 560 265 571 288 q 536 218 549 242 q 501 135 514 178 q 489 44 489 92 q 494 -6 489 18 q 533 -35 499 -29 q 613 -24 581 -42 q 650 31 646 -6 q 668 169 657 100 q 674 310 679 239 q 664 412 669 361 q 641 510 658 463 q 583 600 624 557 q 451 688 524 664 q 297 713 378 711 q 177 670 218 715 q 135 546 136 625 q 150 413 133 479 q 170 355 158 383 q 207 303 182 326 m 419 458 q 312 435 351 458 q 251 357 272 411 q 243 337 247 347 q 247 318 239 326 q 266 313 256 308 q 286 321 276 318 q 409 347 347 342 q 535 338 471 351 q 563 342 558 332 q 563 369 567 351 q 519 438 553 417 q 419 458 485 458 m 292 33 q 292 -8 293 13 q 301 -50 292 -29 q 322 -79 310 -68 q 357 -86 335 -90 q 403 -65 381 -82 q 440 -23 425 -47 q 457 24 456 1 q 469 106 463 65 q 492 186 476 147 q 503 208 497 197 q 499 229 510 218 q 476 238 489 240 q 450 233 463 236 q 292 33 290 203 z "},"b":{"ha":889,"x_min":149,"x_max":674,"o":"m 669 258 q 665 151 674 204 q 640 47 656 99 q 607 -4 631 14 q 553 -32 583 -22 q 494 -50 524 -42 q 397 -70 447 -64 q 296 -54 346 -76 q 277 -50 286 -51 q 264 -64 268 -49 q 240 -97 256 -92 q 205 -97 224 -101 q 169 -93 186 -93 q 150 -76 149 -92 q 153 -47 151 -60 q 165 123 157 38 q 174 293 172 208 q 175 524 176 408 q 174 754 174 639 q 210 825 174 801 q 290 833 246 849 q 303 819 306 828 q 299 803 301 811 q 291 756 293 779 q 296 708 289 733 q 332 647 310 665 q 408 628 354 629 q 561 585 499 626 q 646 453 624 543 q 662 356 657 406 q 669 258 667 307 m 192 761 q 195 736 189 743 q 218 728 201 729 q 257 747 250 728 q 268 788 264 765 q 260 810 272 811 q 236 811 247 810 q 199 798 206 814 q 192 761 192 782 m 189 82 q 177 25 179 51 q 172 -28 175 -1 q 172 -56 171 -42 q 196 -74 172 -71 q 226 -67 217 -76 q 236 -40 235 -58 q 272 -17 239 1 q 378 -47 328 -47 q 475 -27 428 -47 q 569 21 522 -7 q 633 114 624 54 q 644 272 646 193 q 626 432 642 351 q 549 569 613 522 q 376 607 486 617 q 313 611 338 603 q 285 665 288 619 q 281 677 283 672 q 276 688 279 682 q 229 711 267 722 q 203 701 214 707 q 193 672 192 694 q 197 603 196 638 q 196 532 197 568 q 204 498 196 504 q 239 506 213 492 q 389 531 317 544 q 508 457 461 517 q 579 320 561 393 q 588 167 597 247 q 551 76 581 107 q 465 32 522 46 q 324 22 393 14 q 189 82 254 31 m 233 100 q 260 67 243 75 q 297 54 278 60 q 375 47 336 46 q 453 56 414 47 q 557 160 538 74 q 558 300 572 233 q 501 426 543 367 q 383 510 453 496 q 242 481 314 525 q 208 457 225 471 q 200 422 190 443 q 215 411 206 410 q 237 419 225 413 q 258 428 249 426 q 381 438 317 444 q 436 422 411 435 q 478 381 461 408 q 514 283 506 333 q 514 181 522 233 q 454 106 506 128 q 345 83 400 79 q 233 100 290 86 m 192 258 q 193 179 190 204 q 211 144 196 154 q 263 121 226 133 q 369 105 315 104 q 463 147 422 106 q 493 205 489 174 q 490 269 497 236 q 472 333 482 303 q 437 392 461 369 q 372 419 413 414 q 237 396 279 431 q 192 269 194 361 l 192 258 z "},"c":{"ha":806,"x_min":83,"x_max":600,"o":"m 575 46 q 572 28 574 38 q 568 11 571 19 q 542 -70 557 -43 q 494 -108 526 -97 q 401 -122 463 -118 q 313 -110 358 -125 q 231 -68 267 -96 q 183 -4 196 -40 q 139 100 165 49 q 104 207 113 151 q 126 453 83 340 q 286 651 169 567 q 324 724 324 679 q 335 777 322 768 q 397 775 347 786 q 547 708 506 751 q 586 594 589 665 q 576 562 585 575 q 540 547 568 549 q 451 535 493 546 q 376 489 408 524 q 285 307 300 413 q 280 244 281 276 q 285 179 279 211 q 354 139 296 121 q 388 149 371 144 q 418 161 406 153 q 469 181 443 179 q 522 177 494 182 q 575 171 549 172 q 597 159 593 169 q 597 136 600 149 q 588 92 592 114 q 579 46 583 69 l 575 46 m 353 717 q 354 671 344 694 q 408 633 364 647 q 435 621 422 629 q 453 601 447 613 q 478 570 464 579 q 519 567 493 561 q 552 590 546 572 q 560 626 558 607 q 543 677 561 651 q 497 723 525 703 q 435 753 468 743 q 375 757 403 763 q 358 746 361 756 q 353 717 356 736 m 456 139 q 425 136 438 144 q 397 124 413 128 q 288 123 324 101 q 250 215 251 144 q 281 399 249 314 q 406 546 313 485 q 435 583 438 567 q 396 619 432 600 q 319 636 354 643 q 246 589 285 629 q 181 492 204 544 q 136 385 157 439 q 117 233 106 308 q 172 82 129 157 q 262 18 203 31 q 389 15 321 6 q 456 139 458 25 m 486 115 q 485 100 489 110 q 480 82 481 90 q 493 71 479 74 q 537 78 518 67 q 561 117 556 90 q 561 141 564 132 q 539 154 558 150 q 500 150 511 161 q 486 115 489 139 m 211 8 q 303 -81 250 -57 q 443 -97 357 -104 q 514 -69 492 -93 q 546 10 536 -46 q 553 30 549 19 q 543 47 557 40 q 521 48 532 53 q 500 38 510 43 q 283 -6 406 -25 q 211 8 257 -1 z "},"d":{"ha":972,"x_min":135,"x_max":736,"o":"m 340 -206 q 244 -212 286 -229 q 174 -142 201 -194 q 135 13 135 -69 l 135 403 q 138 458 135 431 q 151 511 142 485 q 237 613 176 588 q 369 599 297 638 q 394 596 389 589 q 399 617 399 603 q 399 689 399 653 q 400 761 400 725 q 439 814 399 804 q 491 826 465 821 q 543 829 517 832 q 597 837 571 828 q 649 856 622 846 q 699 862 685 871 q 718 815 713 853 q 736 549 736 682 q 729 282 736 415 q 725 157 725 219 q 726 32 725 94 q 715 -8 726 6 q 676 -24 704 -21 q 622 -37 649 -25 q 570 -61 596 -50 q 514 -71 544 -72 q 502 -78 507 -71 q 493 -92 497 -85 q 425 -160 465 -135 q 340 -206 385 -186 m 717 481 q 710 633 715 557 q 697 783 706 708 q 697 817 696 799 q 678 840 697 835 q 644 837 660 847 q 613 819 628 826 q 599 806 603 814 q 593 788 596 797 q 588 728 588 758 q 589 669 588 699 q 600 558 593 614 q 600 447 607 503 q 587 259 589 353 q 578 71 585 165 q 578 5 575 24 q 600 -12 581 -14 q 665 0 619 -11 q 695 16 685 7 q 704 47 706 25 q 708 264 701 156 q 717 481 714 372 m 565 763 q 567 774 567 765 q 569 793 568 783 q 566 809 569 801 q 553 815 563 817 q 494 811 524 813 q 438 794 465 810 q 426 772 431 790 q 421 732 422 754 q 422 692 419 710 q 431 668 425 674 q 438 665 433 667 q 447 663 443 664 q 565 763 561 642 m 575 489 q 574 550 578 513 q 565 628 569 588 q 557 651 564 646 q 532 653 550 656 q 465 642 489 644 q 432 632 442 639 q 421 603 422 625 q 419 532 419 581 q 403 491 419 510 q 365 465 388 472 q 321 467 342 457 q 275 472 294 479 q 242 443 256 465 q 163 197 171 331 q 224 -61 156 63 q 269 -91 239 -90 q 322 -65 300 -92 q 340 -35 333 -51 q 353 -3 347 -19 q 365 31 358 14 q 376 67 371 49 q 384 80 379 74 q 399 85 389 86 q 410 76 407 83 q 415 63 414 69 q 417 36 419 51 q 417 -23 414 -6 q 437 -44 419 -40 q 497 -47 454 -47 q 541 -34 529 -47 q 554 6 553 -21 q 565 239 560 121 q 575 489 569 357 m 157 325 q 188 397 174 365 q 219 457 201 429 q 265 494 239 485 q 322 490 292 504 q 356 486 342 482 q 381 503 369 490 q 389 532 393 518 q 376 560 385 546 q 319 603 354 594 q 250 596 285 613 q 190 539 215 579 q 157 440 163 492 q 157 325 151 388 m 156 49 q 163 -55 154 -7 q 196 -147 172 -103 q 290 -196 228 -206 q 384 -162 343 -189 q 460 -97 425 -136 q 465 -90 463 -94 q 465 -82 467 -85 q 456 -74 463 -74 q 442 -75 449 -74 q 397 -65 408 -81 q 389 -19 386 -50 q 390 -3 390 -12 q 389 22 389 6 q 372 -24 379 -4 q 356 -61 365 -44 q 279 -112 326 -112 q 204 -61 232 -112 q 181 -11 190 -37 q 156 49 171 15 z "},"e":{"ha":944,"x_min":149,"x_max":768,"o":"m 768 129 q 765 74 767 100 q 761 22 764 49 q 732 -50 756 -25 q 660 -71 708 -75 q 580 -77 617 -67 q 507 -101 543 -87 q 411 -122 460 -119 q 313 -111 363 -125 q 228 -42 256 -96 q 179 139 188 46 q 163 278 174 208 q 150 418 151 347 q 153 523 149 471 q 176 624 157 575 q 239 714 196 672 q 298 747 263 736 q 372 754 333 757 q 444 732 411 751 q 494 674 476 713 q 525 606 510 639 q 547 536 540 572 q 544 472 558 493 q 485 447 529 451 q 435 443 460 444 q 383 442 410 442 q 361 434 365 442 q 363 410 357 426 q 404 287 383 349 q 446 164 425 225 q 461 146 453 146 q 482 158 469 146 q 542 240 519 194 q 581 332 564 285 q 620 374 593 368 q 672 351 647 379 q 674 349 674 350 q 675 347 674 349 q 735 307 717 332 q 758 251 753 282 q 763 190 763 221 q 768 129 763 158 m 378 460 l 378 457 q 437 462 407 460 q 496 465 467 464 q 533 514 538 469 q 513 597 528 557 q 475 672 499 636 q 414 727 453 710 q 333 740 375 744 q 260 707 292 736 q 179 550 189 643 q 172 437 174 494 q 179 322 169 379 q 199 173 193 249 q 222 24 204 97 q 274 -67 238 -36 q 372 -104 310 -99 q 468 -94 422 -107 q 560 -65 514 -82 q 633 28 628 -40 q 644 176 639 101 q 653 325 649 251 q 655 343 654 333 q 643 356 656 353 q 623 353 633 358 q 607 338 613 349 q 596 309 601 324 q 586 281 590 294 q 493 138 556 194 q 408 99 456 103 q 322 119 361 94 q 268 190 283 143 q 250 276 256 232 q 247 364 244 319 q 256 431 250 410 q 284 457 263 451 q 351 460 306 463 l 378 460 m 361 663 l 414 663 q 450 658 433 663 q 464 625 467 653 q 456 581 463 601 q 414 557 449 560 q 348 559 381 556 q 283 565 315 563 q 256 573 268 567 q 246 597 244 579 q 251 638 249 617 q 282 661 253 658 q 322 663 301 664 q 361 661 342 661 l 361 663 m 268 622 q 342 610 306 613 q 415 610 379 607 q 434 613 425 610 q 443 629 443 615 q 435 646 444 644 q 415 647 425 647 q 365 649 390 649 q 314 650 340 650 q 289 645 301 650 q 268 622 276 640 m 431 575 l 431 589 q 350 594 390 592 q 269 600 310 597 l 269 583 q 350 572 310 576 q 431 575 390 568 m 268 332 q 272 265 267 297 q 285 201 276 233 q 329 136 296 158 q 406 117 363 114 q 429 150 439 118 q 385 288 408 219 q 333 421 363 356 q 324 438 329 432 q 306 442 318 443 q 279 417 283 440 q 270 374 274 396 q 268 332 267 353 m 751 117 q 747 179 751 142 q 735 250 742 217 q 721 296 728 283 q 710 313 715 306 q 692 318 704 321 q 676 308 679 317 q 674 288 674 299 q 668 225 671 257 q 664 161 665 193 q 660 81 663 121 q 647 0 658 40 q 646 -51 638 -43 q 700 -50 654 -60 q 731 -32 724 -46 q 739 0 738 -18 q 746 57 743 28 q 751 117 749 86 z "},"f":{"ha":1028,"x_min":138,"x_max":874,"o":"m 288 6 q 280 134 275 68 q 294 269 285 200 q 303 408 303 338 q 296 449 303 440 q 257 454 289 457 q 249 453 254 453 q 165 453 188 449 q 140 485 142 458 q 138 568 138 511 q 182 611 138 608 q 215 613 199 611 q 249 611 232 614 q 288 622 276 608 q 301 658 300 635 q 306 721 304 690 q 310 782 308 751 q 332 867 313 828 q 364 946 351 906 q 378 961 367 958 q 399 965 389 964 q 629 938 529 994 q 774 754 729 882 q 713 654 804 667 q 688 652 700 653 q 663 649 675 651 q 646 642 653 647 q 642 625 639 638 q 653 611 644 613 q 671 613 663 610 q 731 635 701 624 q 790 660 761 647 q 856 676 843 683 q 871 611 869 668 q 870 528 874 551 q 845 502 867 504 q 768 506 824 500 q 704 507 736 510 q 640 501 672 504 q 614 493 622 500 q 604 467 606 486 q 588 240 600 353 q 574 11 575 126 q 557 -30 574 -18 q 515 -44 540 -42 q 486 -51 500 -46 q 464 -72 472 -56 q 451 -85 460 -82 q 432 -89 442 -87 q 408 -92 421 -90 q 383 -96 396 -94 q 316 -99 336 -101 q 292 -73 296 -96 q 288 6 288 -50 m 632 739 q 630 704 635 724 q 642 675 625 685 q 688 667 664 664 q 735 681 713 671 q 753 708 754 690 q 749 743 753 726 q 719 810 739 779 q 676 868 700 840 q 410 943 571 999 q 379 918 388 936 q 374 906 376 913 q 372 894 371 900 q 383 886 375 885 q 397 888 390 888 q 451 890 425 892 q 504 883 478 888 q 604 844 569 874 q 632 739 639 814 m 440 865 q 405 866 422 865 q 371 865 388 867 q 347 852 353 864 q 343 825 342 840 q 356 811 346 810 q 376 814 367 813 q 469 820 424 821 q 563 814 515 819 q 577 810 569 813 q 588 818 585 808 q 584 831 590 826 q 572 840 578 836 q 508 864 542 860 q 440 865 475 868 m 308 83 l 308 -19 q 311 -63 308 -50 q 327 -78 314 -76 q 371 -78 340 -79 q 429 -69 413 -75 q 447 -46 446 -64 q 439 13 447 -28 q 417 123 429 68 q 413 235 406 178 q 424 344 419 289 q 439 453 428 399 q 474 530 450 511 q 558 539 499 549 q 598 544 586 535 q 611 581 610 554 q 609 663 614 622 q 608 746 604 704 q 574 790 613 782 q 392 793 482 807 q 348 770 363 789 q 331 722 333 751 q 327 678 329 700 q 324 635 325 657 q 310 600 322 613 q 272 590 297 588 q 253 591 263 592 q 235 590 244 590 q 168 576 181 590 q 157 510 156 563 q 167 478 158 488 q 196 469 175 468 q 231 474 214 472 q 267 475 249 475 q 319 465 308 478 q 328 410 329 451 q 314 247 325 328 q 308 83 303 165 m 661 528 q 711 533 693 524 q 729 574 729 543 q 740 599 729 592 q 764 607 750 606 q 791 611 778 610 q 818 614 804 613 q 837 622 829 617 q 842 640 844 628 q 827 653 838 657 q 808 646 817 650 q 734 615 771 631 q 658 588 697 599 q 635 571 640 583 q 631 543 629 558 q 644 526 632 524 q 661 528 657 529 m 801 525 q 837 528 821 526 q 851 558 853 531 q 815 590 851 597 q 778 587 797 589 q 757 557 758 585 q 772 531 756 533 q 801 525 788 528 m 578 421 q 578 444 578 435 q 578 461 579 453 q 577 497 576 478 q 549 517 578 515 q 500 514 522 519 q 471 475 478 508 q 440 244 447 360 q 464 11 433 128 q 511 -21 474 -25 q 553 18 554 -18 q 563 222 550 121 q 578 421 575 324 z "},"g":{"ha":1000,"x_min":29,"x_max":849,"o":"m 565 311 q 549 280 553 297 q 536 247 544 263 q 403 152 483 161 q 242 213 324 143 q 211 253 221 232 q 197 301 201 275 q 190 419 188 361 q 207 535 193 476 q 314 644 228 626 q 411 657 363 656 q 508 651 460 658 q 553 669 536 647 q 585 706 568 689 q 621 738 603 722 q 660 739 640 753 q 686 720 672 729 q 711 699 700 711 q 765 643 738 671 q 815 583 793 615 q 840 506 836 550 q 840 337 849 421 q 797 174 832 253 q 734 58 771 114 q 661 -51 697 3 q 627 -86 647 -72 q 586 -111 607 -100 q 448 -178 518 -149 q 299 -218 378 -208 q 199 -206 243 -224 q 119 -149 156 -187 q 99 -126 110 -137 q 78 -103 89 -114 q 40 -43 51 -75 q 39 26 29 -11 q 41 54 42 40 q 38 82 40 68 q 41 117 32 104 q 71 138 50 129 q 159 147 119 157 q 233 100 199 136 q 268 63 251 82 q 303 25 285 44 q 350 14 322 4 q 476 89 421 42 q 578 192 531 136 q 593 242 597 214 q 565 311 589 271 m 615 624 q 642 628 632 622 q 663 639 653 633 q 692 653 675 647 q 710 674 710 660 q 693 699 710 689 q 663 718 676 708 q 642 729 653 725 q 619 721 631 733 q 592 692 606 707 q 568 663 579 678 q 575 638 553 644 q 597 630 586 633 q 615 624 608 626 m 769 167 q 781 175 778 169 q 785 186 783 181 q 822 332 810 258 q 826 482 833 406 q 803 571 822 531 q 744 642 783 611 q 732 653 739 647 q 715 653 725 660 q 683 636 701 643 q 656 614 665 629 q 658 590 649 601 q 668 565 667 578 q 671 553 668 561 q 684 483 682 519 q 708 417 686 447 q 768 299 750 361 q 769 167 786 238 m 376 636 q 403 617 392 628 q 429 596 415 606 q 477 580 453 578 q 518 600 501 582 q 507 635 540 626 q 442 640 475 642 q 376 636 410 639 m 278 -208 q 299 -207 289 -207 q 318 -206 308 -207 q 454 -162 389 -192 q 581 -97 519 -133 q 616 -75 599 -86 q 646 -47 633 -64 q 742 132 711 32 q 757 268 765 203 q 703 393 749 333 q 679 437 688 414 q 667 485 671 460 q 660 531 664 508 q 647 575 656 553 q 617 608 639 597 q 573 616 596 618 q 535 596 550 614 q 435 574 494 549 q 413 588 422 579 q 392 604 403 596 q 327 630 361 629 q 265 610 293 631 q 228 551 238 590 q 208 442 214 497 q 210 331 203 388 q 235 250 215 283 q 294 193 256 217 q 392 166 344 164 q 478 199 440 168 q 532 285 515 229 q 542 326 539 306 q 544 367 546 346 q 544 378 544 372 q 550 386 543 385 q 560 383 557 388 q 564 372 563 378 q 582 324 574 349 q 600 276 590 300 q 607 211 615 242 q 571 156 599 181 q 517 106 544 131 q 460 58 489 81 q 386 11 425 32 q 300 -10 347 -10 q 217 6 256 -10 q 146 54 178 21 q 125 65 138 65 q 69 45 85 61 q 56 -11 54 29 q 75 -75 56 -47 q 110 -117 92 -97 q 147 -156 129 -136 q 207 -197 175 -185 q 278 -208 239 -210 m 494 363 q 490 318 492 342 q 469 275 488 294 q 394 246 439 240 q 313 294 349 251 q 282 374 282 333 q 300 456 282 414 q 310 476 304 467 q 322 496 317 486 q 351 533 333 517 q 394 547 368 549 q 441 528 422 546 q 471 486 460 510 q 489 427 485 458 q 494 363 493 396 m 358 467 l 360 467 q 359 451 360 460 q 360 436 358 443 q 378 363 365 397 q 422 303 392 328 q 446 290 433 294 q 464 304 458 286 q 474 403 479 354 q 442 499 469 453 q 417 526 432 514 q 382 532 403 539 q 360 506 360 525 q 358 471 360 488 l 358 467 m 440 272 q 378 324 399 292 q 349 394 358 356 q 332 474 340 433 q 299 372 297 419 q 338 290 301 324 q 440 272 394 238 m 57 97 q 78 65 56 67 q 114 81 97 65 q 131 115 131 96 q 126 129 131 126 q 99 130 113 135 q 72 121 86 125 q 57 97 57 115 m 296 7 q 245 65 269 36 q 188 117 221 94 q 175 125 182 121 q 160 125 168 129 q 150 112 151 121 q 149 94 149 103 q 151 83 150 89 q 156 71 153 78 q 190 35 165 51 q 243 12 214 19 q 296 7 272 4 z "},"h":{"ha":944,"x_min":132,"x_max":725,"o":"m 336 244 q 335 356 350 301 q 293 467 321 411 q 240 578 265 522 q 203 696 214 636 q 182 815 193 756 q 163 957 169 886 q 139 1097 156 1028 q 169 1136 132 1131 q 190 1140 179 1139 q 210 1143 200 1142 q 281 1137 261 1151 q 290 1081 301 1122 q 292 1022 282 1050 q 351 996 301 983 q 432 1004 392 1004 q 542 983 500 1004 q 608 928 583 963 q 651 849 633 893 q 685 708 679 779 q 701 565 690 636 q 696 292 725 426 q 694 216 689 254 q 706 140 699 178 q 714 65 714 103 q 714 8 715 38 q 701 -59 711 -36 q 662 -92 690 -82 q 575 -110 633 -103 q 551 -106 558 -111 q 539 -90 543 -100 q 522 -46 529 -68 q 518 -1 515 -24 q 542 165 533 81 q 560 333 550 249 q 560 466 569 400 q 538 599 550 532 q 531 618 538 608 q 515 640 524 629 q 486 649 507 651 q 457 637 467 647 q 442 613 447 626 q 440 522 425 569 q 470 382 464 453 q 460 238 476 311 q 453 132 447 186 q 465 25 460 78 q 456 -28 469 -15 q 390 -50 443 -42 q 353 -56 372 -53 q 314 -61 333 -58 q 285 -32 263 -68 q 331 99 322 31 q 336 244 340 168 m 228 1129 q 203 1126 218 1126 q 177 1123 189 1126 q 163 1103 165 1119 q 166 1075 161 1090 q 197 1057 171 1060 q 242 1071 219 1056 q 264 1101 264 1086 q 258 1122 264 1113 q 228 1129 251 1132 m 197 925 q 228 952 214 940 q 256 976 243 964 q 263 1008 272 993 q 250 1039 253 1024 q 240 1047 249 1047 q 224 1044 232 1047 q 183 1000 181 1033 q 184 992 185 996 q 185 986 183 989 q 190 958 188 972 q 197 925 193 943 m 407 561 q 413 609 407 590 q 432 642 419 628 q 488 665 456 665 q 540 640 521 665 q 553 622 547 631 q 561 601 560 613 q 581 501 569 551 q 589 400 592 450 q 574 206 586 303 q 546 11 563 108 q 554 -71 540 -29 q 559 -82 557 -76 q 571 -90 561 -87 q 610 -85 585 -93 q 656 -63 635 -76 q 679 -40 678 -50 q 689 32 686 -4 q 685 106 692 68 q 670 179 679 142 q 667 256 661 217 q 683 421 682 338 q 672 588 685 504 q 658 701 664 644 q 636 814 651 758 q 585 922 621 869 q 556 954 572 942 q 514 972 539 967 q 459 983 488 979 q 401 985 431 986 q 269 956 311 982 q 213 868 226 929 q 211 808 207 840 q 249 638 225 722 q 318 472 272 553 q 343 426 332 450 q 357 379 354 403 q 367 180 368 279 q 321 -17 367 81 q 343 -40 310 -40 q 416 -23 396 -39 q 435 32 436 -7 q 426 149 433 90 q 435 267 418 208 q 445 348 446 307 q 436 431 444 389 q 417 495 429 463 q 407 561 406 528 z "},"i":{"ha":694,"x_min":186,"x_max":482,"o":"m 349 651 q 298 655 322 660 q 250 646 274 650 q 219 649 229 643 q 213 678 210 654 q 207 726 217 700 q 203 786 196 756 q 200 846 211 817 q 208 857 197 854 q 268 880 239 868 q 329 896 297 892 q 358 892 349 899 q 369 863 368 886 q 378 785 372 824 q 388 708 383 747 q 390 678 390 693 q 365 658 389 664 q 359 653 358 657 q 363 642 360 649 q 459 335 436 493 q 467 14 482 178 q 465 3 467 7 q 461 -42 464 -19 q 426 -72 458 -64 q 383 -85 404 -78 q 338 -82 363 -93 q 296 -81 318 -74 q 253 -92 274 -89 q 208 -87 218 -94 q 200 -44 199 -79 q 202 184 203 69 q 200 413 201 299 q 198 469 200 440 q 193 526 196 499 q 247 617 186 594 q 297 637 272 626 q 349 651 322 647 m 324 818 q 347 827 349 813 q 347 854 346 842 q 347 874 349 864 q 331 881 346 883 q 280 871 304 879 q 236 844 256 863 q 224 822 226 836 q 228 796 222 807 q 240 794 231 789 q 258 801 250 800 q 290 808 274 804 q 324 818 306 813 m 361 772 q 358 793 360 783 q 338 801 357 803 q 317 790 319 800 q 315 768 314 781 q 318 731 317 750 q 319 693 319 713 q 327 678 321 681 q 343 675 333 675 q 360 679 354 675 q 365 697 367 683 q 363 735 364 717 q 361 772 363 754 m 229 721 q 236 676 233 689 q 247 663 239 664 q 275 665 256 663 q 299 694 299 669 q 297 734 300 714 q 292 774 294 754 q 290 785 292 779 q 279 790 289 790 q 228 733 219 793 q 228 726 228 729 q 229 721 229 722 m 224 561 q 268 570 247 567 q 310 579 289 574 q 330 594 325 582 q 332 617 335 607 q 319 624 329 628 q 300 618 308 621 q 273 608 286 613 q 246 596 260 603 q 229 585 236 592 q 224 561 222 578 m 357 607 q 349 579 347 592 q 351 554 350 567 q 363 502 357 528 q 371 450 369 476 q 374 326 374 388 q 376 201 375 264 q 374 80 378 140 q 374 -42 369 19 q 373 -54 374 -47 q 383 -64 372 -61 q 424 -50 404 -65 q 446 -14 444 -35 q 453 212 456 99 q 417 436 450 325 q 392 522 404 479 q 357 607 381 564 m 350 465 q 341 505 344 486 q 333 542 338 524 q 330 556 332 549 q 317 560 328 563 q 267 554 293 554 q 221 539 240 554 q 215 510 207 529 q 221 476 224 492 q 219 472 219 475 q 222 212 219 342 q 219 -47 224 82 q 224 -69 219 -62 q 247 -74 229 -75 q 283 -67 265 -72 q 318 -64 300 -62 q 347 -55 342 -65 q 351 -28 353 -44 q 353 65 349 18 q 357 157 357 111 q 356 312 357 235 q 350 465 356 389 z "},"j":{"ha":833,"x_min":103,"x_max":586,"o":"m 414 997 q 453 958 435 988 q 483 895 472 929 q 488 833 493 861 q 461 790 483 801 q 419 769 439 779 q 363 749 379 751 q 342 767 346 746 q 336 840 338 788 q 346 950 333 899 q 378 997 354 986 l 414 997 m 403 979 q 375 973 383 983 q 365 947 367 963 q 361 918 364 932 q 369 896 357 896 q 390 896 382 896 q 415 905 408 894 q 423 931 421 915 q 428 958 425 946 q 422 978 433 978 q 403 979 411 978 m 442 936 q 430 881 428 908 q 433 828 432 854 q 434 811 433 822 q 446 803 435 800 q 464 811 454 806 q 471 833 474 817 q 462 885 467 860 q 442 936 457 911 m 351 819 q 353 799 356 811 q 351 778 350 788 q 368 768 353 769 q 400 774 383 768 q 414 813 417 781 q 414 842 413 826 q 410 869 415 857 q 383 882 404 881 q 358 872 363 883 q 356 846 354 861 q 351 819 357 831 m 313 -224 q 121 -156 203 -242 q 108 -103 103 -136 q 133 -28 117 -56 q 199 1 149 0 q 276 31 250 3 q 314 101 303 58 q 328 190 325 144 q 314 347 333 272 q 267 494 294 422 q 251 572 253 535 q 261 650 249 610 q 272 669 265 664 q 289 675 278 674 q 370 690 329 682 q 451 708 411 699 q 488 706 474 714 q 508 669 501 699 q 554 457 535 564 q 581 239 574 350 q 585 94 586 165 q 571 -47 583 22 q 494 -168 557 -132 q 406 -215 450 -194 q 313 -224 361 -236 m 297 582 q 380 592 338 586 q 465 603 422 597 q 484 603 472 604 q 492 622 496 603 q 485 666 489 642 q 460 689 481 690 q 376 677 418 688 q 294 651 335 667 q 278 626 279 646 q 274 590 276 607 q 281 581 272 579 q 297 582 289 582 m 419 563 q 451 484 439 525 q 472 400 464 443 q 476 376 475 390 q 493 372 478 361 q 515 381 501 379 q 536 389 528 382 q 540 419 544 396 q 527 486 535 453 q 513 553 519 519 q 505 572 510 564 q 488 578 500 581 q 453 576 471 576 q 419 563 436 576 m 493 65 q 477 272 497 169 q 428 476 457 375 q 406 539 415 521 q 381 560 397 557 q 328 558 364 563 l 317 558 q 281 548 286 557 q 288 504 275 539 q 324 390 310 449 q 349 271 338 331 q 324 65 371 146 q 178 -26 278 -17 q 147 -43 154 -29 q 136 -78 140 -57 q 129 -120 131 -100 q 150 -158 128 -140 q 245 -203 189 -190 q 358 -207 301 -215 q 454 -168 415 -199 q 470 -150 465 -161 q 476 -125 475 -139 q 492 -33 488 -79 q 493 65 496 14 m 551 342 q 549 361 550 351 q 538 368 549 371 q 508 358 524 363 q 489 329 493 353 q 493 312 488 319 q 508 308 499 304 q 535 316 521 314 q 551 342 550 318 m 560 215 q 543 200 553 204 q 525 192 533 196 q 510 174 510 186 q 513 149 510 161 q 524 135 515 132 q 539 140 532 139 q 567 192 572 149 q 564 231 564 211 q 561 271 564 251 q 558 286 560 278 q 554 296 557 294 q 529 294 542 300 q 507 281 517 289 q 500 256 496 271 q 506 228 504 240 q 518 213 510 208 q 535 219 526 218 q 547 224 540 221 q 560 215 553 226 m 568 100 q 567 117 568 110 q 554 122 565 125 q 528 115 542 118 q 515 88 515 111 q 515 70 515 81 q 528 64 515 60 q 553 71 539 68 q 568 100 568 74 m 513 -43 q 553 -24 546 -44 q 563 24 561 -3 q 560 44 564 39 q 544 46 557 49 q 516 25 521 40 q 514 -8 511 10 q 513 -43 517 -26 m 507 -136 q 520 -119 514 -126 q 532 -106 526 -112 q 543 -88 539 -97 q 544 -67 547 -79 q 540 -62 543 -61 q 533 -64 536 -62 q 516 -70 524 -65 q 506 -90 508 -75 q 501 -111 504 -100 q 507 -136 499 -122 z "},"k":{"ha":944,"x_min":133,"x_max":803,"o":"m 207 788 q 226 789 218 789 q 240 790 233 789 q 261 769 260 793 q 282 702 268 735 q 307 638 296 669 q 320 623 314 621 q 333 636 326 625 q 366 688 349 663 q 397 740 383 714 q 482 823 432 801 q 586 854 532 844 q 628 854 621 861 q 642 804 636 847 q 643 794 643 801 q 651 674 663 731 q 608 565 640 618 q 599 532 599 549 q 608 496 600 515 q 692 308 649 401 q 785 125 736 215 q 785 61 803 92 q 761 17 774 39 q 743 -31 749 -4 q 735 -43 742 -42 q 721 -44 728 -44 q 652 -47 686 -44 q 583 -61 618 -50 q 568 -58 574 -64 q 560 -40 563 -51 q 536 91 549 25 q 511 224 524 157 q 503 265 507 244 q 496 307 500 286 q 481 331 492 326 q 458 321 471 335 q 410 259 435 290 q 361 197 386 228 q 351 174 351 186 q 356 150 351 163 q 381 51 371 101 q 403 -47 390 1 q 403 -71 406 -61 q 386 -81 401 -81 q 308 -93 347 -81 q 228 -106 268 -106 q 215 -107 222 -106 q 200 -108 207 -108 q 167 -101 172 -110 q 163 -57 161 -92 q 169 159 169 50 q 160 376 169 268 q 149 512 154 444 q 136 647 143 579 q 142 711 133 679 q 161 772 151 743 q 183 788 168 792 q 207 788 197 785 m 563 678 l 563 676 l 619 676 q 634 680 628 676 q 638 697 640 683 q 631 756 635 726 q 624 815 628 786 q 619 831 622 824 q 607 839 615 838 q 556 833 581 843 q 507 811 531 824 q 491 782 492 803 q 488 743 490 761 q 485 697 485 711 q 498 681 486 683 q 538 678 510 678 l 563 678 m 476 799 q 456 787 464 796 q 440 768 447 778 q 390 692 413 733 q 342 611 367 650 q 336 589 335 601 q 339 565 338 576 q 341 553 340 560 q 347 544 342 547 q 355 547 351 543 q 361 556 358 551 q 449 656 403 610 q 460 673 456 664 q 467 693 465 682 q 472 745 469 719 q 476 799 475 771 m 179 671 q 208 685 194 671 q 231 720 222 700 q 235 758 239 740 q 226 769 235 768 q 190 769 208 781 q 164 735 171 758 q 162 722 163 728 q 158 708 161 715 q 179 671 147 667 m 233 674 q 235 666 235 669 q 236 660 235 663 q 268 583 253 622 q 303 510 283 544 q 310 498 306 504 q 321 497 314 492 q 326 509 328 501 q 324 522 325 517 q 297 613 317 571 q 263 699 278 656 q 259 710 261 704 q 250 715 257 715 q 243 708 244 714 q 239 696 242 701 q 236 685 238 690 q 233 674 235 679 m 210 -93 q 228 -89 219 -90 q 246 -87 238 -87 q 278 -44 282 -89 q 276 -4 276 -25 q 271 36 276 17 q 267 113 258 81 q 310 172 275 146 q 381 246 350 204 q 443 329 413 288 q 469 348 456 346 q 497 349 483 350 q 512 334 513 347 q 513 310 511 321 q 542 152 528 231 q 571 -4 557 74 q 607 -36 576 -42 q 651 -30 629 -33 q 694 -25 672 -26 q 710 -15 708 -22 q 708 6 713 -8 q 631 222 675 117 q 544 431 588 326 q 544 475 533 456 q 583 549 568 510 q 615 626 597 589 q 599 660 632 660 q 553 660 576 661 q 506 661 529 660 q 473 653 488 663 q 444 628 458 643 q 353 508 393 574 q 279 372 314 443 q 271 353 275 364 q 256 344 267 342 q 245 360 246 347 q 243 383 244 372 q 227 500 235 442 q 213 617 219 558 q 174 654 208 660 q 156 636 156 650 q 158 608 157 622 q 181 279 174 444 q 178 -51 189 114 q 210 -93 174 -99 m 233 611 q 228 608 233 611 q 242 507 235 557 q 256 407 249 457 q 258 394 257 401 q 268 390 258 386 q 283 413 275 393 q 295 455 290 433 q 296 483 300 476 q 265 547 282 515 q 233 611 249 579 m 776 99 q 771 113 774 106 q 765 125 768 119 q 678 297 719 210 q 597 474 638 385 q 593 488 596 481 q 583 496 590 496 q 572 488 575 496 q 564 474 568 481 q 559 455 558 464 q 564 436 560 446 q 606 328 588 383 q 650 219 625 272 q 685 127 671 175 q 717 32 700 79 q 723 15 719 25 q 733 14 726 4 q 759 52 747 32 q 776 99 771 72 m 317 -69 q 344 -65 331 -67 q 369 -62 357 -64 q 381 -57 376 -61 q 383 -43 386 -53 q 365 53 374 4 q 339 146 356 101 q 334 156 338 153 q 324 157 331 160 q 290 123 304 150 q 282 69 276 96 q 294 -44 293 13 q 317 -69 297 -74 z "},"l":{"ha":500,"x_min":100,"x_max":335,"o":"m 228 894 q 236 894 232 894 q 246 894 240 893 q 280 887 269 899 q 294 849 290 875 q 314 681 310 765 q 324 513 318 597 q 329 283 331 397 q 333 53 328 168 q 292 -21 335 -1 q 241 -47 265 -32 q 186 -65 217 -62 q 163 -77 175 -67 q 140 -96 151 -87 q 100 -71 100 -126 q 104 -10 100 -40 q 126 280 124 135 q 128 569 129 425 q 125 658 128 614 q 118 746 122 703 q 128 815 115 783 q 156 876 140 847 q 188 895 168 897 q 228 894 208 893 m 161 790 q 183 793 172 792 q 206 796 194 794 q 240 820 225 799 q 256 863 256 842 q 249 876 256 876 q 212 880 231 878 q 178 872 193 882 q 157 841 163 863 q 146 800 151 819 q 150 790 144 792 q 161 790 156 789 m 272 838 q 252 776 260 808 q 246 713 244 744 q 240 374 253 543 q 213 35 226 204 q 206 -1 211 18 q 214 -32 201 -21 q 239 -28 225 -42 q 267 -11 253 -15 q 304 19 294 -1 q 314 72 314 39 q 311 338 313 204 q 304 604 310 471 q 295 719 303 661 q 272 838 288 776 m 144 294 q 141 187 144 240 q 133 79 138 133 q 126 14 131 46 q 118 -51 121 -18 q 117 -68 118 -58 q 131 -76 117 -78 q 154 -62 140 -75 q 179 -33 168 -50 q 190 -6 190 -17 q 224 388 210 193 q 231 551 231 469 q 226 714 231 632 q 222 763 225 749 q 208 778 219 776 q 165 775 196 779 q 139 740 138 771 q 147 517 144 629 q 144 294 150 406 z "},"m":{"ha":1111,"x_min":119,"x_max":975,"o":"m 331 299 q 312 144 325 221 q 294 -11 299 67 q 257 -83 293 -58 q 215 -115 236 -99 q 169 -137 194 -131 q 142 -136 151 -142 q 126 -110 133 -131 q 122 -53 119 -82 q 135 82 131 14 q 143 218 139 150 q 147 349 147 283 q 136 479 146 415 q 135 560 131 521 q 150 639 139 600 q 167 653 154 653 q 185 651 176 651 q 203 647 194 650 q 241 644 222 640 q 278 650 260 649 q 296 672 292 653 q 302 703 299 688 q 307 733 306 718 q 329 758 310 757 q 427 761 378 764 q 524 750 476 758 q 546 733 540 747 q 578 724 557 713 q 601 736 589 731 q 625 750 614 742 q 690 776 657 771 q 758 778 724 782 q 826 742 800 772 q 869 674 851 713 q 911 558 896 618 q 933 432 926 497 q 947 328 940 381 q 956 222 953 275 q 960 130 958 176 q 968 38 963 83 q 973 4 971 21 q 972 -31 975 -12 q 961 -46 972 -47 q 908 -53 933 -40 q 856 -72 882 -65 q 837 -78 846 -75 q 818 -83 828 -82 q 799 -62 797 -86 q 799 68 806 3 q 783 197 793 133 q 771 276 778 238 q 753 354 764 315 q 717 410 743 390 q 660 424 692 429 q 644 390 632 419 q 670 310 660 351 q 689 228 681 269 q 711 101 700 164 q 736 -24 722 38 q 722 -54 742 -46 q 704 -62 713 -57 q 653 -92 681 -85 q 599 -111 625 -100 q 581 -109 586 -117 q 575 -90 576 -101 q 567 22 569 -33 q 554 177 564 100 q 524 328 544 254 q 521 338 524 329 q 515 351 519 344 q 504 357 511 358 q 495 347 494 356 q 496 331 496 338 q 496 157 490 243 q 511 -15 501 71 q 511 -24 511 -19 q 513 -33 511 -29 q 492 -75 521 -64 q 460 -84 476 -79 q 429 -94 444 -89 q 406 -101 418 -97 q 383 -110 394 -106 q 364 -90 361 -117 q 357 79 369 -4 q 336 247 344 163 q 335 273 335 260 q 331 299 336 286 m 743 767 q 688 763 715 768 q 632 739 660 758 q 606 724 619 731 q 581 713 593 718 q 564 698 567 707 q 564 674 561 689 q 588 631 571 647 q 619 594 606 614 q 640 600 632 576 q 656 640 647 619 q 674 681 665 661 q 719 728 693 722 q 772 697 746 733 q 828 597 806 650 q 857 482 851 544 q 863 430 860 456 q 869 378 865 404 q 890 242 881 310 q 906 106 900 175 q 910 48 908 76 q 921 -8 913 19 q 949 -29 928 -35 q 960 -17 960 -26 q 960 0 961 -8 q 953 53 957 26 q 947 106 949 79 q 940 266 946 186 q 924 424 935 346 q 899 551 915 489 q 856 671 883 614 q 812 738 838 708 q 743 767 786 767 m 447 747 q 394 750 421 750 q 340 747 368 750 q 321 726 322 746 q 317 694 319 710 q 311 663 315 678 q 319 640 306 646 q 359 624 339 632 q 400 611 379 617 q 409 610 404 610 q 419 614 414 610 q 474 655 444 638 q 531 690 503 672 q 536 721 546 700 q 511 739 528 736 q 479 744 496 742 q 447 747 463 746 m 429 297 q 458 373 435 356 q 514 368 482 390 q 529 352 524 363 q 538 331 535 342 q 569 178 558 256 q 581 21 579 100 q 583 -27 582 -3 q 586 -76 585 -51 q 588 -90 586 -82 q 599 -93 590 -97 q 623 -86 610 -89 q 644 -74 636 -83 q 648 -52 651 -64 q 644 -31 644 -40 q 644 -16 644 -24 q 643 -1 643 -8 q 628 153 638 76 q 607 307 618 231 q 604 338 606 322 q 600 367 603 353 q 613 410 593 392 q 673 438 642 439 q 729 415 704 436 q 764 360 754 393 q 777 300 772 331 q 788 238 782 269 q 799 165 794 201 q 808 90 803 128 q 813 22 813 56 q 813 -49 813 -12 q 832 -67 813 -75 q 851 -60 842 -64 q 869 -51 860 -56 q 901 -33 897 -40 q 900 7 904 -26 q 893 78 896 42 q 888 149 890 114 q 867 311 882 231 q 843 472 851 392 q 815 588 838 535 q 760 689 792 642 q 689 679 721 747 q 674 643 681 661 q 657 607 667 625 q 651 578 651 594 q 636 560 650 563 q 617 571 625 558 q 601 592 610 583 q 570 626 586 608 q 547 669 554 643 q 531 675 543 685 q 489 649 510 661 q 449 618 468 636 q 381 604 418 592 q 347 617 364 611 q 314 629 331 624 q 283 636 297 636 q 262 638 274 638 q 243 626 250 638 q 244 606 238 617 q 256 585 250 594 q 297 492 279 540 q 322 390 314 443 q 325 378 324 385 q 328 368 326 372 q 342 337 339 354 q 347 300 346 319 q 350 248 349 274 q 354 196 351 222 q 372 60 364 128 q 378 -78 381 -8 q 392 -90 375 -99 q 407 -85 399 -87 q 422 -81 415 -82 q 453 -39 453 -75 q 450 51 453 6 q 444 142 447 96 q 435 226 442 185 q 429 297 428 267 m 179 640 q 159 633 165 642 q 151 589 153 624 q 158 572 151 575 q 174 569 164 568 q 190 567 183 571 q 207 575 200 563 q 215 610 214 588 q 211 632 218 626 q 179 640 204 638 m 231 -82 q 269 -51 254 -69 q 285 0 283 -32 q 292 81 288 40 q 303 163 297 122 q 315 330 315 247 q 286 492 315 413 q 265 541 276 517 q 242 589 253 565 q 236 599 240 594 q 226 592 232 603 q 216 565 221 579 q 217 536 211 551 q 225 482 224 510 q 240 303 233 393 q 242 121 246 213 q 236 20 239 69 q 231 -82 233 -29 m 222 -29 q 222 -9 222 -21 q 224 14 222 3 q 231 237 232 125 q 217 458 229 349 q 213 500 215 479 q 204 540 211 521 q 185 558 200 551 q 157 560 171 565 q 145 545 144 556 q 146 525 146 535 q 151 474 149 499 q 156 422 154 449 q 159 326 158 375 q 156 228 160 276 q 149 101 150 164 q 136 -24 147 38 q 138 -107 129 -67 q 143 -120 140 -114 q 154 -126 146 -126 q 221 -54 213 -122 q 221 -44 221 -49 q 222 -29 221 -39 m 611 375 q 615 317 614 347 q 622 258 617 288 q 636 180 631 219 q 644 100 642 140 q 651 30 647 65 q 657 -40 654 -6 q 659 -55 658 -47 q 665 -65 660 -62 q 682 -60 668 -67 q 710 -43 696 -53 q 724 -31 724 -33 q 724 -23 724 -28 q 722 -15 724 -18 q 718 6 721 -4 q 713 28 715 17 q 688 174 703 101 q 657 318 672 246 q 647 353 653 336 q 635 383 642 369 q 630 392 633 388 q 621 394 626 397 q 611 375 614 392 m 444 307 q 444 293 444 301 q 444 275 443 285 q 459 113 451 194 q 465 -50 467 32 q 465 -58 465 -54 q 471 -65 465 -62 q 493 -58 482 -69 q 501 -33 504 -47 q 495 14 499 -10 q 490 63 492 38 q 482 201 486 132 q 482 342 478 271 q 472 364 485 360 q 460 361 465 365 q 451 350 456 357 q 447 331 447 342 q 444 307 446 321 z "},"n":{"ha":1000,"x_min":121,"x_max":815,"o":"m 796 443 q 799 324 799 383 q 799 204 800 265 q 799 135 799 169 q 810 67 800 100 q 808 38 815 49 q 785 19 801 28 q 719 -17 751 3 q 653 -56 686 -36 q 507 -100 585 -96 q 486 -74 476 -101 q 513 85 511 4 q 515 246 514 165 q 517 330 518 288 q 507 414 515 372 q 504 431 506 422 q 500 450 503 440 q 368 524 468 547 q 351 499 347 518 q 369 310 371 404 q 356 121 367 215 q 338 40 350 79 q 311 -39 326 0 q 276 -72 300 -64 q 215 -92 246 -82 q 151 -104 183 -101 q 126 -100 131 -106 q 125 -75 121 -94 q 162 116 149 19 q 178 311 175 213 q 183 458 181 385 q 183 606 186 532 q 192 671 182 638 q 207 736 201 704 q 213 747 208 743 q 224 751 218 750 q 261 760 243 756 q 297 768 279 764 q 328 744 328 775 q 332 701 329 722 q 336 657 335 679 q 364 638 339 629 q 442 663 403 651 q 508 710 481 675 q 591 754 543 751 q 681 732 639 757 q 742 665 724 707 q 762 611 753 639 q 778 556 771 583 q 790 500 785 528 q 796 443 794 472 m 321 685 q 317 709 319 697 q 313 732 315 721 q 308 749 311 742 q 292 756 306 757 q 267 731 269 754 q 263 693 265 713 q 258 654 261 674 q 260 620 253 624 q 296 618 267 617 q 322 646 322 622 q 322 665 322 656 q 321 685 321 675 m 251 724 q 250 738 251 732 q 242 743 249 743 q 219 726 224 744 q 213 690 217 708 q 206 654 208 672 q 205 641 204 647 q 215 633 206 635 q 240 647 239 629 q 247 688 243 668 q 251 724 250 707 m 536 718 q 574 680 565 704 q 586 631 582 656 q 590 568 593 600 q 586 504 586 536 q 604 493 586 481 q 673 529 636 517 q 746 551 710 542 q 761 576 765 557 q 743 633 754 606 q 714 686 732 661 q 629 740 682 731 q 536 718 576 750 m 376 535 q 406 534 392 533 q 435 532 421 535 q 477 516 458 529 q 504 479 496 503 q 517 438 511 458 q 524 394 522 417 q 528 165 531 279 q 501 -64 526 50 q 504 -85 499 -81 q 525 -87 510 -89 q 574 -76 550 -83 q 622 -58 599 -68 q 653 -6 660 -46 q 628 127 640 60 q 606 261 617 194 q 578 427 590 344 q 574 594 565 510 q 558 676 578 638 q 539 703 549 700 q 510 690 529 706 q 481 671 496 681 q 451 656 467 661 q 381 631 417 643 q 308 610 344 619 q 274 603 292 604 q 238 613 256 603 q 206 619 215 625 q 199 589 197 614 q 197 379 204 483 q 182 171 190 275 q 165 49 176 110 q 140 -74 154 -12 q 138 -82 139 -78 q 142 -90 136 -86 q 166 -92 150 -96 q 197 -78 182 -87 q 214 -61 213 -69 q 230 -1 222 -31 q 244 60 238 29 q 269 185 260 122 q 278 313 278 249 q 280 383 278 349 q 290 453 282 418 q 319 515 300 497 q 376 535 338 533 m 589 446 q 596 427 588 428 q 615 433 604 426 q 683 476 650 454 q 753 511 717 497 q 765 519 760 514 q 768 532 771 524 q 756 542 764 543 q 740 539 747 540 q 600 476 664 518 q 589 446 585 465 m 329 507 q 312 474 319 490 q 301 438 304 457 q 294 385 296 411 q 292 331 292 358 q 274 143 290 236 q 235 -40 258 50 q 231 -53 233 -46 q 233 -67 229 -60 q 247 -69 240 -72 q 258 -65 253 -67 q 301 -28 290 -60 q 313 1 307 -12 q 322 28 318 14 q 356 238 354 132 q 349 450 357 344 q 344 479 347 465 q 329 507 340 493 m 776 494 q 751 499 775 508 q 678 459 713 482 q 607 413 643 436 q 597 406 601 410 q 599 394 593 401 q 607 391 601 389 q 617 396 613 393 q 688 438 653 417 q 763 475 724 458 q 773 482 768 478 q 776 494 778 486 m 782 450 q 774 465 781 465 q 758 461 768 465 q 685 420 719 443 q 613 376 650 397 q 606 356 597 368 q 615 351 610 349 q 626 354 621 353 q 697 390 663 372 q 767 426 732 408 q 782 450 783 436 m 611 301 q 626 221 619 258 q 640 147 633 183 q 653 74 647 111 q 665 1 660 38 q 676 -20 669 -17 q 699 -14 683 -24 q 741 11 719 -3 q 785 35 763 25 q 798 49 796 39 q 797 68 800 58 q 792 94 794 81 q 789 122 789 108 q 787 260 788 192 q 786 397 786 329 q 781 415 786 413 q 763 411 775 418 q 702 380 732 397 q 642 347 672 363 q 613 328 624 338 q 611 301 601 319 z "},"o":{"ha":833,"x_min":122,"x_max":654,"o":"m 649 374 q 649 235 651 301 q 631 103 646 168 q 604 34 622 68 q 551 -29 586 0 q 480 -68 529 -50 q 376 -96 431 -86 q 278 -103 321 -106 q 149 -36 176 -94 q 133 10 138 -12 q 126 58 128 33 q 131 239 122 149 q 136 419 139 329 q 172 567 135 493 q 212 632 189 600 q 279 690 235 664 q 508 735 372 743 q 551 724 533 733 q 583 704 569 715 q 625 655 610 681 q 642 601 640 629 q 649 484 644 542 q 649 374 654 426 m 617 506 q 618 556 617 531 q 617 606 619 581 q 545 705 610 676 q 376 714 481 733 q 324 697 346 708 q 286 671 303 685 q 199 563 226 619 q 168 447 171 507 q 161 275 167 361 q 150 103 156 189 q 156 27 149 64 q 183 -46 164 -10 q 215 -74 193 -64 q 269 -89 238 -85 q 340 -88 300 -93 q 421 -72 381 -83 q 494 -47 461 -61 q 540 -17 526 -32 q 595 69 579 25 q 618 161 611 114 q 625 333 631 247 q 617 506 619 419 m 529 472 q 522 336 517 406 q 540 197 526 267 q 537 158 544 176 q 501 124 529 139 q 396 101 450 97 q 303 140 342 106 q 224 264 239 200 q 232 396 210 328 q 267 460 243 429 q 335 517 290 492 q 408 544 368 536 q 478 546 447 553 q 529 472 531 532 m 493 390 q 495 403 494 397 q 496 414 496 408 q 496 459 496 436 q 493 504 496 482 q 482 524 492 515 q 449 533 472 532 q 413 528 425 536 q 394 510 401 521 q 388 498 392 504 q 382 485 385 492 q 374 315 354 401 q 397 249 381 281 q 465 193 414 217 q 483 185 474 189 q 504 185 492 181 q 515 194 515 189 q 513 206 514 200 q 499 299 506 253 q 493 390 493 344 m 356 504 q 295 456 313 481 q 268 403 278 431 q 253 272 242 336 q 329 147 265 208 q 401 114 361 118 q 482 132 442 110 q 505 153 503 143 q 476 172 507 163 q 367 256 394 199 q 336 377 336 317 q 356 504 336 438 z "},"p":{"ha":861,"x_min":132,"x_max":722,"o":"m 138 -65 q 143 95 138 14 q 150 257 149 176 q 147 458 153 357 q 150 658 142 558 q 158 733 153 696 q 168 806 164 769 q 192 828 172 828 q 231 830 211 828 q 269 833 251 832 q 303 817 290 835 q 346 750 324 782 q 394 686 368 718 q 407 676 401 681 q 422 679 413 672 q 501 701 463 707 q 574 672 539 694 q 664 572 633 635 q 700 492 683 533 q 719 407 717 451 q 704 305 722 351 q 629 232 686 258 q 620 224 622 229 q 617 211 618 218 q 541 66 603 126 q 392 -7 479 6 q 368 -35 368 -11 q 367 -76 368 -56 q 367 -118 367 -97 q 331 -153 367 -156 q 244 -147 288 -150 q 156 -143 200 -144 q 133 -115 132 -142 q 136 -90 136 -103 q 138 -65 136 -78 m 183 769 q 184 731 179 736 q 221 729 189 726 l 235 729 q 261 750 256 729 q 267 775 264 763 q 274 800 271 788 q 264 818 279 818 q 229 819 246 821 q 196 814 213 817 q 188 808 190 813 q 186 797 186 803 q 184 784 185 792 q 183 769 183 776 m 293 796 q 272 728 278 761 q 275 658 265 694 q 285 640 278 647 q 307 639 293 633 q 341 650 324 646 q 375 658 358 654 q 383 676 393 663 q 339 735 361 706 q 293 796 317 765 m 153 -36 q 150 -72 151 -54 q 146 -107 149 -89 q 165 -131 143 -131 q 192 -131 179 -131 q 218 -132 206 -132 q 253 -125 246 -132 q 263 -90 261 -118 q 263 2 265 -43 q 249 93 260 47 q 244 113 247 101 q 251 129 242 125 q 266 122 264 133 q 274 103 268 110 q 276 99 276 100 q 358 15 307 26 q 465 33 408 3 q 556 103 518 63 q 600 210 594 144 q 613 292 604 251 q 624 374 621 332 q 620 487 628 431 q 568 589 613 543 q 497 642 535 624 q 408 650 460 661 q 356 638 382 644 q 304 624 331 631 q 260 647 269 615 q 256 671 257 658 q 251 694 254 683 q 249 707 250 701 q 240 715 247 713 q 190 711 214 726 q 164 668 167 696 q 161 471 156 569 q 164 274 167 372 q 159 119 161 196 q 153 -36 157 42 m 443 671 q 463 667 454 669 q 478 663 471 665 q 587 587 543 644 q 639 451 631 529 q 637 363 643 407 q 624 275 631 319 q 622 263 622 269 q 626 254 621 257 q 639 252 633 249 q 649 260 644 256 q 703 367 699 300 q 683 500 710 439 q 615 617 657 561 q 571 658 597 642 q 514 683 544 674 q 479 688 496 689 q 443 671 463 686 m 265 365 q 272 409 268 383 q 290 458 276 435 q 331 499 306 486 q 386 503 356 511 q 499 434 460 482 q 522 292 538 386 q 507 227 517 258 q 482 165 497 196 q 465 139 476 153 q 426 101 447 117 q 374 89 404 86 q 322 114 342 93 q 290 163 301 135 q 267 258 274 208 q 265 365 260 307 m 508 315 q 392 490 524 453 q 340 488 361 499 q 318 453 319 478 q 331 330 317 389 q 379 218 344 271 q 433 175 399 188 q 475 194 464 167 q 496 254 489 224 q 508 315 503 285 m 300 421 q 292 415 293 419 q 289 407 290 411 q 278 321 278 364 q 286 233 278 278 q 299 179 292 206 q 329 129 307 153 q 389 102 357 100 q 443 139 421 104 q 436 160 454 154 q 374 201 397 172 q 336 265 351 229 q 313 342 322 303 q 300 421 304 381 m 276 57 q 273 47 272 51 q 275 38 274 42 q 279 -32 278 3 q 278 -103 281 -67 q 279 -132 276 -128 q 308 -137 282 -136 q 314 -138 311 -137 q 319 -139 317 -139 q 350 -110 350 -139 l 350 -21 q 338 6 350 -1 q 306 29 321 17 q 276 57 290 42 z "},"q":{"ha":833,"x_min":100,"x_max":643,"o":"m 317 122 q 288 63 301 90 q 260 7 275 35 q 235 -27 250 -11 q 196 -47 219 -43 q 139 -15 151 -58 q 128 48 129 15 q 128 111 126 81 q 124 298 131 206 q 104 482 118 390 q 101 517 103 500 q 106 551 100 533 q 120 577 110 567 q 149 589 131 588 q 184 600 168 590 q 214 621 200 610 q 235 636 224 629 q 253 653 246 643 q 297 680 272 678 q 347 676 321 682 q 385 678 379 671 q 392 707 390 685 q 397 725 393 717 q 401 743 400 733 q 415 784 408 776 q 456 794 421 792 q 513 799 497 800 q 534 785 529 799 q 546 733 539 771 q 553 673 551 703 q 560 613 554 643 q 579 544 568 578 q 600 478 590 511 q 622 368 617 424 q 632 257 628 313 q 631 146 636 201 q 631 35 626 90 q 636 -17 633 8 q 642 -68 639 -42 q 642 -85 642 -76 q 643 -104 643 -94 q 621 -125 643 -122 q 550 -135 585 -126 q 482 -156 515 -143 q 451 -173 465 -161 q 418 -183 438 -185 q 387 -185 403 -183 q 356 -187 371 -187 q 328 -180 336 -187 q 318 -153 319 -172 q 317 -128 317 -140 q 317 -104 317 -117 q 320 7 321 -49 q 317 122 319 63 m 500 788 q 452 785 472 790 q 432 769 432 779 q 439 745 432 760 q 455 719 446 731 q 469 707 464 708 q 506 718 483 706 q 529 739 528 731 q 522 773 531 758 q 500 788 513 788 m 422 738 q 415 726 417 732 q 411 714 413 721 q 401 642 404 679 q 401 569 397 606 q 401 515 404 543 q 399 499 401 507 q 388 488 397 490 q 374 492 378 485 q 367 506 369 500 q 332 575 349 540 q 300 644 315 610 q 274 651 290 667 q 254 634 264 642 q 233 619 244 626 q 199 593 215 607 q 158 578 182 579 q 132 566 140 576 q 121 539 124 556 q 119 499 118 519 q 122 458 119 479 q 136 322 132 390 q 142 185 140 254 q 142 92 143 139 q 150 0 140 46 q 169 -35 156 -29 q 210 -29 183 -42 q 222 -21 217 -26 q 231 -10 226 -15 q 268 51 254 18 q 297 115 282 83 q 303 136 300 125 q 318 146 307 147 q 331 133 329 144 q 332 110 332 121 q 334 17 332 63 q 333 -76 336 -29 q 332 -113 332 -94 q 333 -150 332 -132 q 357 -172 335 -174 q 385 -171 371 -171 q 413 -169 399 -171 q 448 -158 440 -167 q 453 -122 456 -150 q 444 156 442 17 q 449 433 447 294 q 453 549 451 492 q 451 665 456 607 q 442 703 450 686 q 422 738 433 719 m 465 454 q 462 328 460 392 q 461 201 464 265 q 460 42 458 121 q 467 -117 461 -36 q 494 -136 469 -146 q 546 -123 519 -128 q 599 -115 572 -118 q 626 -81 632 -111 q 615 82 615 0 q 615 244 615 164 q 608 366 615 306 q 583 485 600 426 q 552 589 569 538 q 533 696 535 640 q 524 710 533 708 q 486 697 507 713 q 467 664 465 682 q 469 560 469 613 q 465 454 468 507 m 385 510 q 386 564 388 538 q 383 617 385 590 q 375 657 381 651 q 333 664 369 663 q 314 661 317 665 q 318 642 311 657 q 343 590 331 615 q 365 536 356 564 q 372 522 368 529 q 385 510 375 515 m 197 372 q 247 461 194 429 q 315 457 283 483 q 372 385 353 426 q 397 296 392 343 q 377 234 403 260 q 314 210 351 208 q 238 228 260 211 q 203 299 217 246 q 197 335 199 317 q 197 372 196 353 m 233 400 q 254 314 229 347 q 322 257 279 281 q 369 250 354 242 q 383 294 383 258 l 383 303 q 362 372 375 339 q 324 432 349 404 q 298 454 313 447 q 264 454 283 461 q 240 431 244 447 q 233 400 236 415 m 215 388 q 224 276 203 331 q 266 229 235 244 q 329 224 297 214 q 338 226 333 225 q 342 232 342 226 q 338 238 342 236 q 331 240 333 239 q 265 282 293 258 q 229 329 239 301 q 215 388 219 357 z "},"r":{"ha":750,"x_min":101,"x_max":604,"o":"m 232 613 q 259 635 247 625 q 282 656 271 646 q 364 702 321 690 q 457 699 407 714 q 474 696 465 696 q 490 697 482 696 q 567 696 531 701 q 597 653 604 690 q 589 608 593 631 q 578 565 585 586 q 555 530 569 539 q 513 525 540 521 q 497 531 501 528 q 439 554 468 553 q 380 549 410 556 q 321 536 350 542 q 296 501 292 532 q 309 428 303 465 q 321 356 315 392 q 340 206 335 281 q 351 57 346 131 q 356 4 354 31 q 361 -50 358 -22 q 331 -87 365 -83 q 297 -91 314 -89 q 269 -115 279 -93 q 262 -118 268 -117 q 250 -121 256 -119 q 230 -122 240 -122 q 208 -124 219 -122 q 165 -118 176 -126 q 151 -76 154 -110 q 147 23 149 -26 q 142 124 144 72 q 133 230 140 176 q 111 335 125 283 q 104 413 101 374 q 108 492 107 453 q 123 601 111 547 q 144 708 135 654 q 149 722 146 714 q 182 782 164 771 q 250 785 200 793 q 274 776 269 782 q 267 751 278 769 q 240 687 249 721 q 232 613 232 653 m 171 731 q 183 706 167 708 q 249 754 233 694 q 239 772 253 769 q 171 731 183 786 m 213 632 q 215 643 214 639 q 217 651 217 647 q 219 672 215 661 q 207 689 222 683 q 174 689 189 697 q 154 661 158 681 q 146 633 150 647 q 140 604 142 619 q 127 448 132 526 q 140 290 122 369 q 163 114 160 203 q 168 -62 165 25 q 176 -100 169 -93 q 213 -106 183 -107 q 222 -105 218 -106 q 232 -104 226 -104 q 261 -75 261 -106 q 256 30 260 -22 q 242 135 251 82 q 208 463 215 297 q 221 515 207 499 q 269 542 235 532 q 341 556 306 550 q 411 567 376 561 q 462 584 453 574 q 465 638 471 594 q 463 651 464 644 q 460 663 463 657 q 417 693 449 693 q 358 688 386 696 q 307 657 331 679 q 282 634 294 646 q 256 611 269 622 q 238 596 247 604 q 215 594 228 588 q 210 613 206 601 q 213 632 214 624 m 574 617 q 572 678 585 665 q 511 686 560 692 q 501 684 506 685 q 492 683 496 683 q 479 664 475 682 q 485 622 486 643 q 482 581 485 601 q 488 555 478 563 q 513 543 499 547 q 538 541 526 538 q 554 560 549 544 q 564 589 560 575 q 574 617 568 603 m 343 -51 q 339 1 342 -25 q 335 54 336 28 q 314 283 328 169 q 278 510 300 396 q 257 519 274 531 q 228 468 228 504 q 229 385 226 426 q 236 303 232 343 q 260 125 246 214 q 278 -54 274 36 q 297 -72 278 -76 q 324 -71 310 -69 q 343 -51 338 -72 z "},"s":{"ha":778,"x_min":65,"x_max":629,"o":"m 92 250 q 106 304 97 278 q 108 358 115 331 q 121 371 107 368 q 167 379 144 376 q 215 381 190 382 q 243 363 239 381 q 251 301 249 332 q 265 206 254 254 q 301 111 276 158 q 315 97 308 97 q 329 107 321 97 q 385 176 361 139 q 413 256 410 213 q 403 319 415 288 q 372 381 390 350 q 319 450 351 418 q 250 511 286 482 q 203 558 224 533 q 163 607 182 582 q 153 641 154 619 q 160 683 153 663 q 179 713 168 704 q 208 734 193 724 q 242 749 222 744 q 249 753 246 750 q 254 757 253 756 q 336 788 286 786 q 429 763 386 790 q 456 734 447 753 q 460 700 465 715 q 433 669 454 682 q 392 658 413 657 q 368 643 372 660 q 376 599 364 619 q 407 558 389 578 q 495 463 453 511 q 572 363 538 414 q 621 242 613 303 q 611 119 629 181 q 535 -25 590 38 q 490 -53 517 -47 q 431 -56 464 -60 q 399 -64 410 -53 q 332 -99 375 -92 q 241 -94 289 -106 q 155 -54 193 -82 q 101 15 117 -26 q 72 135 79 76 q 92 250 65 194 m 367 776 q 311 778 336 783 q 281 754 286 772 q 331 752 306 754 q 367 776 357 750 m 436 167 q 417 118 431 136 q 390 83 403 100 q 340 46 369 57 q 267 44 311 35 q 207 69 231 53 q 175 115 183 86 q 169 147 171 131 q 167 178 168 163 q 161 234 165 206 q 158 290 157 263 q 143 307 158 306 q 131 309 138 308 q 122 303 125 310 q 101 244 114 272 q 85 185 89 217 q 91 94 79 139 q 122 3 103 49 q 173 -57 139 -36 q 253 -87 207 -78 q 301 -92 276 -92 q 344 -82 325 -93 q 413 -31 383 -60 q 456 33 442 -3 q 494 139 475 86 q 511 249 513 192 q 510 309 511 279 q 490 367 510 339 q 367 514 436 446 q 316 567 340 540 q 278 624 292 593 q 303 661 263 657 q 344 666 322 664 q 386 667 365 668 q 421 676 410 665 q 442 697 432 686 q 447 723 450 710 q 433 747 443 736 q 401 765 419 763 q 369 754 382 768 q 324 742 353 740 q 254 740 288 744 q 197 711 221 736 q 172 646 171 683 q 200 576 172 608 q 247 528 222 551 q 299 482 272 506 q 411 328 383 410 q 436 167 439 246 m 597 135 q 601 148 600 142 q 604 160 603 154 q 603 268 618 215 q 554 372 588 321 q 480 467 521 421 q 394 557 439 514 q 362 599 375 576 q 350 647 349 621 q 349 653 350 650 q 340 657 347 656 q 299 648 310 660 q 300 613 288 636 q 306 605 303 608 q 311 597 308 601 q 371 525 336 558 q 438 456 406 492 q 508 357 482 408 q 528 247 535 306 q 515 167 524 207 q 493 89 507 128 q 470 25 482 57 q 432 -32 458 -7 q 442 -47 419 -44 q 515 -25 489 -54 q 567 50 550 8 q 597 135 583 92 m 153 315 q 187 310 171 310 q 219 313 203 311 q 233 325 233 314 q 222 367 232 360 q 172 368 213 374 q 160 366 167 367 q 147 364 154 365 q 126 352 125 363 q 126 331 128 342 q 136 318 126 318 q 153 315 146 318 m 226 301 q 215 301 221 301 q 201 300 208 300 q 178 297 183 303 q 172 276 172 290 q 176 201 171 239 q 186 125 182 163 q 214 76 190 97 q 244 63 228 64 q 281 69 260 63 q 297 85 297 76 q 288 107 297 94 q 283 117 285 113 q 251 200 261 157 q 235 286 242 243 q 235 295 235 290 q 226 301 235 300 m 279 54 q 350 67 325 46 q 386 102 369 83 q 413 143 403 121 q 419 211 428 172 q 365 123 394 164 q 279 54 335 82 z "},"t":{"ha":694,"x_min":67,"x_max":510,"o":"m 264 663 q 313 733 283 707 q 374 781 343 758 q 393 792 383 788 q 414 796 403 796 q 435 788 428 796 q 440 761 442 781 q 461 735 439 729 q 485 734 481 740 q 493 701 490 728 q 499 647 496 674 q 506 592 501 619 q 490 574 510 563 q 451 583 469 585 q 413 578 432 581 q 393 546 392 575 q 405 360 399 453 q 421 175 411 268 q 425 148 422 161 q 429 121 428 135 q 432 97 432 108 q 418 83 432 86 q 413 64 410 81 q 420 -1 419 32 q 425 -65 421 -33 q 407 -104 429 -97 q 392 -109 400 -106 q 378 -118 385 -112 q 330 -132 356 -136 q 278 -117 304 -128 q 246 -108 263 -108 q 214 -107 229 -108 q 176 -88 188 -104 q 163 -37 164 -72 q 159 122 163 42 q 150 282 156 201 q 147 360 147 321 q 144 439 147 400 q 138 467 143 463 q 117 465 133 471 q 83 461 86 456 q 72 510 79 467 q 75 588 67 557 q 124 621 83 619 q 147 664 149 624 q 150 709 146 688 q 179 733 154 731 q 206 745 193 736 q 232 760 218 754 q 253 735 260 772 q 253 699 250 717 q 264 663 257 682 m 285 654 q 354 684 321 669 q 419 717 388 699 q 429 740 431 722 q 424 772 428 758 q 411 781 419 785 q 396 775 403 778 q 344 740 369 760 q 299 694 319 721 q 291 680 294 689 q 285 654 288 671 m 199 693 q 223 699 210 696 q 238 725 236 703 q 225 743 240 750 q 201 732 213 738 q 178 721 189 726 q 168 710 172 717 q 167 693 164 703 q 175 687 169 683 q 186 690 181 690 q 192 690 189 689 q 199 693 194 692 m 479 699 q 465 717 476 718 q 451 712 457 715 q 444 696 444 708 q 446 669 444 682 q 447 642 447 656 q 451 603 447 610 q 479 593 456 596 q 492 607 493 589 q 485 653 489 631 q 479 699 482 676 m 200 678 q 188 675 194 676 q 175 671 182 674 q 161 651 160 668 q 155 619 164 629 q 133 607 146 610 q 89 579 99 604 q 85 510 79 554 q 92 478 89 483 q 113 479 94 474 q 151 483 144 489 q 158 431 157 476 l 158 418 q 166 186 157 303 q 178 -46 175 69 q 185 -78 178 -71 q 210 -89 192 -86 q 249 -95 229 -90 q 289 -110 269 -100 q 331 -112 319 -124 q 344 -62 343 -101 q 341 20 346 -21 q 336 103 336 61 q 349 321 338 214 q 371 535 361 428 q 382 578 374 563 q 413 594 390 593 q 432 617 431 597 l 432 669 q 411 692 432 700 q 343 661 376 676 q 276 629 310 646 q 256 625 261 622 q 249 651 251 628 q 238 681 246 675 q 215 681 231 688 q 208 679 211 679 q 200 678 204 679 m 383 475 q 361 316 371 396 q 350 154 351 236 q 347 124 350 140 q 353 97 344 108 q 372 92 360 85 q 393 97 383 99 q 399 98 396 97 q 404 97 401 99 q 418 124 424 97 q 403 237 408 181 q 393 349 399 293 q 388 413 390 381 q 383 475 386 444 m 404 57 q 383 76 400 81 q 361 72 374 72 q 350 46 349 71 q 354 -42 354 3 q 361 -97 356 -92 q 400 -85 367 -103 q 410 -79 406 -82 q 414 -67 414 -76 q 410 -4 413 -35 q 404 57 407 26 z "},"u":{"ha":806,"x_min":78,"x_max":632,"o":"m 335 193 q 327 81 333 138 q 307 -31 321 25 q 286 -79 300 -57 q 196 -111 254 -128 q 121 -62 144 -96 q 90 17 97 -29 q 85 231 78 124 q 113 444 93 339 q 124 520 119 483 q 124 594 129 557 q 147 621 122 619 q 166 624 157 621 q 185 628 175 626 q 239 597 229 635 q 251 552 246 575 q 261 507 256 529 q 266 490 264 499 q 271 474 268 482 q 293 442 279 456 q 333 429 307 428 q 422 485 401 432 q 433 523 429 504 q 436 561 436 542 q 439 649 438 606 q 439 736 440 693 q 445 783 439 760 q 457 829 451 807 q 472 845 460 842 q 493 851 483 849 q 542 856 529 863 q 560 814 556 849 q 585 616 572 715 q 604 417 599 517 q 615 265 608 340 q 629 113 622 189 q 624 76 632 90 q 593 53 617 61 q 553 26 564 43 q 544 -17 543 10 q 539 -60 547 -53 q 490 -74 531 -67 q 453 -81 472 -76 q 415 -89 435 -85 q 377 -88 389 -94 q 361 -57 365 -82 q 351 23 354 -17 q 344 103 347 63 q 340 149 343 126 q 335 193 338 171 m 507 844 q 487 839 496 843 q 475 825 478 835 q 467 795 469 811 q 460 764 464 779 q 469 753 457 754 q 509 757 493 747 q 526 789 525 767 q 528 808 528 799 q 531 826 529 817 q 507 844 535 857 m 542 789 q 542 648 543 719 q 546 507 540 576 q 547 363 550 435 q 543 217 543 290 q 544 142 544 179 q 546 68 544 106 q 547 57 546 63 q 558 53 549 51 q 599 72 582 56 q 614 108 615 89 q 602 280 608 194 q 589 450 596 365 q 569 620 581 536 q 542 789 558 704 m 321 297 q 331 285 328 294 q 346 229 342 258 q 353 169 350 200 q 362 60 357 115 q 372 -49 367 6 q 383 -75 375 -69 q 413 -76 390 -81 q 460 -67 436 -72 q 508 -58 485 -61 q 532 -32 532 -57 q 533 1 532 -15 q 532 36 533 18 q 531 185 529 110 q 533 333 532 260 q 533 522 536 428 q 526 710 529 617 q 517 743 525 738 q 479 743 508 749 q 458 731 463 740 q 454 708 453 722 q 454 604 456 657 q 439 500 453 551 q 398 413 426 451 q 313 356 369 374 q 214 397 242 333 q 202 449 204 422 q 196 501 200 475 q 194 514 194 508 q 181 518 193 519 q 133 479 142 517 q 96 106 92 293 q 101 31 97 68 q 121 -40 106 -6 q 158 -83 133 -67 q 213 -104 182 -99 q 243 -100 229 -107 q 267 -79 257 -93 q 286 -47 278 -64 q 299 -11 294 -29 q 315 128 314 58 q 315 267 317 197 q 315 282 315 274 q 321 297 315 290 m 210 613 q 201 599 201 607 q 203 585 201 592 q 210 524 206 554 q 215 463 214 493 q 222 425 217 443 q 236 390 228 407 q 281 363 249 365 q 342 381 308 361 q 386 428 375 401 q 377 426 381 426 q 369 425 374 426 q 290 426 315 413 q 249 488 264 440 q 238 535 243 511 q 225 583 232 560 q 222 599 224 590 q 210 613 219 607 m 186 594 q 168 611 182 615 q 149 607 158 610 q 140 592 140 604 q 140 571 139 582 q 142 549 140 560 q 144 532 143 540 q 160 525 146 524 q 181 533 171 528 q 189 553 190 539 q 187 575 188 564 q 186 594 186 586 z "},"v":{"ha":944,"x_min":110,"x_max":768,"o":"m 175 669 q 205 667 192 676 q 229 638 218 657 q 303 544 263 588 q 383 456 344 500 q 401 444 393 446 q 415 458 408 442 q 463 563 439 511 q 508 667 486 615 q 519 695 515 681 q 525 724 524 710 q 533 746 525 739 q 553 757 542 753 q 651 773 601 775 q 751 775 701 771 q 767 766 767 776 q 767 744 768 756 q 749 632 757 689 q 732 518 740 575 q 720 424 725 471 q 703 333 715 378 q 680 217 688 276 q 665 100 672 158 q 642 -15 658 42 q 633 -62 636 -37 q 625 -110 629 -86 q 596 -133 621 -137 q 556 -128 576 -129 q 517 -126 536 -126 q 478 -112 496 -125 q 447 -86 461 -100 q 391 -51 421 -58 q 329 -46 361 -44 q 285 -8 294 -46 q 226 219 256 106 q 164 447 196 333 q 151 489 158 468 q 136 531 144 510 q 122 576 128 553 q 113 625 115 600 q 117 659 110 650 q 147 669 124 668 q 159 670 153 671 q 175 669 165 669 m 668 338 q 690 356 686 333 q 701 412 697 383 q 708 467 704 440 q 729 600 718 533 q 749 735 740 667 q 747 756 750 750 q 728 758 743 761 q 682 757 707 754 q 658 750 665 758 q 647 726 650 742 q 642 689 644 708 q 636 650 639 669 q 610 508 622 579 q 583 365 597 438 q 597 346 579 347 q 633 342 615 344 q 668 338 650 340 m 613 757 q 592 752 604 756 q 568 747 581 749 q 549 738 554 746 q 540 715 543 731 q 528 611 532 664 q 508 507 525 558 q 476 388 488 449 q 449 267 465 326 q 422 128 431 199 q 399 -10 414 58 q 404 -33 394 -25 q 437 -60 422 -46 q 469 -86 451 -75 q 492 -93 489 -96 q 497 -68 496 -90 q 500 -49 499 -58 q 501 -31 501 -40 q 517 130 506 50 q 549 286 528 210 q 565 347 557 317 q 578 408 572 378 q 608 573 593 490 q 636 738 622 656 q 633 754 639 751 q 613 757 626 757 m 160 657 q 131 650 138 657 q 128 619 125 643 q 131 603 129 611 q 133 588 132 594 q 160 565 138 564 q 178 573 171 568 q 188 592 186 578 q 188 607 188 599 q 189 622 188 615 q 188 651 192 647 q 160 657 183 656 m 515 633 q 508 628 510 632 q 503 619 506 624 q 452 503 479 560 q 396 389 425 446 q 325 381 365 326 q 301 417 313 399 q 276 454 289 436 q 240 504 258 481 q 199 549 221 528 q 176 556 188 560 q 153 549 164 551 q 148 542 147 547 q 150 531 149 536 q 173 463 164 497 q 190 394 182 429 q 241 205 215 300 q 292 15 267 110 q 303 -22 300 -12 q 316 -31 307 -31 q 349 -33 325 -31 q 379 -14 371 -37 q 390 29 386 7 q 397 74 394 51 q 439 293 414 185 q 493 508 464 401 q 508 570 501 539 q 515 633 515 601 m 200 588 q 205 564 199 574 q 219 546 211 554 q 264 494 243 522 q 304 438 285 465 q 324 408 315 424 q 347 379 333 392 q 356 373 351 376 q 367 371 360 369 q 387 399 381 375 q 383 433 393 422 q 310 517 349 478 q 239 600 272 556 q 227 620 233 608 q 210 629 221 632 q 203 611 200 625 q 200 588 206 597 m 638 264 q 647 262 642 263 q 658 261 653 261 q 676 276 676 263 q 678 299 675 289 q 679 313 681 306 q 668 322 678 321 q 631 328 650 325 q 593 331 613 331 q 572 318 575 332 q 567 292 569 304 q 571 274 564 278 q 588 268 578 271 q 611 265 599 267 q 638 264 624 263 m 628 192 l 628 193 l 640 193 q 659 199 654 192 q 665 219 664 207 q 642 247 667 244 q 610 251 626 249 q 576 256 593 254 q 556 246 560 258 q 550 222 553 233 q 569 197 546 200 q 599 195 585 196 q 628 192 614 194 m 593 154 l 593 153 q 615 153 604 153 q 636 156 626 154 q 649 159 643 157 q 654 171 656 161 q 648 179 654 179 q 636 179 642 179 q 597 181 617 181 q 557 182 576 181 q 547 182 551 182 q 540 172 542 182 q 556 154 539 157 l 593 154 m 594 111 l 594 110 l 638 110 q 654 125 654 110 q 638 140 656 140 l 550 140 q 535 126 535 140 q 549 111 535 111 l 594 111 m 543 50 q 588 56 565 53 q 632 60 610 58 q 647 81 647 61 q 642 92 647 89 q 632 94 638 94 q 588 97 610 96 q 543 97 565 97 q 528 86 531 96 q 525 65 526 76 q 530 52 524 56 q 543 50 536 49 m 514 -69 q 519 -108 514 -103 q 550 -114 524 -114 q 571 -115 561 -115 q 590 -117 581 -115 q 615 -97 611 -121 q 627 -36 621 -67 q 639 24 633 -6 q 622 46 646 50 q 599 44 611 44 q 576 42 588 43 q 531 29 539 39 q 518 -21 522 19 q 516 -47 517 -35 q 514 -69 515 -60 z "},"w":{"ha":963,"x_min":85,"x_max":800,"o":"m 413 385 q 403 254 401 321 q 399 122 406 188 q 392 72 396 97 q 385 22 389 47 q 368 0 382 1 q 272 -40 319 -18 q 167 -54 224 -61 q 140 -44 147 -51 q 133 -19 133 -37 q 141 28 133 4 q 146 78 149 53 q 138 250 139 164 q 125 421 136 336 q 113 513 119 467 q 100 604 107 558 q 99 610 99 607 q 97 615 99 614 q 88 644 90 631 q 103 672 85 658 q 131 700 118 685 q 161 726 144 715 q 206 729 178 736 q 250 701 236 724 q 291 633 272 668 q 328 564 310 599 q 332 555 331 560 q 340 550 333 550 q 354 599 351 574 q 347 650 357 624 q 345 706 335 690 q 399 728 356 721 q 431 733 414 731 q 463 736 447 735 q 482 733 476 739 q 493 717 488 726 q 549 627 521 672 q 599 533 576 582 q 604 524 601 529 q 613 517 607 518 q 622 523 619 517 q 626 535 625 529 q 669 617 650 575 q 697 707 688 660 q 717 735 701 725 q 754 744 733 744 q 790 732 775 744 q 799 718 797 726 q 797 703 800 710 q 767 528 769 617 q 761 350 765 439 q 747 192 758 271 q 725 35 736 114 q 717 -22 721 7 q 708 -81 713 -51 q 697 -113 706 -107 q 661 -118 689 -119 q 578 -111 619 -115 q 494 -107 536 -107 q 472 -99 478 -107 q 463 -78 465 -92 q 437 153 444 38 q 413 385 429 269 m 108 636 q 144 399 135 515 q 158 165 153 282 q 163 81 160 124 q 154 -1 165 39 q 152 -21 153 -11 q 161 -37 151 -31 q 190 -44 171 -44 q 226 -36 208 -43 q 247 -18 243 -29 q 293 113 275 46 q 321 249 311 181 q 348 353 329 303 q 392 451 367 404 q 397 465 394 458 q 410 469 400 471 q 421 461 419 468 q 424 447 422 454 q 438 335 435 392 q 449 221 442 278 q 463 76 457 149 q 482 -67 468 4 q 515 -94 488 -94 q 587 -99 551 -96 q 657 -106 622 -101 q 692 -81 686 -107 q 703 -15 699 -47 q 711 51 707 18 q 738 266 726 158 q 749 483 749 374 q 751 590 749 536 q 775 696 753 644 q 779 717 781 707 q 763 729 778 726 q 735 731 749 732 q 718 710 721 729 q 685 605 710 654 q 635 507 660 556 q 567 410 610 456 q 532 415 543 383 q 498 500 518 460 q 460 582 478 540 q 441 613 450 610 q 403 611 432 617 q 383 603 390 608 q 372 583 375 597 q 366 558 369 571 q 358 532 363 544 q 343 490 351 511 q 317 454 335 469 q 294 444 304 444 q 272 457 283 443 q 231 518 250 486 q 190 581 213 550 q 156 611 176 600 q 108 636 135 622 m 432 721 q 378 710 399 718 q 360 681 353 703 q 365 650 364 667 q 385 622 367 633 q 390 621 386 621 q 426 628 414 619 q 443 660 438 638 q 448 677 446 668 q 451 696 450 686 q 432 721 458 722 m 210 696 q 208 710 213 707 q 193 715 203 714 q 148 703 163 721 q 118 669 133 686 q 111 655 111 663 q 122 646 111 647 q 142 635 133 644 q 162 620 151 625 q 188 628 172 615 q 189 631 189 629 q 190 633 189 632 q 203 665 200 649 q 210 696 206 681 m 456 642 l 456 629 q 500 527 478 578 q 544 426 522 476 q 557 422 549 418 q 577 445 568 428 q 591 482 586 463 q 590 511 596 501 q 543 606 568 560 q 486 696 518 653 q 478 704 482 704 q 471 702 472 706 q 469 696 469 699 q 462 667 465 682 q 456 642 458 653 m 229 696 q 217 656 226 674 q 201 621 208 639 q 197 606 200 614 q 199 592 194 599 q 239 531 218 561 q 281 469 260 500 q 310 469 293 450 q 328 501 322 485 q 324 538 335 518 q 291 599 307 568 q 260 661 275 631 q 248 680 254 671 q 229 696 242 689 m 388 400 q 374 375 378 386 q 365 353 369 364 q 347 283 351 318 q 335 214 342 249 q 308 103 324 158 q 274 -4 292 49 q 286 -17 267 -25 q 321 -3 304 -10 q 356 8 338 3 q 367 19 364 11 q 372 35 371 26 q 380 108 374 71 q 385 182 386 144 q 384 249 383 215 q 389 318 385 283 q 392 358 392 338 q 388 400 392 378 z "}}}
